<svg width="403" height="251" viewBox="0 0 403 251" version="1.1" xmlns="http://www.w3.org/2000/svg" xmlns:xlink="http://www.w3.org/1999/xlink">
<title>Group 3</title>
<desc>Created using Figma</desc>
<g id="Canvas" transform="translate(-281 -375)">
<g id="Group 3">
<g id="Rectangle">
<mask id="mask0_outline_ins">
<use xlink:href="#path0_fill" fill="white" transform="translate(459.001 375.752)"/>
</mask>
<g mask="url(#mask0_outline_ins)">
<use xlink:href="#path1_stroke_2x" transform="translate(459.001 375.752)"/>
</g>
</g>
<g id="Arrow">
<use xlink:href="#path2_stroke" transform="translate(385.311 416.073)" fill="#1CA6F0"/>
</g>
<g id="Arrow (Stroke)">
<use xlink:href="#path3_fill" transform="matrix(-1 1.22465e-16 -1.22465e-16 -1 608.286 440.911)" fill="#1CA6F0"/>
</g>
<g id="Vector">
<use xlink:href="#path4_fill" transform="translate(289.418 383.836)"/>
<use xlink:href="#path5_fill" transform="translate(289.418 383.836)"/>
<use xlink:href="#path6_fill" transform="translate(289.418 383.836)"/>
</g>
<g id="programmer">
<use xlink:href="#path7_fill" transform="translate(280.657 457.246)"/>
</g>
<g id="designs">
<use xlink:href="#path8_fill" transform="translate(382.638 430.307)" fill="#1CA6F0"/>
</g>
<g id="to design itself">
<use xlink:href="#path9_fill" transform="translate(621.541 400.831)" fill="#1CA6F0"/>
</g>
<g id="program">
<use xlink:href="#path10_fill" transform="translate(473.032 407.833)"/>
</g>
<g id="Ellipse">
<use xlink:href="#path11_fill" transform="translate(459.638 533.841)" fill="#FFFFFF"/>
<mask id="mask1_outline_ins">
<use xlink:href="#path11_fill" fill="white" transform="translate(459.638 533.841)"/>
</mask>
<g mask="url(#mask1_outline_ins)">
<use xlink:href="#path12_stroke_2x" transform="translate(459.638 533.841)"/>
</g>
</g>
<g id="Arrow">
<use xlink:href="#path2_stroke" transform="matrix(6.12323e-17 1 -1 6.12323e-17 504.81 470.863)"/>
</g>
<g id="to produce">
<use xlink:href="#path13_fill" transform="translate(527.157 484.858)"/>
</g>
<g id="result">
<use xlink:href="#path14_fill" transform="translate(483.864 569.581)"/>
</g>
</g>
</g>
<defs>
<path id="path0_fill" d="M 0 18C 0 8.05887 8.05888 0 18 0L 73.6201 0C 83.5612 0 91.6201 8.05888 91.6201 18L 91.6201 66.4272C 91.6201 76.3684 83.5612 84.4272 73.6201 84.4272L 18 84.4272C 8.05887 84.4272 0 76.3684 0 66.4272L 0 18Z"/>
<path id="path1_stroke_2x" d="M 18 3L 73.6201 3L 73.6201 -3L 18 -3L 18 3ZM 88.6201 18L 88.6201 66.4272L 94.6201 66.4272L 94.6201 18L 88.6201 18ZM 73.6201 81.4272L 18 81.4272L 18 87.4272L 73.6201 87.4272L 73.6201 81.4272ZM 3 66.4272L 3 18L -3 18L -3 66.4272L 3 66.4272ZM 18 81.4272C 9.71573 81.4272 3 74.7115 3 66.4272L -3 66.4272C -3 78.0252 6.40202 87.4272 18 87.4272L 18 81.4272ZM 88.6201 66.4272C 88.6201 74.7115 81.9044 81.4272 73.6201 81.4272L 73.6201 87.4272C 85.2181 87.4272 94.6201 78.0252 94.6201 66.4272L 88.6201 66.4272ZM 73.6201 3C 81.9044 3 88.6201 9.71573 88.6201 18L 94.6201 18C 94.6201 6.40202 85.2181 -3 73.6201 -3L 73.6201 3ZM 18 -3C 6.40202 -3 -3 6.40202 -3 18L 3 18C 3 9.71573 9.71573 3 18 3L 18 -3Z"/>
<path id="path2_stroke" d="M 55.0184 1.41421C 55.7994 0.633165 55.7994 -0.633165 55.0184 -1.41421L 42.2904 -14.1421C 41.5094 -14.9232 40.2431 -14.9232 39.462 -14.1421C 38.681 -13.3611 38.681 -12.0948 39.462 -11.3137L 50.7757 0L 39.462 11.3137C 38.681 12.0948 38.681 13.3611 39.462 14.1421C 40.2431 14.9232 41.5094 14.9232 42.2904 14.1421L 55.0184 1.41421ZM 0 2L 53.6041 2L 53.6041 -2L 0 -2L 0 2Z"/>
<path id="path3_fill" fill-rule="evenodd" d="M 32.9778 23.8827L 44.7018 35.6066C 45.4212 36.3261 45.4212 37.4925 44.7018 38.2119L 32.9778 49.9358C 32.2584 50.6553 31.0919 50.6553 30.3725 49.9358C 29.6531 49.2164 29.6531 48.05 30.3725 47.3305L 38.9516 38.7515C -13.3229 38.7515 -12.6437 -1.72896e-12 38.9516 1.02265e-16L 38.9516 3.72056C -7.55045 3.72056 -7.21111 35.067 38.9516 35.067L 30.3725 26.488C 29.6531 25.7686 29.6531 24.6022 30.3725 23.8827C 31.0919 23.1633 32.2584 23.1633 32.9778 23.8827Z"/>
<path id="path4_fill" d="M 27.5913 68.259L 0 68.259L 0 40.2202C 0 30.9734 7.89194 25.4551 16.5548 25.4551C 26.0832 25.4551 34.3093 42.5457 38.3296 44.8436C 42.3499 47.1416 51.1111 48.8136 53.4519 49.2818C 55.7927 49.7499 58.7354 52.5589 58.0164 56.0293C 57.4392 58.8152 53.4519 59.3137 51.305 58.863C 45.2906 57.6005 38.956 55.5521 36.0924 54.8362C 33.2289 54.1203 29.2319 50.0636 27.5913 48.1248L 27.5913 68.259Z"/>
<path id="path5_fill" d="M 37.1691 68.259L 37.1691 62.2598L 63.8352 62.2598L 69.3282 31.3991L 75.5103 32.2979L 69.0185 68.259L 37.1691 68.259Z"/>
<path id="path6_fill" d="M 26.0083 10.3669C 26.0083 16.0924 21.3862 20.7339 15.6846 20.7339C 9.98298 20.7339 5.36091 16.0924 5.36091 10.3669C 5.36091 4.64144 9.98298 0 15.6846 0C 21.3862 0 26.0083 4.64144 26.0083 10.3669Z"/>
<path id="path7_fill" d="M 7.94678 10.1108C 7.94678 11.3315 7.66846 12.3105 7.11182 13.0479C 6.56006 13.7803 5.81299 14.1465 4.87061 14.1465C 4.06982 14.1465 3.42285 13.8682 2.92969 13.3115L 2.92969 17.0469L 0.812988 17.0469L 0.812988 6.0752L 2.77588 6.0752L 2.84912 6.85156C 3.36182 6.23633 4.03076 5.92871 4.85596 5.92871C 5.83252 5.92871 6.5918 6.29004 7.13379 7.0127C 7.67578 7.73535 7.94678 8.73145 7.94678 10.001L 7.94678 10.1108ZM 5.83008 9.95703C 5.83008 9.21973 5.69824 8.65088 5.43457 8.25049C 5.17578 7.8501 4.79736 7.6499 4.29932 7.6499C 3.63525 7.6499 3.17871 7.90381 2.92969 8.41162L 2.92969 11.6562C 3.18848 12.1787 3.6499 12.4399 4.31396 12.4399C 5.32471 12.4399 5.83008 11.6123 5.83008 9.95703ZM 13.7183 8.06006C 13.4302 8.021 13.1763 8.00146 12.9565 8.00146C 12.1558 8.00146 11.6309 8.27246 11.3818 8.81445L 11.3818 14L 9.26514 14L 9.26514 6.0752L 11.2646 6.0752L 11.3232 7.02002C 11.748 6.29248 12.3364 5.92871 13.0884 5.92871C 13.3228 5.92871 13.5425 5.96045 13.7476 6.02393L 13.7183 8.06006ZM 14.1504 9.96436C 14.1504 9.17822 14.3018 8.47754 14.6045 7.8623C 14.9072 7.24707 15.3418 6.771 15.9082 6.43408C 16.4795 6.09717 17.1411 5.92871 17.8931 5.92871C 18.9624 5.92871 19.834 6.25586 20.5078 6.91016C 21.1865 7.56445 21.5649 8.45313 21.6431 9.57617L 21.6577 10.1182C 21.6577 11.334 21.3184 12.3105 20.6396 13.0479C 19.9609 13.7803 19.0503 14.1465 17.9077 14.1465C 16.7651 14.1465 15.8521 13.7803 15.1685 13.0479C 14.4897 12.3154 14.1504 11.3193 14.1504 10.0596L 14.1504 9.96436ZM 16.2671 10.1182C 16.2671 10.8701 16.4087 11.4463 16.6919 11.8467C 16.9751 12.2422 17.3804 12.4399 17.9077 12.4399C 18.4204 12.4399 18.8208 12.2446 19.1089 11.854C 19.397 11.4585 19.541 10.8286 19.541 9.96436C 19.541 9.22705 19.397 8.65576 19.1089 8.25049C 18.8208 7.84521 18.4155 7.64258 17.8931 7.64258C 17.3755 7.64258 16.9751 7.84521 16.6919 8.25049C 16.4087 8.65088 16.2671 9.27344 16.2671 10.1182ZM 22.6538 9.979C 22.6538 8.76318 22.9419 7.78418 23.5181 7.04199C 24.0991 6.2998 24.8804 5.92871 25.8618 5.92871C 26.731 5.92871 27.4072 6.22656 27.8906 6.82227L 27.9785 6.0752L 29.8975 6.0752L 29.8975 13.7363C 29.8975 14.4297 29.7388 15.0327 29.4214 15.5454C 29.1089 16.0581 28.667 16.4487 28.0957 16.7173C 27.5244 16.9858 26.8555 17.1201 26.0889 17.1201C 25.5078 17.1201 24.9414 17.0029 24.3896 16.7686C 23.8379 16.5391 23.4204 16.2412 23.1372 15.875L 24.0747 14.5859C 24.6021 15.1768 25.2417 15.4722 25.9937 15.4722C 26.5552 15.4722 26.9922 15.3208 27.3047 15.0181C 27.6172 14.7202 27.7734 14.2954 27.7734 13.7437L 27.7734 13.3188C 27.2852 13.8706 26.6431 14.1465 25.8472 14.1465C 24.895 14.1465 24.1235 13.7754 23.5327 13.0332C 22.9468 12.2861 22.6538 11.2974 22.6538 10.0669L 22.6538 9.979ZM 24.7705 10.1328C 24.7705 10.8506 24.9146 11.4146 25.2026 11.8247C 25.4907 12.23 25.8862 12.4326 26.3892 12.4326C 27.0337 12.4326 27.4951 12.1909 27.7734 11.7075L 27.7734 8.375C 27.4902 7.8916 27.0337 7.6499 26.4038 7.6499C 25.896 7.6499 25.4956 7.85742 25.2026 8.27246C 24.9146 8.6875 24.7705 9.30762 24.7705 10.1328ZM 35.9839 8.06006C 35.6958 8.021 35.4419 8.00146 35.2222 8.00146C 34.4214 8.00146 33.8965 8.27246 33.6475 8.81445L 33.6475 14L 31.5308 14L 31.5308 6.0752L 33.5303 6.0752L 33.5889 7.02002C 34.0137 6.29248 34.6021 5.92871 35.354 5.92871C 35.5884 5.92871 35.8081 5.96045 36.0132 6.02393L 35.9839 8.06006ZM 41.3818 14C 41.2842 13.8096 41.2134 13.5728 41.1694 13.2896C 40.6567 13.8608 39.9902 14.1465 39.1699 14.1465C 38.3936 14.1465 37.749 13.9219 37.2363 13.4727C 36.7285 13.0234 36.4746 12.457 36.4746 11.7734C 36.4746 10.9336 36.7847 10.2891 37.4048 9.83984C 38.0298 9.39063 38.9307 9.16357 40.1074 9.15869L 41.0815 9.15869L 41.0815 8.70459C 41.0815 8.33838 40.9863 8.04541 40.7959 7.82568C 40.6104 7.60596 40.3149 7.49609 39.9097 7.49609C 39.5532 7.49609 39.2725 7.58154 39.0674 7.75244C 38.8672 7.92334 38.7671 8.15771 38.7671 8.45557L 36.6504 8.45557C 36.6504 7.99658 36.792 7.57178 37.0752 7.18115C 37.3584 6.79053 37.7588 6.48535 38.2764 6.26562C 38.7939 6.04102 39.375 5.92871 40.0195 5.92871C 40.9961 5.92871 41.77 6.17529 42.3413 6.66846C 42.9175 7.15674 43.2056 7.84521 43.2056 8.73389L 43.2056 12.1689C 43.2104 12.9209 43.3154 13.4897 43.5205 13.8755L 43.5205 14L 41.3818 14ZM 39.6313 12.5278C 39.9438 12.5278 40.2319 12.4595 40.4956 12.3228C 40.7593 12.1812 40.9546 11.9932 41.0815 11.7588L 41.0815 10.3965L 40.2905 10.3965C 39.231 10.3965 38.667 10.7627 38.5986 11.4951L 38.5913 11.6196C 38.5913 11.8833 38.6841 12.1006 38.8696 12.2715C 39.0552 12.4424 39.3091 12.5278 39.6313 12.5278ZM 46.8164 6.0752L 46.8823 6.96143C 47.4438 6.27295 48.2031 5.92871 49.1602 5.92871C 50.1807 5.92871 50.8813 6.33154 51.2622 7.13721C 51.8188 6.33154 52.6123 5.92871 53.6426 5.92871C 54.502 5.92871 55.1416 6.18018 55.5615 6.68311C 55.9814 7.18115 56.1914 7.93311 56.1914 8.93896L 56.1914 14L 54.0674 14L 54.0674 8.94629C 54.0674 8.49707 53.9795 8.16992 53.8037 7.96484C 53.6279 7.75488 53.3179 7.6499 52.8735 7.6499C 52.2388 7.6499 51.7993 7.95264 51.5552 8.55811L 51.5625 14L 49.4458 14L 49.4458 8.95361C 49.4458 8.49463 49.3555 8.1626 49.1748 7.95752C 48.9941 7.75244 48.6865 7.6499 48.252 7.6499C 47.6514 7.6499 47.2168 7.89893 46.9482 8.39697L 46.9482 14L 44.8315 14L 44.8315 6.0752L 46.8164 6.0752ZM 59.8096 6.0752L 59.8755 6.96143C 60.437 6.27295 61.1963 5.92871 62.1533 5.92871C 63.1738 5.92871 63.8745 6.33154 64.2554 7.13721C 64.812 6.33154 65.6055 5.92871 66.6357 5.92871C 67.4951 5.92871 68.1348 6.18018 68.5547 6.68311C 68.9746 7.18115 69.1846 7.93311 69.1846 8.93896L 69.1846 14L 67.0605 14L 67.0605 8.94629C 67.0605 8.49707 66.9727 8.16992 66.7969 7.96484C 66.6211 7.75488 66.311 7.6499 65.8667 7.6499C 65.2319 7.6499 64.7925 7.95264 64.5483 8.55811L 64.5557 14L 62.439 14L 62.439 8.95361C 62.439 8.49463 62.3486 8.1626 62.168 7.95752C 61.9873 7.75244 61.6797 7.6499 61.2451 7.6499C 60.6445 7.6499 60.21 7.89893 59.9414 8.39697L 59.9414 14L 57.8247 14L 57.8247 6.0752L 59.8096 6.0752ZM 74.4653 14.1465C 73.3032 14.1465 72.356 13.79 71.6235 13.0771C 70.896 12.3643 70.5322 11.4146 70.5322 10.228L 70.5322 10.0229C 70.5322 9.22705 70.686 8.5166 70.9937 7.8916C 71.3013 7.26172 71.7358 6.77832 72.2974 6.44141C 72.8638 6.09961 73.5083 5.92871 74.231 5.92871C 75.3149 5.92871 76.167 6.27051 76.7871 6.9541C 77.4121 7.6377 77.7246 8.60693 77.7246 9.86182L 77.7246 10.7261L 72.6782 10.7261C 72.7466 11.2437 72.9517 11.6587 73.2935 11.9712C 73.6401 12.2837 74.0771 12.4399 74.6045 12.4399C 75.4199 12.4399 76.0571 12.1445 76.5161 11.5537L 77.5562 12.7183C 77.2388 13.1675 76.8091 13.519 76.2671 13.7729C 75.7251 14.022 75.1245 14.1465 74.4653 14.1465ZM 74.2236 7.64258C 73.8037 7.64258 73.4619 7.78418 73.1982 8.06738C 72.9395 8.35059 72.7734 8.75586 72.7002 9.2832L 75.6445 9.2832L 75.6445 9.11475C 75.6348 8.646 75.5078 8.28467 75.2637 8.03076C 75.0195 7.77197 74.6729 7.64258 74.2236 7.64258ZM 83.3862 8.06006C 83.0981 8.021 82.8442 8.00146 82.6245 8.00146C 81.8237 8.00146 81.2988 8.27246 81.0498 8.81445L 81.0498 14L 78.9331 14L 78.9331 6.0752L 80.9326 6.0752L 80.9912 7.02002C 81.416 6.29248 82.0044 5.92871 82.7563 5.92871C 82.9907 5.92871 83.2104 5.96045 83.4155 6.02393L 83.3862 8.06006Z"/>
<path id="path8_fill" d="M 0.483398 9.979C 0.483398 8.74365 0.759277 7.75977 1.31104 7.02734C 1.86768 6.29492 2.62695 5.92871 3.58887 5.92871C 4.36035 5.92871 4.99756 6.2168 5.50049 6.79297L 5.50049 2.75L 7.62451 2.75L 7.62451 14L 5.71289 14L 5.61035 13.1577C 5.08301 13.8169 4.4043 14.1465 3.57422 14.1465C 2.6416 14.1465 1.89209 13.7803 1.32568 13.0479C 0.76416 12.3105 0.483398 11.2876 0.483398 9.979ZM 2.6001 10.1328C 2.6001 10.875 2.72949 11.4438 2.98828 11.8394C 3.24707 12.2349 3.62305 12.4326 4.11621 12.4326C 4.77051 12.4326 5.23193 12.1567 5.50049 11.605L 5.50049 8.47754C 5.23682 7.92578 4.78027 7.6499 4.13086 7.6499C 3.11035 7.6499 2.6001 8.47754 2.6001 10.1328ZM 12.9126 14.1465C 11.7505 14.1465 10.8032 13.79 10.0708 13.0771C 9.34326 12.3643 8.97949 11.4146 8.97949 10.228L 8.97949 10.0229C 8.97949 9.22705 9.1333 8.5166 9.44092 7.8916C 9.74854 7.26172 10.1831 6.77832 10.7446 6.44141C 11.311 6.09961 11.9556 5.92871 12.6782 5.92871C 13.7622 5.92871 14.6143 6.27051 15.2344 6.9541C 15.8594 7.6377 16.1719 8.60693 16.1719 9.86182L 16.1719 10.7261L 11.1255 10.7261C 11.1938 11.2437 11.3989 11.6587 11.7407 11.9712C 12.0874 12.2837 12.5244 12.4399 13.0518 12.4399C 13.8672 12.4399 14.5044 12.1445 14.9634 11.5537L 16.0034 12.7183C 15.686 13.1675 15.2563 13.519 14.7144 13.7729C 14.1724 14.022 13.5718 14.1465 12.9126 14.1465ZM 12.6709 7.64258C 12.251 7.64258 11.9092 7.78418 11.6455 8.06738C 11.3867 8.35059 11.2207 8.75586 11.1475 9.2832L 14.0918 9.2832L 14.0918 9.11475C 14.082 8.646 13.9551 8.28467 13.7109 8.03076C 13.4668 7.77197 13.1201 7.64258 12.6709 7.64258ZM 21.6724 11.8101C 21.6724 11.5513 21.543 11.3486 21.2842 11.2021C 21.0303 11.0508 20.6201 10.9165 20.0537 10.7993C 18.1689 10.4038 17.2266 9.60303 17.2266 8.39697C 17.2266 7.69385 17.5171 7.10791 18.0981 6.63916C 18.6841 6.16553 19.4482 5.92871 20.3906 5.92871C 21.3965 5.92871 22.1997 6.16553 22.8003 6.63916C 23.4058 7.11279 23.7085 7.72803 23.7085 8.48486L 21.5918 8.48486C 21.5918 8.18213 21.4941 7.93311 21.2988 7.73779C 21.1035 7.5376 20.7983 7.4375 20.3833 7.4375C 20.0269 7.4375 19.751 7.51807 19.5557 7.6792C 19.3604 7.84033 19.2627 8.04541 19.2627 8.29443C 19.2627 8.52881 19.3726 8.71924 19.5923 8.86572C 19.8169 9.00732 20.1929 9.13184 20.7202 9.23926C 21.2476 9.3418 21.6919 9.45898 22.0532 9.59082C 23.1714 10.001 23.7305 10.7114 23.7305 11.7222C 23.7305 12.4448 23.4204 13.0308 22.8003 13.48C 22.1802 13.9243 21.3794 14.1465 20.3979 14.1465C 19.7339 14.1465 19.1431 14.0293 18.6255 13.7949C 18.1128 13.5557 17.71 13.231 17.417 12.8208C 17.124 12.4058 16.9775 11.959 16.9775 11.4805L 18.9844 11.4805C 19.0039 11.8564 19.1431 12.1445 19.4019 12.3447C 19.6606 12.5449 20.0073 12.645 20.4419 12.645C 20.8472 12.645 21.1523 12.5693 21.3574 12.418C 21.5674 12.2617 21.6724 12.0591 21.6724 11.8101ZM 27.334 14L 25.21 14L 25.21 6.0752L 27.334 6.0752L 27.334 14ZM 25.0854 4.02441C 25.0854 3.70703 25.1904 3.4458 25.4004 3.24072C 25.6152 3.03564 25.9058 2.93311 26.272 2.93311C 26.6333 2.93311 26.9214 3.03564 27.1362 3.24072C 27.3511 3.4458 27.4585 3.70703 27.4585 4.02441C 27.4585 4.34668 27.3486 4.61035 27.1289 4.81543C 26.9141 5.02051 26.6284 5.12305 26.272 5.12305C 25.9155 5.12305 25.6274 5.02051 25.4077 4.81543C 25.1929 4.61035 25.0854 4.34668 25.0854 4.02441ZM 28.7769 9.979C 28.7769 8.76318 29.0649 7.78418 29.6411 7.04199C 30.2222 6.2998 31.0034 5.92871 31.9849 5.92871C 32.854 5.92871 33.5303 6.22656 34.0137 6.82227L 34.1016 6.0752L 36.0205 6.0752L 36.0205 13.7363C 36.0205 14.4297 35.8618 15.0327 35.5444 15.5454C 35.2319 16.0581 34.79 16.4487 34.2188 16.7173C 33.6475 16.9858 32.9785 17.1201 32.2119 17.1201C 31.6309 17.1201 31.0645 17.0029 30.5127 16.7686C 29.9609 16.5391 29.5435 16.2412 29.2603 15.875L 30.1978 14.5859C 30.7251 15.1768 31.3647 15.4722 32.1167 15.4722C 32.6782 15.4722 33.1152 15.3208 33.4277 15.0181C 33.7402 14.7202 33.8965 14.2954 33.8965 13.7437L 33.8965 13.3188C 33.4082 13.8706 32.7661 14.1465 31.9702 14.1465C 31.0181 14.1465 30.2466 13.7754 29.6558 13.0332C 29.0698 12.2861 28.7769 11.2974 28.7769 10.0669L 28.7769 9.979ZM 30.8936 10.1328C 30.8936 10.8506 31.0376 11.4146 31.3257 11.8247C 31.6138 12.23 32.0093 12.4326 32.5122 12.4326C 33.1567 12.4326 33.6182 12.1909 33.8965 11.7075L 33.8965 8.375C 33.6133 7.8916 33.1567 7.6499 32.5269 7.6499C 32.019 7.6499 31.6187 7.85742 31.3257 8.27246C 31.0376 8.6875 30.8936 9.30762 30.8936 10.1328ZM 39.6021 6.0752L 39.668 6.99072C 40.2344 6.28272 40.9937 5.92871 41.9458 5.92871C 42.7856 5.92871 43.4106 6.17529 43.8208 6.66846C 44.231 7.16162 44.4409 7.89893 44.4507 8.88037L 44.4507 14L 42.334 14L 42.334 8.93164C 42.334 8.48242 42.2363 8.15771 42.041 7.95752C 41.8457 7.75244 41.521 7.6499 41.0669 7.6499C 40.4712 7.6499 40.0244 7.90381 39.7266 8.41162L 39.7266 14L 37.6099 14L 37.6099 6.0752L 39.6021 6.0752ZM 50.354 11.8101C 50.354 11.5513 50.2246 11.3486 49.9658 11.2021C 49.7119 11.0508 49.3018 10.9165 48.7354 10.7993C 46.8506 10.4038 45.9082 9.60303 45.9082 8.39697C 45.9082 7.69385 46.1987 7.10791 46.7798 6.63916C 47.3657 6.16553 48.1299 5.92871 49.0723 5.92871C 50.0781 5.92871 50.8813 6.16553 51.4819 6.63916C 52.0874 7.11279 52.3901 7.72803 52.3901 8.48486L 50.2734 8.48486C 50.2734 8.18213 50.1758 7.93311 49.9805 7.73779C 49.7852 7.5376 49.48 7.4375 49.0649 7.4375C 48.7085 7.4375 48.4326 7.51807 48.2373 7.6792C 48.042 7.84033 47.9443 8.04541 47.9443 8.29443C 47.9443 8.52881 48.0542 8.71924 48.2739 8.86572C 48.4985 9.00732 48.8745 9.13184 49.4019 9.23926C 49.9292 9.3418 50.3735 9.45898 50.7349 9.59082C 51.853 10.001 52.4121 10.7114 52.4121 11.7222C 52.4121 12.4448 52.1021 13.0308 51.4819 13.48C 50.8618 13.9243 50.061 14.1465 49.0796 14.1465C 48.4155 14.1465 47.8247 14.0293 47.3071 13.7949C 46.7944 13.5557 46.3916 13.231 46.0986 12.8208C 45.8057 12.4058 45.6592 11.959 45.6592 11.4805L 47.666 11.4805C 47.6855 11.8564 47.8247 12.1445 48.0835 12.3447C 48.3423 12.5449 48.689 12.645 49.1235 12.645C 49.5288 12.645 49.834 12.5693 50.0391 12.418C 50.249 12.2617 50.354 12.0591 50.354 11.8101Z"/>
<path id="path9_fill" d="M 3.34717 4.12695L 3.34717 6.0752L 4.70215 6.0752L 4.70215 7.62793L 3.34717 7.62793L 3.34717 11.583C 3.34717 11.876 3.40332 12.0859 3.51562 12.2129C 3.62793 12.3398 3.84277 12.4033 4.16016 12.4033C 4.39453 12.4033 4.60205 12.3862 4.78271 12.3521L 4.78271 13.9561C 4.36768 14.083 3.94043 14.1465 3.50098 14.1465C 2.0166 14.1465 1.25977 13.397 1.23047 11.8979L 1.23047 7.62793L 0.0732422 7.62793L 0.0732422 6.0752L 1.23047 6.0752L 1.23047 4.12695L 3.34717 4.12695ZM 5.33203 9.96436C 5.33203 9.17822 5.4834 8.47754 5.78613 7.8623C 6.08887 7.24707 6.52344 6.771 7.08984 6.43408C 7.66113 6.09717 8.32275 5.92871 9.07471 5.92871C 10.144 5.92871 11.0156 6.25586 11.6895 6.91016C 12.3682 7.56445 12.7466 8.45313 12.8247 9.57617L 12.8394 10.1182C 12.8394 11.334 12.5 12.3105 11.8213 13.0479C 11.1426 13.7803 10.2319 14.1465 9.08936 14.1465C 7.94678 14.1465 7.03369 13.7803 6.3501 13.0479C 5.67139 12.3154 5.33203 11.3193 5.33203 10.0596L 5.33203 9.96436ZM 7.44873 10.1182C 7.44873 10.8701 7.59033 11.4463 7.87354 11.8467C 8.15674 12.2422 8.56201 12.4399 9.08936 12.4399C 9.60205 12.4399 10.0024 12.2446 10.2905 11.854C 10.5786 11.4585 10.7227 10.8286 10.7227 9.96436C 10.7227 9.22705 10.5786 8.65576 10.2905 8.25049C 10.0024 7.84521 9.59717 7.64258 9.07471 7.64258C 8.55713 7.64258 8.15674 7.84521 7.87354 8.25049C 7.59033 8.65088 7.44873 9.27344 7.44873 10.1182ZM 17.5488 9.979C 17.5488 8.74365 17.8247 7.75977 18.3765 7.02734C 18.9331 6.29492 19.6924 5.92871 20.6543 5.92871C 21.4258 5.92871 22.063 6.2168 22.5659 6.79297L 22.5659 2.75L 24.6899 2.75L 24.6899 14L 22.7783 14L 22.6758 13.1577C 22.1484 13.8169 21.4697 14.1465 20.6396 14.1465C 19.707 14.1465 18.9575 13.7803 18.3911 13.0479C 17.8296 12.3105 17.5488 11.2876 17.5488 9.979ZM 19.6655 10.1328C 19.6655 10.875 19.7949 11.4438 20.0537 11.8394C 20.3125 12.2349 20.6885 12.4326 21.1816 12.4326C 21.8359 12.4326 22.2974 12.1567 22.5659 11.605L 22.5659 8.47754C 22.3022 7.92578 21.8457 7.6499 21.1963 7.6499C 20.1758 7.6499 19.6655 8.47754 19.6655 10.1328ZM 29.978 14.1465C 28.8159 14.1465 27.8687 13.79 27.1362 13.0771C 26.4087 12.3643 26.0449 11.4146 26.0449 10.228L 26.0449 10.0229C 26.0449 9.22705 26.1987 8.5166 26.5063 7.8916C 26.814 7.26172 27.2485 6.77832 27.8101 6.44141C 28.3765 6.09961 29.021 5.92871 29.7437 5.92871C 30.8276 5.92871 31.6797 6.27051 32.2998 6.9541C 32.9248 7.6377 33.2373 8.60693 33.2373 9.86182L 33.2373 10.7261L 28.1909 10.7261C 28.2593 11.2437 28.4644 11.6587 28.8062 11.9712C 29.1528 12.2837 29.5898 12.4399 30.1172 12.4399C 30.9326 12.4399 31.5698 12.1445 32.0288 11.5537L 33.0688 12.7183C 32.7515 13.1675 32.3218 13.519 31.7798 13.7729C 31.2378 14.022 30.6372 14.1465 29.978 14.1465ZM 29.7363 7.64258C 29.3164 7.64258 28.9746 7.78418 28.7109 8.06738C 28.4521 8.35059 28.2861 8.75586 28.2129 9.2832L 31.1572 9.2832L 31.1572 9.11475C 31.1475 8.646 31.0205 8.28467 30.7764 8.03076C 30.5322 7.77197 30.1855 7.64258 29.7363 7.64258ZM 38.7378 11.8101C 38.7378 11.5513 38.6084 11.3486 38.3496 11.2021C 38.0957 11.0508 37.6855 10.9165 37.1191 10.7993C 35.2344 10.4038 34.292 9.60303 34.292 8.39697C 34.292 7.69385 34.5825 7.10791 35.1636 6.63916C 35.7495 6.16553 36.5137 5.92871 37.4561 5.92871C 38.4619 5.92871 39.2651 6.16553 39.8657 6.63916C 40.4712 7.11279 40.7739 7.72803 40.7739 8.48486L 38.6572 8.48486C 38.6572 8.18213 38.5596 7.93311 38.3643 7.73779C 38.1689 7.5376 37.8638 7.4375 37.4487 7.4375C 37.0923 7.4375 36.8164 7.51807 36.6211 7.6792C 36.4258 7.84033 36.3281 8.04541 36.3281 8.29443C 36.3281 8.52881 36.438 8.71924 36.6577 8.86572C 36.8823 9.00732 37.2583 9.13184 37.7856 9.23926C 38.313 9.3418 38.7573 9.45898 39.1187 9.59082C 40.2368 10.001 40.7959 10.7114 40.7959 11.7222C 40.7959 12.4448 40.4858 13.0308 39.8657 13.48C 39.2456 13.9243 38.4448 14.1465 37.4634 14.1465C 36.7993 14.1465 36.2085 14.0293 35.6909 13.7949C 35.1782 13.5557 34.7754 13.231 34.4824 12.8208C 34.1895 12.4058 34.043 11.959 34.043 11.4805L 36.0498 11.4805C 36.0693 11.8564 36.2085 12.1445 36.4673 12.3447C 36.7261 12.5449 37.0728 12.645 37.5073 12.645C 37.9126 12.645 38.2178 12.5693 38.4229 12.418C 38.6328 12.2617 38.7378 12.0591 38.7378 11.8101ZM 44.3994 14L 42.2754 14L 42.2754 6.0752L 44.3994 6.0752L 44.3994 14ZM 42.1509 4.02441C 42.1509 3.70703 42.2559 3.4458 42.4658 3.24072C 42.6807 3.03564 42.9712 2.93311 43.3374 2.93311C 43.6987 2.93311 43.9868 3.03564 44.2017 3.24072C 44.4165 3.4458 44.5239 3.70703 44.5239 4.02441C 44.5239 4.34668 44.4141 4.61035 44.1943 4.81543C 43.9795 5.02051 43.6938 5.12305 43.3374 5.12305C 42.981 5.12305 42.6929 5.02051 42.4731 4.81543C 42.2583 4.61035 42.1509 4.34668 42.1509 4.02441ZM 45.8423 9.979C 45.8423 8.76318 46.1304 7.78418 46.7065 7.04199C 47.2876 6.2998 48.0688 5.92871 49.0503 5.92871C 49.9194 5.92871 50.5957 6.22656 51.0791 6.82227L 51.167 6.0752L 53.0859 6.0752L 53.0859 13.7363C 53.0859 14.4297 52.9272 15.0327 52.6099 15.5454C 52.2974 16.0581 51.8555 16.4487 51.2842 16.7173C 50.7129 16.9858 50.0439 17.1201 49.2773 17.1201C 48.6963 17.1201 48.1299 17.0029 47.5781 16.7686C 47.0264 16.5391 46.6089 16.2412 46.3257 15.875L 47.2632 14.5859C 47.7905 15.1768 48.4302 15.4722 49.1821 15.4722C 49.7437 15.4722 50.1807 15.3208 50.4932 15.0181C 50.8057 14.7202 50.9619 14.2954 50.9619 13.7437L 50.9619 13.3188C 50.4736 13.8706 49.8315 14.1465 49.0356 14.1465C 48.0835 14.1465 47.312 13.7754 46.7212 13.0332C 46.1353 12.2861 45.8423 11.2974 45.8423 10.0669L 45.8423 9.979ZM 47.959 10.1328C 47.959 10.8506 48.103 11.4146 48.3911 11.8247C 48.6792 12.23 49.0747 12.4326 49.5776 12.4326C 50.2222 12.4326 50.6836 12.1909 50.9619 11.7075L 50.9619 8.375C 50.6787 7.8916 50.2222 7.6499 49.5923 7.6499C 49.0845 7.6499 48.6841 7.85742 48.3911 8.27246C 48.103 8.6875 47.959 9.30762 47.959 10.1328ZM 56.6675 6.0752L 56.7334 6.99072C 57.2998 6.28272 58.0591 5.92871 59.0112 5.92871C 59.8511 5.92871 60.4761 6.17529 60.8862 6.66846C 61.2964 7.16162 61.5063 7.89893 61.5161 8.88037L 61.5161 14L 59.3994 14L 59.3994 8.93164C 59.3994 8.48242 59.3018 8.15771 59.1064 7.95752C 58.9111 7.75244 58.5864 7.6499 58.1323 7.6499C 57.5366 7.6499 57.0898 7.90381 56.792 8.41162L 56.792 14L 54.6753 14L 54.6753 6.0752L 56.6675 6.0752ZM 3.04688 31L 0.922852 31L 0.922852 23.0752L 3.04688 23.0752L 3.04688 31ZM 0.79834 21.0244C 0.79834 20.707 0.90332 20.4458 1.11328 20.2407C 1.32812 20.0356 1.61865 19.9331 1.98486 19.9331C 2.34619 19.9331 2.63428 20.0356 2.84912 20.2407C 3.06396 20.4458 3.17139 20.707 3.17139 21.0244C 3.17139 21.3467 3.06152 21.6104 2.8418 21.8154C 2.62695 22.0205 2.34131 22.123 1.98486 22.123C 1.62842 22.123 1.34033 22.0205 1.12061 21.8154C 0.905762 21.6104 0.79834 21.3467 0.79834 21.0244ZM 7.33154 21.127L 7.33154 23.0752L 8.68652 23.0752L 8.68652 24.6279L 7.33154 24.6279L 7.33154 28.583C 7.33154 28.876 7.3877 29.0859 7.5 29.2129C 7.6123 29.3398 7.82715 29.4033 8.14453 29.4033C 8.37891 29.4033 8.58643 29.3862 8.76709 29.3521L 8.76709 30.9561C 8.35205 31.083 7.9248 31.1465 7.48535 31.1465C 6.00098 31.1465 5.24414 30.397 5.21484 28.8979L 5.21484 24.6279L 4.05762 24.6279L 4.05762 23.0752L 5.21484 23.0752L 5.21484 21.127L 7.33154 21.127ZM 14.1577 28.8101C 14.1577 28.5513 14.0283 28.3486 13.7695 28.2021C 13.5156 28.0508 13.1055 27.9165 12.5391 27.7993C 10.6543 27.4038 9.71191 26.603 9.71191 25.397C 9.71191 24.6938 10.0024 24.1079 10.5835 23.6392C 11.1694 23.1655 11.9336 22.9287 12.876 22.9287C 13.8818 22.9287 14.6851 23.1655 15.2856 23.6392C 15.8911 24.1128 16.1938 24.728 16.1938 25.4849L 14.0771 25.4849C 14.0771 25.1821 13.9795 24.9331 13.7842 24.7378C 13.5889 24.5376 13.2837 24.4375 12.8687 24.4375C 12.5122 24.4375 12.2363 24.5181 12.041 24.6792C 11.8457 24.8403 11.748 25.0454 11.748 25.2944C 11.748 25.5288 11.8579 25.7192 12.0776 25.8657C 12.3022 26.0073 12.6782 26.1318 13.2056 26.2393C 13.7329 26.3418 14.1772 26.459 14.5386 26.5908C 15.6567 27.001 16.2158 27.7114 16.2158 28.7222C 16.2158 29.4448 15.9058 30.0308 15.2856 30.48C 14.6655 30.9243 13.8647 31.1465 12.8833 31.1465C 12.2192 31.1465 11.6284 31.0293 11.1108 30.7949C 10.5981 30.5557 10.1953 30.231 9.90234 29.8208C 9.60938 29.4058 9.46289 28.959 9.46289 28.4805L 11.4697 28.4805C 11.4893 28.8564 11.6284 29.1445 11.8872 29.3447C 12.146 29.5449 12.4927 29.645 12.9272 29.645C 13.3325 29.645 13.6377 29.5693 13.8428 29.418C 14.0527 29.2617 14.1577 29.0591 14.1577 28.8101ZM 21.2329 31.1465C 20.0708 31.1465 19.1235 30.79 18.3911 30.0771C 17.6636 29.3643 17.2998 28.4146 17.2998 27.228L 17.2998 27.0229C 17.2998 26.2271 17.4536 25.5166 17.7612 24.8916C 18.0688 24.2617 18.5034 23.7783 19.0649 23.4414C 19.6313 23.0996 20.2759 22.9287 20.9985 22.9287C 22.0825 22.9287 22.9346 23.2705 23.5547 23.9541C 24.1797 24.6377 24.4922 25.6069 24.4922 26.8618L 24.4922 27.7261L 19.4458 27.7261C 19.5142 28.2437 19.7192 28.6587 20.061 28.9712C 20.4077 29.2837 20.8447 29.4399 21.3721 29.4399C 22.1875 29.4399 22.8247 29.1445 23.2837 28.5537L 24.3237 29.7183C 24.0063 30.1675 23.5767 30.519 23.0347 30.7729C 22.4927 31.022 21.8921 31.1465 21.2329 31.1465ZM 20.9912 24.6426C 20.5713 24.6426 20.2295 24.7842 19.9658 25.0674C 19.707 25.3506 19.541 25.7559 19.4678 26.2832L 22.4121 26.2832L 22.4121 26.1147C 22.4023 25.646 22.2754 25.2847 22.0312 25.0308C 21.7871 24.772 21.4404 24.6426 20.9912 24.6426ZM 27.9346 31L 25.8105 31L 25.8105 19.75L 27.9346 19.75L 27.9346 31ZM 30.2637 31L 30.2637 24.6279L 29.0845 24.6279L 29.0845 23.0752L 30.2637 23.0752L 30.2637 22.4014C 30.2637 21.5127 30.5176 20.8242 31.0254 20.3359C 31.5381 19.8428 32.2534 19.5962 33.1714 19.5962C 33.4644 19.5962 33.8232 19.645 34.248 19.7427L 34.2261 21.3833C 34.0503 21.3394 33.8354 21.3174 33.5815 21.3174C 32.7856 21.3174 32.3877 21.6909 32.3877 22.438L 32.3877 23.0752L 33.9624 23.0752L 33.9624 24.6279L 32.3877 24.6279L 32.3877 31L 30.2637 31Z"/>
<path id="path10_fill" d="M 7.94678 10.1108C 7.94678 11.3315 7.66846 12.3105 7.11182 13.0479C 6.56006 13.7803 5.81299 14.1465 4.87061 14.1465C 4.06982 14.1465 3.42285 13.8682 2.92969 13.3115L 2.92969 17.0469L 0.812988 17.0469L 0.812988 6.0752L 2.77588 6.0752L 2.84912 6.85156C 3.36182 6.23633 4.03076 5.92871 4.85596 5.92871C 5.83252 5.92871 6.5918 6.29004 7.13379 7.0127C 7.67578 7.73535 7.94678 8.73145 7.94678 10.001L 7.94678 10.1108ZM 5.83008 9.95703C 5.83008 9.21973 5.69824 8.65088 5.43457 8.25049C 5.17578 7.8501 4.79736 7.6499 4.29932 7.6499C 3.63525 7.6499 3.17871 7.90381 2.92969 8.41162L 2.92969 11.6562C 3.18848 12.1787 3.6499 12.4399 4.31396 12.4399C 5.32471 12.4399 5.83008 11.6123 5.83008 9.95703ZM 13.7183 8.06006C 13.4302 8.021 13.1763 8.00146 12.9565 8.00146C 12.1558 8.00146 11.6309 8.27246 11.3818 8.81445L 11.3818 14L 9.26514 14L 9.26514 6.0752L 11.2646 6.0752L 11.3232 7.02002C 11.748 6.29248 12.3364 5.92871 13.0884 5.92871C 13.3228 5.92871 13.5425 5.96045 13.7476 6.02393L 13.7183 8.06006ZM 14.1504 9.96436C 14.1504 9.17822 14.3018 8.47754 14.6045 7.8623C 14.9072 7.24707 15.3418 6.771 15.9082 6.43408C 16.4795 6.09717 17.1411 5.92871 17.8931 5.92871C 18.9624 5.92871 19.834 6.25586 20.5078 6.91016C 21.1865 7.56445 21.5649 8.45313 21.6431 9.57617L 21.6577 10.1182C 21.6577 11.334 21.3184 12.3105 20.6396 13.0479C 19.9609 13.7803 19.0503 14.1465 17.9077 14.1465C 16.7651 14.1465 15.8521 13.7803 15.1685 13.0479C 14.4897 12.3154 14.1504 11.3193 14.1504 10.0596L 14.1504 9.96436ZM 16.2671 10.1182C 16.2671 10.8701 16.4087 11.4463 16.6919 11.8467C 16.9751 12.2422 17.3804 12.4399 17.9077 12.4399C 18.4204 12.4399 18.8208 12.2446 19.1089 11.854C 19.397 11.4585 19.541 10.8286 19.541 9.96436C 19.541 9.22705 19.397 8.65576 19.1089 8.25049C 18.8208 7.84521 18.4155 7.64258 17.8931 7.64258C 17.3755 7.64258 16.9751 7.84521 16.6919 8.25049C 16.4087 8.65088 16.2671 9.27344 16.2671 10.1182ZM 22.6538 9.979C 22.6538 8.76318 22.9419 7.78418 23.5181 7.04199C 24.0991 6.2998 24.8804 5.92871 25.8618 5.92871C 26.731 5.92871 27.4072 6.22656 27.8906 6.82227L 27.9785 6.0752L 29.8975 6.0752L 29.8975 13.7363C 29.8975 14.4297 29.7388 15.0327 29.4214 15.5454C 29.1089 16.0581 28.667 16.4487 28.0957 16.7173C 27.5244 16.9858 26.8555 17.1201 26.0889 17.1201C 25.5078 17.1201 24.9414 17.0029 24.3896 16.7686C 23.8379 16.5391 23.4204 16.2412 23.1372 15.875L 24.0747 14.5859C 24.6021 15.1768 25.2417 15.4722 25.9937 15.4722C 26.5552 15.4722 26.9922 15.3208 27.3047 15.0181C 27.6172 14.7202 27.7734 14.2954 27.7734 13.7437L 27.7734 13.3188C 27.2852 13.8706 26.6431 14.1465 25.8472 14.1465C 24.895 14.1465 24.1235 13.7754 23.5327 13.0332C 22.9468 12.2861 22.6538 11.2974 22.6538 10.0669L 22.6538 9.979ZM 24.7705 10.1328C 24.7705 10.8506 24.9146 11.4146 25.2026 11.8247C 25.4907 12.23 25.8862 12.4326 26.3892 12.4326C 27.0337 12.4326 27.4951 12.1909 27.7734 11.7075L 27.7734 8.375C 27.4902 7.8916 27.0337 7.6499 26.4038 7.6499C 25.896 7.6499 25.4956 7.85742 25.2026 8.27246C 24.9146 8.6875 24.7705 9.30762 24.7705 10.1328ZM 35.9839 8.06006C 35.6958 8.021 35.4419 8.00146 35.2222 8.00146C 34.4214 8.00146 33.8965 8.27246 33.6475 8.81445L 33.6475 14L 31.5308 14L 31.5308 6.0752L 33.5303 6.0752L 33.5889 7.02002C 34.0137 6.29248 34.6021 5.92871 35.354 5.92871C 35.5884 5.92871 35.8081 5.96045 36.0132 6.02393L 35.9839 8.06006ZM 41.3818 14C 41.2842 13.8096 41.2134 13.5728 41.1694 13.2896C 40.6567 13.8608 39.9902 14.1465 39.1699 14.1465C 38.3936 14.1465 37.749 13.9219 37.2363 13.4727C 36.7285 13.0234 36.4746 12.457 36.4746 11.7734C 36.4746 10.9336 36.7847 10.2891 37.4048 9.83984C 38.0298 9.39063 38.9307 9.16357 40.1074 9.15869L 41.0815 9.15869L 41.0815 8.70459C 41.0815 8.33838 40.9863 8.04541 40.7959 7.82568C 40.6104 7.60596 40.3149 7.49609 39.9097 7.49609C 39.5532 7.49609 39.2725 7.58154 39.0674 7.75244C 38.8672 7.92334 38.7671 8.15771 38.7671 8.45557L 36.6504 8.45557C 36.6504 7.99658 36.792 7.57178 37.0752 7.18115C 37.3584 6.79053 37.7588 6.48535 38.2764 6.26562C 38.7939 6.04102 39.375 5.92871 40.0195 5.92871C 40.9961 5.92871 41.77 6.17529 42.3413 6.66846C 42.9175 7.15674 43.2056 7.84521 43.2056 8.73389L 43.2056 12.1689C 43.2104 12.9209 43.3154 13.4897 43.5205 13.8755L 43.5205 14L 41.3818 14ZM 39.6313 12.5278C 39.9438 12.5278 40.2319 12.4595 40.4956 12.3228C 40.7593 12.1812 40.9546 11.9932 41.0815 11.7588L 41.0815 10.3965L 40.2905 10.3965C 39.231 10.3965 38.667 10.7627 38.5986 11.4951L 38.5913 11.6196C 38.5913 11.8833 38.6841 12.1006 38.8696 12.2715C 39.0552 12.4424 39.3091 12.5278 39.6313 12.5278ZM 46.8164 6.0752L 46.8823 6.96143C 47.4438 6.27295 48.2031 5.92871 49.1602 5.92871C 50.1807 5.92871 50.8813 6.33154 51.2622 7.13721C 51.8188 6.33154 52.6123 5.92871 53.6426 5.92871C 54.502 5.92871 55.1416 6.18018 55.5615 6.68311C 55.9814 7.18115 56.1914 7.93311 56.1914 8.93896L 56.1914 14L 54.0674 14L 54.0674 8.94629C 54.0674 8.49707 53.9795 8.16992 53.8037 7.96484C 53.6279 7.75488 53.3179 7.6499 52.8735 7.6499C 52.2388 7.6499 51.7993 7.95264 51.5552 8.55811L 51.5625 14L 49.4458 14L 49.4458 8.95361C 49.4458 8.49463 49.3555 8.1626 49.1748 7.95752C 48.9941 7.75244 48.6865 7.6499 48.252 7.6499C 47.6514 7.6499 47.2168 7.89893 46.9482 8.39697L 46.9482 14L 44.8315 14L 44.8315 6.0752L 46.8164 6.0752Z"/>
<path id="path11_fill" d="M 91.7457 45.8728C 91.7457 71.2077 71.2077 91.7457 45.8728 91.7457C 20.538 91.7457 0 71.2077 0 45.8728C 0 20.538 20.538 0 45.8728 0C 71.2077 0 91.7457 20.538 91.7457 45.8728Z"/>
<path id="path12_stroke_2x" d="M 88.7457 45.8728C 88.7457 69.5509 69.5509 88.7457 45.8728 88.7457L 45.8728 94.7457C 72.8646 94.7457 94.7457 72.8646 94.7457 45.8728L 88.7457 45.8728ZM 45.8728 88.7457C 22.1948 88.7457 3 69.5509 3 45.8728L -3 45.8728C -3 72.8646 18.8811 94.7457 45.8728 94.7457L 45.8728 88.7457ZM 3 45.8728C 3 22.1948 22.1948 3 45.8728 3L 45.8728 -3C 18.8811 -3 -3 18.8811 -3 45.8728L 3 45.8728ZM 45.8728 3C 69.5509 3 88.7457 22.1948 88.7457 45.8728L 94.7457 45.8728C 94.7457 18.8811 72.8646 -3 45.8728 -3L 45.8728 3Z"/>
<path id="path13_fill" d="M 3.34717 4.12695L 3.34717 6.0752L 4.70215 6.0752L 4.70215 7.62793L 3.34717 7.62793L 3.34717 11.583C 3.34717 11.876 3.40332 12.0859 3.51562 12.2129C 3.62793 12.3398 3.84277 12.4033 4.16016 12.4033C 4.39453 12.4033 4.60205 12.3862 4.78271 12.3521L 4.78271 13.9561C 4.36768 14.083 3.94043 14.1465 3.50098 14.1465C 2.0166 14.1465 1.25977 13.397 1.23047 11.8979L 1.23047 7.62793L 0.0732422 7.62793L 0.0732422 6.0752L 1.23047 6.0752L 1.23047 4.12695L 3.34717 4.12695ZM 5.33203 9.96436C 5.33203 9.17822 5.4834 8.47754 5.78613 7.8623C 6.08887 7.24707 6.52344 6.771 7.08984 6.43408C 7.66113 6.09717 8.32275 5.92871 9.07471 5.92871C 10.144 5.92871 11.0156 6.25586 11.6895 6.91016C 12.3682 7.56445 12.7466 8.45313 12.8247 9.57617L 12.8394 10.1182C 12.8394 11.334 12.5 12.3105 11.8213 13.0479C 11.1426 13.7803 10.2319 14.1465 9.08936 14.1465C 7.94678 14.1465 7.03369 13.7803 6.3501 13.0479C 5.67139 12.3154 5.33203 11.3193 5.33203 10.0596L 5.33203 9.96436ZM 7.44873 10.1182C 7.44873 10.8701 7.59033 11.4463 7.87354 11.8467C 8.15674 12.2422 8.56201 12.4399 9.08936 12.4399C 9.60205 12.4399 10.0024 12.2446 10.2905 11.854C 10.5786 11.4585 10.7227 10.8286 10.7227 9.96436C 10.7227 9.22705 10.5786 8.65576 10.2905 8.25049C 10.0024 7.84521 9.59717 7.64258 9.07471 7.64258C 8.55713 7.64258 8.15674 7.84521 7.87354 8.25049C 7.59033 8.65088 7.44873 9.27344 7.44873 10.1182ZM 25.0122 10.1108C 25.0122 11.3315 24.7339 12.3105 24.1772 13.0479C 23.6255 13.7803 22.8784 14.1465 21.936 14.1465C 21.1353 14.1465 20.4883 13.8682 19.9951 13.3115L 19.9951 17.0469L 17.8784 17.0469L 17.8784 6.0752L 19.8413 6.0752L 19.9146 6.85156C 20.4272 6.23633 21.0962 5.92871 21.9214 5.92871C 22.8979 5.92871 23.6572 6.29004 24.1992 7.0127C 24.7412 7.73535 25.0122 8.73145 25.0122 10.001L 25.0122 10.1108ZM 22.8955 9.95703C 22.8955 9.21973 22.7637 8.65088 22.5 8.25049C 22.2412 7.8501 21.8628 7.6499 21.3647 7.6499C 20.7007 7.6499 20.2441 7.90381 19.9951 8.41162L 19.9951 11.6562C 20.2539 12.1787 20.7153 12.4399 21.3794 12.4399C 22.3901 12.4399 22.8955 11.6123 22.8955 9.95703ZM 30.7837 8.06006C 30.4956 8.021 30.2417 8.00146 30.022 8.00146C 29.2212 8.00146 28.6963 8.27246 28.4473 8.81445L 28.4473 14L 26.3306 14L 26.3306 6.0752L 28.3301 6.0752L 28.3887 7.02002C 28.8135 6.29248 29.4019 5.92871 30.1538 5.92871C 30.3882 5.92871 30.6079 5.96045 30.813 6.02393L 30.7837 8.06006ZM 31.2158 9.96436C 31.2158 9.17822 31.3672 8.47754 31.6699 7.8623C 31.9727 7.24707 32.4072 6.771 32.9736 6.43408C 33.5449 6.09717 34.2065 5.92871 34.9585 5.92871C 36.0278 5.92871 36.8994 6.25586 37.5732 6.91016C 38.252 7.56445 38.6304 8.45313 38.7085 9.57617L 38.7231 10.1182C 38.7231 11.334 38.3838 12.3105 37.7051 13.0479C 37.0264 13.7803 36.1157 14.1465 34.9731 14.1465C 33.8306 14.1465 32.9175 13.7803 32.2339 13.0479C 31.5552 12.3154 31.2158 11.3193 31.2158 10.0596L 31.2158 9.96436ZM 33.3325 10.1182C 33.3325 10.8701 33.4741 11.4463 33.7573 11.8467C 34.0405 12.2422 34.4458 12.4399 34.9731 12.4399C 35.4858 12.4399 35.8862 12.2446 36.1743 11.854C 36.4624 11.4585 36.6064 10.8286 36.6064 9.96436C 36.6064 9.22705 36.4624 8.65576 36.1743 8.25049C 35.8862 7.84521 35.481 7.64258 34.9585 7.64258C 34.4409 7.64258 34.0405 7.84521 33.7573 8.25049C 33.4741 8.65088 33.3325 9.27344 33.3325 10.1182ZM 39.6973 9.979C 39.6973 8.74365 39.9731 7.75977 40.5249 7.02734C 41.0815 6.29492 41.8408 5.92871 42.8027 5.92871C 43.5742 5.92871 44.2114 6.2168 44.7144 6.79297L 44.7144 2.75L 46.8384 2.75L 46.8384 14L 44.9268 14L 44.8242 13.1577C 44.2969 13.8169 43.6182 14.1465 42.7881 14.1465C 41.8555 14.1465 41.106 13.7803 40.5396 13.0479C 39.978 12.3105 39.6973 11.2876 39.6973 9.979ZM 41.814 10.1328C 41.814 10.875 41.9434 11.4438 42.2021 11.8394C 42.4609 12.2349 42.8369 12.4326 43.3301 12.4326C 43.9844 12.4326 44.4458 12.1567 44.7144 11.605L 44.7144 8.47754C 44.4507 7.92578 43.9941 7.6499 43.3447 7.6499C 42.3242 7.6499 41.814 8.47754 41.814 10.1328ZM 53.2251 13.1943C 52.7026 13.8291 51.98 14.1465 51.0571 14.1465C 50.2075 14.1465 49.5581 13.9023 49.1089 13.4141C 48.6646 12.9258 48.4375 12.2104 48.4277 11.2681L 48.4277 6.0752L 50.5444 6.0752L 50.5444 11.1948C 50.5444 12.02 50.9204 12.4326 51.6724 12.4326C 52.3901 12.4326 52.8833 12.1836 53.1519 11.6855L 53.1519 6.0752L 55.2759 6.0752L 55.2759 14L 53.2837 14L 53.2251 13.1943ZM 60.1685 12.4399C 60.5591 12.4399 60.8765 12.3325 61.1206 12.1177C 61.3647 11.9028 61.4917 11.6172 61.5015 11.2607L 63.4863 11.2607C 63.4814 11.7979 63.335 12.291 63.0469 12.7402C 62.7588 13.1846 62.3633 13.5312 61.8604 13.7803C 61.3623 14.0244 60.8105 14.1465 60.2051 14.1465C 59.0723 14.1465 58.1787 13.7876 57.5244 13.0698C 56.8701 12.3472 56.543 11.3511 56.543 10.0815L 56.543 9.94238C 56.543 8.72168 56.8677 7.74756 57.5171 7.02002C 58.1665 6.29248 59.0576 5.92871 60.1904 5.92871C 61.1816 5.92871 61.9751 6.21191 62.5708 6.77832C 63.1714 7.33984 63.4766 8.08936 63.4863 9.02686L 61.5015 9.02686C 61.4917 8.6167 61.3647 8.28467 61.1206 8.03076C 60.8765 7.77197 60.5542 7.64258 60.1538 7.64258C 59.6606 7.64258 59.2871 7.82324 59.0332 8.18457C 58.7842 8.54102 58.6597 9.12207 58.6597 9.92773L 58.6597 10.1475C 58.6597 10.9629 58.7842 11.5488 59.0332 11.9053C 59.2822 12.2617 59.6606 12.4399 60.1685 12.4399ZM 68.3423 14.1465C 67.1802 14.1465 66.2329 13.79 65.5005 13.0771C 64.7729 12.3643 64.4092 11.4146 64.4092 10.228L 64.4092 10.0229C 64.4092 9.22705 64.563 8.5166 64.8706 7.8916C 65.1782 7.26172 65.6128 6.77832 66.1743 6.44141C 66.7407 6.09961 67.3853 5.92871 68.1079 5.92871C 69.1919 5.92871 70.0439 6.27051 70.6641 6.9541C 71.2891 7.6377 71.6016 8.60693 71.6016 9.86182L 71.6016 10.7261L 66.5552 10.7261C 66.6235 11.2437 66.8286 11.6587 67.1704 11.9712C 67.5171 12.2837 67.9541 12.4399 68.4814 12.4399C 69.2969 12.4399 69.9341 12.1445 70.3931 11.5537L 71.4331 12.7183C 71.1157 13.1675 70.686 13.519 70.144 13.7729C 69.6021 14.022 69.0015 14.1465 68.3423 14.1465ZM 68.1006 7.64258C 67.6807 7.64258 67.3389 7.78418 67.0752 8.06738C 66.8164 8.35059 66.6504 8.75586 66.5771 9.2832L 69.5215 9.2832L 69.5215 9.11475C 69.5117 8.646 69.3848 8.28467 69.1406 8.03076C 68.8965 7.77197 68.5498 7.64258 68.1006 7.64258Z"/>
<path id="path14_fill" d="M 5.26611 8.06006C 4.97803 8.021 4.72412 8.00146 4.50439 8.00146C 3.70361 8.00146 3.17871 8.27246 2.92969 8.81445L 2.92969 14L 0.812988 14L 0.812988 6.0752L 2.8125 6.0752L 2.87109 7.02002C 3.2959 6.29248 3.88428 5.92871 4.63623 5.92871C 4.87061 5.92871 5.09033 5.96045 5.29541 6.02393L 5.26611 8.06006ZM 9.79248 14.1465C 8.63037 14.1465 7.68311 13.79 6.95068 13.0771C 6.22314 12.3643 5.85938 11.4146 5.85938 10.228L 5.85938 10.0229C 5.85938 9.22705 6.01318 8.5166 6.3208 7.8916C 6.62842 7.26172 7.06299 6.77832 7.62451 6.44141C 8.19092 6.09961 8.83545 5.92871 9.55811 5.92871C 10.6421 5.92871 11.4941 6.27051 12.1143 6.9541C 12.7393 7.6377 13.0518 8.60693 13.0518 9.86182L 13.0518 10.7261L 8.00537 10.7261C 8.07373 11.2437 8.27881 11.6587 8.62061 11.9712C 8.96729 12.2837 9.4043 12.4399 9.93164 12.4399C 10.7471 12.4399 11.3843 12.1445 11.8433 11.5537L 12.8833 12.7183C 12.5659 13.1675 12.1362 13.519 11.5942 13.7729C 11.0522 14.022 10.4517 14.1465 9.79248 14.1465ZM 9.55078 7.64258C 9.13086 7.64258 8.78906 7.78418 8.52539 8.06738C 8.2666 8.35059 8.10059 8.75586 8.02734 9.2832L 10.9717 9.2832L 10.9717 9.11475C 10.9619 8.646 10.835 8.28467 10.5908 8.03076C 10.3467 7.77197 10 7.64258 9.55078 7.64258ZM 18.5522 11.8101C 18.5522 11.5513 18.4229 11.3486 18.1641 11.2021C 17.9102 11.0508 17.5 10.9165 16.9336 10.7993C 15.0488 10.4038 14.1064 9.60303 14.1064 8.39697C 14.1064 7.69385 14.397 7.10791 14.978 6.63916C 15.564 6.16553 16.3281 5.92871 17.2705 5.92871C 18.2764 5.92871 19.0796 6.16553 19.6802 6.63916C 20.2856 7.11279 20.5884 7.72803 20.5884 8.48486L 18.4717 8.48486C 18.4717 8.18213 18.374 7.93311 18.1787 7.73779C 17.9834 7.5376 17.6782 7.4375 17.2632 7.4375C 16.9067 7.4375 16.6309 7.51807 16.4355 7.6792C 16.2402 7.84033 16.1426 8.04541 16.1426 8.29443C 16.1426 8.52881 16.2524 8.71924 16.4722 8.86572C 16.6968 9.00732 17.0728 9.13184 17.6001 9.23926C 18.1274 9.3418 18.5718 9.45898 18.9331 9.59082C 20.0513 10.001 20.6104 10.7114 20.6104 11.7222C 20.6104 12.4448 20.3003 13.0308 19.6802 13.48C 19.0601 13.9243 18.2593 14.1465 17.2778 14.1465C 16.6138 14.1465 16.0229 14.0293 15.5054 13.7949C 14.9927 13.5557 14.5898 13.231 14.2969 12.8208C 14.0039 12.4058 13.8574 11.959 13.8574 11.4805L 15.8643 11.4805C 15.8838 11.8564 16.0229 12.1445 16.2817 12.3447C 16.5405 12.5449 16.8872 12.645 17.3218 12.645C 17.7271 12.645 18.0322 12.5693 18.2373 12.418C 18.4473 12.2617 18.5522 12.0591 18.5522 11.8101ZM 26.7261 13.1943C 26.2036 13.8291 25.481 14.1465 24.5581 14.1465C 23.7085 14.1465 23.0591 13.9023 22.6099 13.4141C 22.1655 12.9258 21.9385 12.2104 21.9287 11.2681L 21.9287 6.0752L 24.0454 6.0752L 24.0454 11.1948C 24.0454 12.02 24.4214 12.4326 25.1733 12.4326C 25.8911 12.4326 26.3843 12.1836 26.6528 11.6855L 26.6528 6.0752L 28.7769 6.0752L 28.7769 14L 26.7847 14L 26.7261 13.1943ZM 32.6074 14L 30.4834 14L 30.4834 2.75L 32.6074 2.75L 32.6074 14ZM 36.8921 4.12695L 36.8921 6.0752L 38.2471 6.0752L 38.2471 7.62793L 36.8921 7.62793L 36.8921 11.583C 36.8921 11.876 36.9482 12.0859 37.0605 12.2129C 37.1729 12.3398 37.3877 12.4033 37.7051 12.4033C 37.9395 12.4033 38.147 12.3862 38.3276 12.3521L 38.3276 13.9561C 37.9126 14.083 37.4854 14.1465 37.0459 14.1465C 35.5615 14.1465 34.8047 13.397 34.7754 11.8979L 34.7754 7.62793L 33.6182 7.62793L 33.6182 6.0752L 34.7754 6.0752L 34.7754 4.12695L 36.8921 4.12695Z"/>
</defs>
</svg>
