<svg width="365" height="167" viewBox="0 0 365 167" version="1.1" xmlns="http://www.w3.org/2000/svg" xmlns:xlink="http://www.w3.org/1999/xlink">
<title>Group 4</title>
<desc>Created using Figma</desc>
<g id="Canvas" transform="translate(201 -1079)">
<g id="Group 4">
<g id="Group 3">
<g id="Rectangle">
<use xlink:href="#path0_fill" transform="translate(-200.068 1079.79)" fill="#FFFFFF"/>
<mask id="mask0_outline_ins">
<use xlink:href="#path0_fill" fill="white" transform="translate(-200.068 1079.79)"/>
</mask>
<g mask="url(#mask0_outline_ins)">
<use xlink:href="#path1_stroke_2x" transform="translate(-200.068 1079.79)"/>
</g>
</g>
<g id="if(this is true){ do this; and this; } else{ do that; }">
<use xlink:href="#path2_fill" transform="translate(-177.294 1101.7)"/>
</g>
<g id="result">
<use xlink:href="#path3_fill" transform="translate(117.154 1153.18)" fill="#1CA6F0"/>
</g>
<g id="Arrow">
<use xlink:href="#path4_stroke" transform="translate(38.3144 1162.8)"/>
</g>
</g>
</g>
</g>
<defs>
<path id="path0_fill" d="M 0 31C 0 13.8792 13.8792 0 31 0L 191.496 0C 208.617 0 222.496 13.8792 222.496 31L 222.496 135.019C 222.496 152.14 208.617 166.019 191.496 166.019L 31 166.019C 13.8792 166.019 0 152.14 0 135.019L 0 31Z"/>
<path id="path1_stroke_2x" d="M 31 3L 191.496 3L 191.496 -3L 31 -3L 31 3ZM 219.496 31L 219.496 135.019L 225.496 135.019L 225.496 31L 219.496 31ZM 191.496 163.019L 31 163.019L 31 169.019L 191.496 169.019L 191.496 163.019ZM 3 135.019L 3 31L -3 31L -3 135.019L 3 135.019ZM 31 163.019C 15.536 163.019 3 150.483 3 135.019L -3 135.019C -3 153.797 12.2223 169.019 31 169.019L 31 163.019ZM 219.496 135.019C 219.496 150.483 206.96 163.019 191.496 163.019L 191.496 169.019C 210.274 169.019 225.496 153.797 225.496 135.019L 219.496 135.019ZM 191.496 3C 206.96 3 219.496 15.536 219.496 31L 225.496 31C 225.496 12.2223 210.274 -3 191.496 -3L 191.496 3ZM 31 -3C 12.2223 -3 -3 12.2223 -3 31L 3 31C 3 15.536 15.536 3 31 3L 31 -3Z"/>
<path id="path2_fill" d="M 5.375 2.86719L 5.375 4.5625L 3.46875 4.5625L 3.46875 2.86719L 5.375 2.86719ZM 5.59375 5.90625L 5.59375 11.3984L 7.51562 11.3984C 7.90104 11.3984 8.17448 11.474 8.33594 11.625C 8.5026 11.7708 8.58594 11.9635 8.58594 12.2031C 8.58594 12.4375 8.5026 12.6302 8.33594 12.7812C 8.17448 12.9271 7.90104 13 7.51562 13L 2.07031 13C 1.6849 13 1.40885 12.9271 1.24219 12.7812C 1.08073 12.6302 1 12.4349 1 12.1953C 1 11.9609 1.08073 11.7708 1.24219 11.625C 1.40885 11.474 1.6849 11.3984 2.07031 11.3984L 3.99219 11.3984L 3.99219 7.50781L 2.70312 7.50781C 2.32292 7.50781 2.04948 7.4349 1.88281 7.28906C 1.71615 7.13802 1.63281 6.94271 1.63281 6.70312C 1.63281 6.46875 1.71354 6.27865 1.875 6.13281C 2.04167 5.98177 2.31771 5.90625 2.70312 5.90625L 5.59375 5.90625ZM 14.3984 7.50781L 14.3984 11.3984L 16.6797 11.3984C 17.0651 11.3984 17.3385 11.474 17.5 11.625C 17.6667 11.7708 17.75 11.9635 17.75 12.2031C 17.75 12.4375 17.6667 12.6302 17.5 12.7812C 17.3385 12.9271 17.0651 13 16.6797 13L 11.8438 13C 11.4583 13 11.1823 12.9271 11.0156 12.7812C 10.8542 12.6302 10.7734 12.4349 10.7734 12.1953C 10.7734 11.9609 10.8542 11.7708 11.0156 11.625C 11.1823 11.474 11.4583 11.3984 11.8438 11.3984L 12.7969 11.3984L 12.7969 7.50781L 12.0312 7.50781C 11.6458 7.50781 11.3698 7.4349 11.2031 7.28906C 11.0417 7.13802 10.9609 6.94271 10.9609 6.70312C 10.9609 6.46875 11.0417 6.27865 11.2031 6.13281C 11.3698 5.98177 11.6458 5.90625 12.0312 5.90625L 12.7969 5.90625L 12.7969 5.29688C 12.7969 4.59896 13.0573 4.02083 13.5781 3.5625C 14.1042 3.09896 14.8646 2.86719 15.8594 2.86719C 16.3021 2.86719 16.8125 2.90885 17.3906 2.99219C 17.974 3.07031 18.3464 3.18229 18.5078 3.32812C 18.6745 3.47396 18.7578 3.66146 18.7578 3.89062C 18.7578 4.13542 18.6849 4.33594 18.5391 4.49219C 18.3932 4.64323 18.2135 4.71875 18 4.71875C 17.901 4.71875 17.7526 4.70052 17.5547 4.66406C 16.8932 4.53385 16.3073 4.46875 15.7969 4.46875C 15.2656 4.46875 14.8984 4.54948 14.6953 4.71094C 14.4974 4.86719 14.3984 5.0625 14.3984 5.29688L 14.3984 5.90625L 16.8672 5.90625C 17.2526 5.90625 17.526 5.98177 17.6875 6.13281C 17.8542 6.27865 17.9375 6.47135 17.9375 6.71094C 17.9375 6.94531 17.8542 7.13802 17.6875 7.28906C 17.526 7.4349 17.2526 7.50781 16.8672 7.50781L 14.3984 7.50781ZM 23.4453 9.10938C 23.4453 8.19792 23.5964 7.27604 23.8984 6.34375C 24.1224 5.65625 24.4688 4.89062 24.9375 4.04688C 25.276 3.44271 25.526 3.07292 25.6875 2.9375C 25.849 2.79688 26.0286 2.72656 26.2266 2.72656C 26.4557 2.72656 26.6484 2.80469 26.8047 2.96094C 26.9609 3.11719 27.0391 3.30469 27.0391 3.52344C 27.0391 3.67448 26.9766 3.85417 26.8516 4.0625C 26.2891 4.98438 25.8776 5.84896 25.6172 6.65625C 25.362 7.46354 25.2344 8.28125 25.2344 9.10938C 25.2344 9.94271 25.362 10.763 25.6172 11.5703C 25.8776 12.3776 26.2891 13.2422 26.8516 14.1641C 26.9766 14.3672 27.0391 14.5469 27.0391 14.7031C 27.0391 14.9219 26.9609 15.1094 26.8047 15.2656C 26.6484 15.4219 26.4557 15.5 26.2266 15.5C 26.0339 15.5 25.8646 15.4375 25.7188 15.3125C 25.5104 15.1302 25.2344 14.7214 24.8906 14.0859C 24.3958 13.1641 24.0573 12.4036 23.875 11.8047C 23.5885 10.888 23.4453 9.98958 23.4453 9.10938ZM 34.2188 7.50781L 33.5312 10.7188C 33.5 10.8802 33.4844 11.013 33.4844 11.1172C 33.4844 11.2578 33.5469 11.3698 33.6719 11.4531C 33.8802 11.5885 34.224 11.6562 34.7031 11.6562C 35.526 11.6562 36.3229 11.4818 37.0938 11.1328C 37.3906 10.9974 37.6146 10.9297 37.7656 10.9297C 37.9427 10.9297 38.0885 10.9896 38.2031 11.1094C 38.3177 11.224 38.375 11.375 38.375 11.5625C 38.375 11.8073 38.2786 12.0208 38.0859 12.2031C 37.8099 12.4635 37.2604 12.7057 36.4375 12.9297C 35.6198 13.1484 34.9115 13.2578 34.3125 13.2578C 33.8177 13.2578 33.3464 13.1745 32.8984 13.0078C 32.5703 12.888 32.3073 12.6979 32.1094 12.4375C 31.9115 12.1771 31.8125 11.8776 31.8125 11.5391C 31.8125 11.3672 31.8307 11.1979 31.8672 11.0312L 32.6172 7.50781L 32.0312 7.50781C 31.6771 7.50781 31.4349 7.45312 31.3047 7.34375C 31.1797 7.22917 31.1172 7.07292 31.1172 6.875C 31.1172 6.55729 31.2682 6.29167 31.5703 6.07812C 31.7318 5.96354 32 5.90625 32.375 5.90625L 32.9531 5.90625L 33.2656 4.46094C 33.3438 4.07552 33.474 3.80208 33.6562 3.64062C 33.8438 3.47396 34.0573 3.39062 34.2969 3.39062C 34.4792 3.39062 34.6302 3.45052 34.75 3.57031C 34.875 3.6849 34.9375 3.82031 34.9375 3.97656C 34.9375 4.08594 34.9141 4.2474 34.8672 4.46094L 34.5547 5.90625L 37.5156 5.90625C 37.875 5.90625 38.1172 5.96354 38.2422 6.07812C 38.3724 6.1875 38.4375 6.34375 38.4375 6.54688C 38.4375 6.85417 38.2891 7.11458 37.9922 7.32812C 37.8255 7.44792 37.5547 7.50781 37.1797 7.50781L 34.2188 7.50781ZM 43.7422 2.86719L 43.0156 6.28125C 43.7656 5.89062 44.4948 5.69531 45.2031 5.69531C 46.0052 5.69531 46.6146 5.88281 47.0312 6.25781C 47.4531 6.63281 47.6641 7.1276 47.6641 7.74219C 47.6641 7.94531 47.638 8.16146 47.5859 8.39062L 46.9531 11.3984C 47.375 11.3984 47.6406 11.4427 47.75 11.5312C 47.901 11.6562 47.9766 11.8229 47.9766 12.0312C 47.9766 12.3542 47.8203 12.6224 47.5078 12.8359C 47.3516 12.9453 47.0885 13 46.7188 13L 44.8984 13C 44.5391 13 44.2969 12.9453 44.1719 12.8359C 44.0469 12.7214 43.9844 12.5651 43.9844 12.3672C 43.9844 12.0339 44.1432 11.7604 44.4609 11.5469C 44.6224 11.4427 44.9167 11.3932 45.3438 11.3984L 45.9609 8.5C 45.9974 8.33854 46.0156 8.19271 46.0156 8.0625C 46.0156 7.84375 45.9245 7.66146 45.7422 7.51562C 45.5599 7.36979 45.263 7.29688 44.8516 7.29688C 44.4974 7.29688 44.1667 7.36719 43.8594 7.50781C 43.5573 7.64323 43.1276 7.9401 42.5703 8.39844L 41.9297 11.3984C 42.3516 11.3984 42.6172 11.4427 42.7266 11.5312C 42.8776 11.6562 42.9531 11.8229 42.9531 12.0312C 42.9531 12.3542 42.7995 12.6224 42.4922 12.8359C 42.3307 12.9453 42.0651 13 41.6953 13L 39.875 13C 39.5208 13 39.2786 12.9453 39.1484 12.8359C 39.0234 12.7214 38.9609 12.5651 38.9609 12.3672C 38.9609 12.0339 39.1224 11.7604 39.4453 11.5469C 39.6016 11.4427 39.8958 11.3932 40.3281 11.3984L 41.7969 4.46875L 41.5234 4.46875C 41.1693 4.46875 40.9271 4.41406 40.7969 4.30469C 40.6719 4.1901 40.6094 4.03385 40.6094 3.83594C 40.6094 3.51823 40.7604 3.2526 41.0625 3.03906C 41.2292 2.92448 41.4974 2.86719 41.8672 2.86719L 43.7422 2.86719ZM 55.5781 2.86719L 55.2188 4.5625L 53.3125 4.5625L 53.6719 2.86719L 55.5781 2.86719ZM 55.1562 5.90625L 53.9844 11.3984L 55.9141 11.3984C 56.2682 11.3984 56.5078 11.4531 56.6328 11.5625C 56.763 11.6719 56.8281 11.8281 56.8281 12.0312C 56.8281 12.3542 56.6719 12.6224 56.3594 12.8359C 56.2031 12.9453 55.9401 13 55.5703 13L 50.1172 13C 49.763 13 49.5208 12.9453 49.3906 12.8359C 49.2656 12.7214 49.2031 12.5651 49.2031 12.3672C 49.2031 12.0443 49.3542 11.7786 49.6562 11.5703C 49.8229 11.4557 50.0911 11.3984 50.4609 11.3984L 52.3828 11.3984L 53.2109 7.50781L 51.9219 7.50781C 51.5677 7.50781 51.3255 7.45312 51.1953 7.34375C 51.0703 7.22917 51.0078 7.07292 51.0078 6.875C 51.0078 6.5625 51.1562 6.29948 51.4531 6.08594C 51.6146 5.96615 51.8854 5.90625 52.2656 5.90625L 55.1562 5.90625ZM 65.2891 7.78125C 65.0651 7.61979 64.8177 7.5 64.5469 7.42188C 64.2812 7.33854 63.9896 7.29688 63.6719 7.29688C 63.1615 7.29688 62.7266 7.36719 62.3672 7.50781C 62.0078 7.64323 61.8281 7.78125 61.8281 7.92188C 61.8281 8.01562 61.888 8.10417 62.0078 8.1875C 62.1693 8.30208 62.5495 8.40104 63.1484 8.48438C 64.0755 8.61458 64.7526 8.75 65.1797 8.89062C 65.612 9.03125 65.9557 9.25781 66.2109 9.57031C 66.4661 9.88281 66.5938 10.2292 66.5938 10.6094C 66.5938 11.375 66.1823 12.0078 65.3594 12.5078C 64.5365 13.0078 63.5807 13.2578 62.4922 13.2578C 62.0286 13.2578 61.6068 13.2161 61.2266 13.1328C 60.8464 13.0547 60.5104 12.9375 60.2188 12.7812C 60.026 12.9219 59.8411 12.9922 59.6641 12.9922C 59.4609 12.9922 59.2969 12.9349 59.1719 12.8203C 59.0521 12.7005 58.9922 12.5599 58.9922 12.3984C 58.9922 12.2943 59.0156 12.1354 59.0625 11.9219L 59.1797 11.3828C 59.2578 10.9922 59.388 10.7161 59.5703 10.5547C 59.7578 10.3932 59.9714 10.3125 60.2109 10.3125C 60.4036 10.3125 60.5521 10.3672 60.6562 10.4766C 60.7604 10.5807 60.8229 10.763 60.8438 11.0234C 61.0417 11.2318 61.3021 11.3906 61.625 11.5C 61.9479 11.6042 62.3333 11.6562 62.7812 11.6562C 63.5677 11.6562 64.1875 11.5286 64.6406 11.2734C 64.8438 11.1589 64.9453 11.0286 64.9453 10.8828C 64.9453 10.6797 64.8203 10.5182 64.5703 10.3984C 64.3203 10.2839 63.7943 10.1823 62.9922 10.0938C 61.8411 9.96875 61.0859 9.75521 60.7266 9.45312C 60.3672 9.15104 60.1875 8.76302 60.1875 8.28906C 60.1875 7.8776 60.3203 7.48698 60.5859 7.11719C 60.8516 6.7474 61.25 6.4349 61.7812 6.17969C 62.4688 5.85677 63.2083 5.69531 64 5.69531C 64.3698 5.69531 64.7188 5.73177 65.0469 5.80469C 65.375 5.8724 65.6797 5.97917 65.9609 6.125C 66.1849 5.97917 66.3698 5.90625 66.5156 5.90625C 66.6823 5.90625 66.8255 5.96615 66.9453 6.08594C 67.0651 6.20052 67.125 6.33594 67.125 6.49219C 67.125 6.60156 67.1042 6.76302 67.0625 6.97656L 66.9766 7.36719C 66.8932 7.7526 66.7578 8.02865 66.5703 8.19531C 66.388 8.35677 66.1771 8.4375 65.9375 8.4375C 65.7448 8.4375 65.5885 8.3776 65.4688 8.25781C 65.349 8.13802 65.2891 7.97917 65.2891 7.78125ZM 84.4062 2.86719L 84.0469 4.5625L 82.1406 4.5625L 82.5 2.86719L 84.4062 2.86719ZM 83.9844 5.90625L 82.8125 11.3984L 84.7422 11.3984C 85.0964 11.3984 85.3359 11.4531 85.4609 11.5625C 85.5911 11.6719 85.6562 11.8281 85.6562 12.0312C 85.6562 12.3542 85.5 12.6224 85.1875 12.8359C 85.0312 12.9453 84.7682 13 84.3984 13L 78.9453 13C 78.5911 13 78.349 12.9453 78.2188 12.8359C 78.0938 12.7214 78.0312 12.5651 78.0312 12.3672C 78.0312 12.0443 78.1823 11.7786 78.4844 11.5703C 78.651 11.4557 78.9193 11.3984 79.2891 11.3984L 81.2109 11.3984L 82.0391 7.50781L 80.75 7.50781C 80.3958 7.50781 80.1536 7.45312 80.0234 7.34375C 79.8984 7.22917 79.8359 7.07292 79.8359 6.875C 79.8359 6.5625 79.9844 6.29948 80.2812 6.08594C 80.4427 5.96615 80.7135 5.90625 81.0938 5.90625L 83.9844 5.90625ZM 94.1172 7.78125C 93.8932 7.61979 93.6458 7.5 93.375 7.42188C 93.1094 7.33854 92.8177 7.29688 92.5 7.29688C 91.9896 7.29688 91.5547 7.36719 91.1953 7.50781C 90.8359 7.64323 90.6562 7.78125 90.6562 7.92188C 90.6562 8.01562 90.7161 8.10417 90.8359 8.1875C 90.9974 8.30208 91.3776 8.40104 91.9766 8.48438C 92.9036 8.61458 93.5807 8.75 94.0078 8.89062C 94.4401 9.03125 94.7839 9.25781 95.0391 9.57031C 95.2943 9.88281 95.4219 10.2292 95.4219 10.6094C 95.4219 11.375 95.0104 12.0078 94.1875 12.5078C 93.3646 13.0078 92.4089 13.2578 91.3203 13.2578C 90.8568 13.2578 90.4349 13.2161 90.0547 13.1328C 89.6745 13.0547 89.3385 12.9375 89.0469 12.7812C 88.8542 12.9219 88.6693 12.9922 88.4922 12.9922C 88.2891 12.9922 88.125 12.9349 88 12.8203C 87.8802 12.7005 87.8203 12.5599 87.8203 12.3984C 87.8203 12.2943 87.8438 12.1354 87.8906 11.9219L 88.0078 11.3828C 88.0859 10.9922 88.2161 10.7161 88.3984 10.5547C 88.5859 10.3932 88.7995 10.3125 89.0391 10.3125C 89.2318 10.3125 89.3802 10.3672 89.4844 10.4766C 89.5885 10.5807 89.651 10.763 89.6719 11.0234C 89.8698 11.2318 90.1302 11.3906 90.4531 11.5C 90.776 11.6042 91.1615 11.6562 91.6094 11.6562C 92.3958 11.6562 93.0156 11.5286 93.4688 11.2734C 93.6719 11.1589 93.7734 11.0286 93.7734 10.8828C 93.7734 10.6797 93.6484 10.5182 93.3984 10.3984C 93.1484 10.2839 92.6224 10.1823 91.8203 10.0938C 90.6693 9.96875 89.9141 9.75521 89.5547 9.45312C 89.1953 9.15104 89.0156 8.76302 89.0156 8.28906C 89.0156 7.8776 89.1484 7.48698 89.4141 7.11719C 89.6797 6.7474 90.0781 6.4349 90.6094 6.17969C 91.2969 5.85677 92.0365 5.69531 92.8281 5.69531C 93.1979 5.69531 93.5469 5.73177 93.875 5.80469C 94.2031 5.8724 94.5078 5.97917 94.7891 6.125C 95.013 5.97917 95.1979 5.90625 95.3438 5.90625C 95.5104 5.90625 95.6536 5.96615 95.7734 6.08594C 95.8932 6.20052 95.9531 6.33594 95.9531 6.49219C 95.9531 6.60156 95.9323 6.76302 95.8906 6.97656L 95.8047 7.36719C 95.7214 7.7526 95.5859 8.02865 95.3984 8.19531C 95.2161 8.35677 95.0052 8.4375 94.7656 8.4375C 94.5729 8.4375 94.4167 8.3776 94.2969 8.25781C 94.1771 8.13802 94.1172 7.97917 94.1172 7.78125ZM 111.094 7.50781L 110.406 10.7188C 110.375 10.8802 110.359 11.013 110.359 11.1172C 110.359 11.2578 110.422 11.3698 110.547 11.4531C 110.755 11.5885 111.099 11.6562 111.578 11.6562C 112.401 11.6562 113.198 11.4818 113.969 11.1328C 114.266 10.9974 114.49 10.9297 114.641 10.9297C 114.818 10.9297 114.964 10.9896 115.078 11.1094C 115.193 11.224 115.25 11.375 115.25 11.5625C 115.25 11.8073 115.154 12.0208 114.961 12.2031C 114.685 12.4635 114.135 12.7057 113.312 12.9297C 112.495 13.1484 111.786 13.2578 111.188 13.2578C 110.693 13.2578 110.221 13.1745 109.773 13.0078C 109.445 12.888 109.182 12.6979 108.984 12.4375C 108.786 12.1771 108.688 11.8776 108.688 11.5391C 108.688 11.3672 108.706 11.1979 108.742 11.0312L 109.492 7.50781L 108.906 7.50781C 108.552 7.50781 108.31 7.45312 108.18 7.34375C 108.055 7.22917 107.992 7.07292 107.992 6.875C 107.992 6.55729 108.143 6.29167 108.445 6.07812C 108.607 5.96354 108.875 5.90625 109.25 5.90625L 109.828 5.90625L 110.141 4.46094C 110.219 4.07552 110.349 3.80208 110.531 3.64062C 110.719 3.47396 110.932 3.39062 111.172 3.39062C 111.354 3.39062 111.505 3.45052 111.625 3.57031C 111.75 3.6849 111.812 3.82031 111.812 3.97656C 111.812 4.08594 111.789 4.2474 111.742 4.46094L 111.43 5.90625L 114.391 5.90625C 114.75 5.90625 114.992 5.96354 115.117 6.07812C 115.247 6.1875 115.312 6.34375 115.312 6.54688C 115.312 6.85417 115.164 7.11458 114.867 7.32812C 114.701 7.44792 114.43 7.50781 114.055 7.50781L 111.094 7.50781ZM 121.297 5.90625L 121.086 6.90625C 121.867 6.41667 122.466 6.09375 122.883 5.9375C 123.305 5.77604 123.685 5.69531 124.023 5.69531C 124.482 5.69531 124.885 5.83854 125.234 6.125C 125.583 6.40625 125.758 6.66406 125.758 6.89844C 125.758 7.15365 125.654 7.38281 125.445 7.58594C 125.242 7.78906 125.013 7.89062 124.758 7.89062C 124.56 7.89062 124.372 7.79167 124.195 7.59375C 124.018 7.39583 123.844 7.29688 123.672 7.29688C 123.479 7.29688 123.167 7.40625 122.734 7.625C 122.302 7.84375 121.604 8.29688 120.641 8.98438L 120.133 11.3984L 122.406 11.3984C 122.766 11.3984 123.008 11.4531 123.133 11.5625C 123.258 11.6719 123.32 11.8281 123.32 12.0312C 123.32 12.3542 123.167 12.6224 122.859 12.8359C 122.698 12.9453 122.435 13 122.07 13L 117.227 13C 116.872 13 116.63 12.9453 116.5 12.8359C 116.375 12.7214 116.312 12.5651 116.312 12.3672C 116.312 12.0443 116.464 11.7786 116.766 11.5703C 116.932 11.4557 117.201 11.3984 117.57 11.3984L 118.531 11.3984L 119.352 7.50781L 118.773 7.50781C 118.419 7.50781 118.177 7.45312 118.047 7.34375C 117.917 7.22917 117.852 7.07292 117.852 6.875C 117.852 6.5625 118 6.29948 118.297 6.08594C 118.464 5.96615 118.737 5.90625 119.117 5.90625L 121.297 5.90625ZM 134.625 5.90625L 133.461 11.3984C 133.768 11.3984 133.984 11.4557 134.109 11.5703C 134.234 11.6797 134.297 11.8333 134.297 12.0312C 134.297 12.349 134.146 12.6146 133.844 12.8281C 133.682 12.9427 133.414 13 133.039 13L 131.516 13L 131.594 12.6328C 130.589 13.0495 129.698 13.2578 128.922 13.2578C 128.307 13.2578 127.812 13.0859 127.438 12.7422C 127.062 12.3932 126.875 11.9583 126.875 11.4375C 126.875 11.2917 126.893 11.1302 126.93 10.9531L 127.656 7.50781L 127.383 7.50781C 127.029 7.50781 126.786 7.45312 126.656 7.34375C 126.531 7.22917 126.469 7.07292 126.469 6.875C 126.469 6.55729 126.62 6.29167 126.922 6.07812C 127.083 5.96354 127.352 5.90625 127.727 5.90625L 129.602 5.90625L 128.586 10.6719C 128.555 10.8333 128.539 10.9635 128.539 11.0625C 128.539 11.224 128.607 11.3646 128.742 11.4844C 128.883 11.599 129.091 11.6562 129.367 11.6562C 129.695 11.6562 130.057 11.5938 130.453 11.4688C 130.849 11.3438 131.362 11.112 131.992 10.7734L 132.688 7.50781L 132.102 7.50781C 131.747 7.50781 131.505 7.45312 131.375 7.34375C 131.25 7.22917 131.188 7.07292 131.188 6.875C 131.188 6.55729 131.339 6.29167 131.641 6.07812C 131.802 5.96354 132.07 5.90625 132.445 5.90625L 134.625 5.90625ZM 143.938 10.2656L 137.367 10.2656C 137.44 10.6771 137.659 11.013 138.023 11.2734C 138.388 11.5286 138.935 11.6562 139.664 11.6562C 140.268 11.6562 141.089 11.5286 142.125 11.2734C 142.557 11.1693 142.854 11.1172 143.016 11.1172C 143.188 11.1172 143.331 11.1745 143.445 11.2891C 143.56 11.3984 143.617 11.5443 143.617 11.7266C 143.617 11.9922 143.497 12.2292 143.258 12.4375C 143.023 12.6406 142.466 12.8281 141.586 13C 140.706 13.1719 139.911 13.2578 139.203 13.2578C 138.089 13.2578 137.227 12.9792 136.617 12.4219C 136.013 11.8594 135.711 11.1432 135.711 10.2734C 135.711 9.54948 135.93 8.82292 136.367 8.09375C 136.81 7.36458 137.438 6.78385 138.25 6.35156C 139.068 5.91406 139.906 5.69531 140.766 5.69531C 141.776 5.69531 142.594 5.97396 143.219 6.53125C 143.849 7.08854 144.164 7.86719 144.164 8.86719C 144.164 9.08073 144.138 9.32031 144.086 9.58594L 143.938 10.2656ZM 142.5 8.66406C 142.359 8.22656 142.115 7.89062 141.766 7.65625C 141.417 7.41667 140.969 7.29688 140.422 7.29688C 139.875 7.29688 139.38 7.41146 138.938 7.64062C 138.495 7.86458 138.102 8.20573 137.758 8.66406L 142.5 8.66406ZM 149.625 9.10938C 149.625 10.0208 149.474 10.9453 149.172 11.8828C 148.948 12.5703 148.602 13.3333 148.133 14.1719C 147.794 14.776 147.544 15.1484 147.383 15.2891C 147.221 15.4297 147.042 15.5 146.844 15.5C 146.615 15.5 146.422 15.4219 146.266 15.2656C 146.109 15.1094 146.031 14.9219 146.031 14.7031C 146.031 14.5469 146.094 14.3672 146.219 14.1641C 146.781 13.2422 147.19 12.3776 147.445 11.5703C 147.706 10.763 147.836 9.94271 147.836 9.10938C 147.836 8.28125 147.706 7.46354 147.445 6.65625C 147.19 5.84896 146.781 4.98438 146.219 4.0625C 146.094 3.85417 146.031 3.67448 146.031 3.52344C 146.031 3.30469 146.109 3.11719 146.266 2.96094C 146.422 2.80469 146.615 2.72656 146.844 2.72656C 147.036 2.72656 147.206 2.78906 147.352 2.91406C 147.56 3.09115 147.836 3.5 148.18 4.14062C 148.674 5.0625 149.013 5.82031 149.195 6.41406C 149.482 7.33594 149.625 8.23438 149.625 9.10938ZM 158.875 9.11719C 159.062 9.33073 159.19 9.53906 159.258 9.74219C 159.326 9.9401 159.359 10.263 159.359 10.7109L 159.359 13.2578C 159.359 13.4714 159.398 13.6224 159.477 13.7109C 159.56 13.8047 159.711 13.8594 159.93 13.875C 160.148 13.8958 160.328 13.9818 160.469 14.1328C 160.609 14.2839 160.68 14.4688 160.68 14.6875C 160.68 14.9167 160.599 15.1094 160.438 15.2656C 160.281 15.4219 160.081 15.5 159.836 15.5C 159.487 15.5 159.151 15.4062 158.828 15.2188C 158.505 15.0365 158.224 14.737 157.984 14.3203C 157.833 14.0495 157.758 13.7344 157.758 13.375L 157.758 10.5547C 157.758 10.3307 157.721 10.1771 157.648 10.0938C 157.576 10.0104 157.419 9.95573 157.18 9.92969C 156.94 9.89844 156.755 9.8125 156.625 9.67188C 156.5 9.53125 156.438 9.34635 156.438 9.11719C 156.438 8.88281 156.5 8.69531 156.625 8.55469C 156.755 8.41406 156.94 8.33073 157.18 8.30469C 157.424 8.27344 157.573 8.22396 157.625 8.15625C 157.714 8.05208 157.758 7.89062 157.758 7.67188L 157.758 5C 157.758 4.42708 157.966 3.93229 158.383 3.51562C 158.799 3.09375 159.281 2.88281 159.828 2.88281C 160.078 2.88281 160.281 2.96094 160.438 3.11719C 160.599 3.27344 160.68 3.46615 160.68 3.69531C 160.68 3.90885 160.609 4.09115 160.469 4.24219C 160.328 4.39323 160.146 4.47917 159.922 4.5C 159.698 4.52083 159.557 4.56771 159.5 4.64062C 159.406 4.75 159.359 4.91146 159.359 5.125L 159.359 7.67188C 159.359 8.03125 159.323 8.3099 159.25 8.50781C 159.182 8.70052 159.057 8.90365 158.875 9.11719ZM 46.9141 20.8672L 46.9141 29.3984L 47.1875 29.3984C 47.5677 29.3984 47.8411 29.474 48.0078 29.625C 48.1745 29.7708 48.2578 29.9635 48.2578 30.2031C 48.2578 30.4375 48.1745 30.6302 48.0078 30.7812C 47.8464 30.9271 47.5729 31 47.1875 31L 45.3125 31L 45.3125 30.6094C 44.9479 30.8229 44.5651 30.9844 44.1641 31.0938C 43.7682 31.2031 43.3568 31.2578 42.9297 31.2578C 41.7266 31.2578 40.7578 30.9115 40.0234 30.2188C 39.2891 29.5208 38.9219 28.6536 38.9219 27.6172C 38.9219 26.5339 39.3073 25.6094 40.0781 24.8438C 40.849 24.0781 41.7891 23.6953 42.8984 23.6953C 43.3151 23.6953 43.724 23.7604 44.125 23.8906C 44.526 24.0156 44.9219 24.2057 45.3125 24.4609L 45.3125 22.4688L 45.0391 22.4688C 44.6536 22.4688 44.3776 22.3958 44.2109 22.25C 44.0495 22.099 43.9688 21.9062 43.9688 21.6719C 43.9688 21.4323 44.0495 21.2396 44.2109 21.0938C 44.3776 20.9427 44.6536 20.8672 45.0391 20.8672L 46.9141 20.8672ZM 45.3125 27.6641C 45.3125 27.0026 45.0807 26.4427 44.6172 25.9844C 44.1536 25.526 43.5859 25.2969 42.9141 25.2969C 42.2474 25.2969 41.6823 25.526 41.2188 25.9844C 40.7552 26.4427 40.5234 26.9948 40.5234 27.6406C 40.5234 28.2292 40.7318 28.7135 41.1484 29.0938C 41.5651 29.4688 42.1536 29.6562 42.9141 29.6562C 43.6693 29.6562 44.2578 29.4688 44.6797 29.0938C 45.1016 28.7135 45.3125 28.237 45.3125 27.6641ZM 57.0078 27.5859C 57.0078 28.2005 56.8359 28.7969 56.4922 29.375C 56.1536 29.9479 55.6458 30.4062 54.9688 30.75C 54.2969 31.0885 53.5938 31.2578 52.8594 31.2578C 52.1302 31.2578 51.4323 31.0911 50.7656 30.7578C 50.099 30.4193 49.5911 29.9609 49.2422 29.3828C 48.8932 28.8047 48.7188 28.2005 48.7188 27.5703C 48.7188 26.9297 48.8958 26.3021 49.25 25.6875C 49.6042 25.0677 50.112 24.5807 50.7734 24.2266C 51.4401 23.8724 52.1354 23.6953 52.8594 23.6953C 53.5885 23.6953 54.2891 23.8776 54.9609 24.2422C 55.638 24.6016 56.1484 25.0885 56.4922 25.7031C 56.8359 26.3125 57.0078 26.9401 57.0078 27.5859ZM 55.4062 27.5938C 55.4062 27.0781 55.2214 26.6042 54.8516 26.1719C 54.3464 25.5885 53.6823 25.2969 52.8594 25.2969C 52.1354 25.2969 51.5312 25.5286 51.0469 25.9922C 50.5625 26.4557 50.3203 26.9922 50.3203 27.6016C 50.3203 28.1016 50.5651 28.5703 51.0547 29.0078C 51.5443 29.4401 52.1458 29.6562 52.8594 29.6562C 53.5781 29.6562 54.1823 29.4401 54.6719 29.0078C 55.1615 28.5703 55.4062 28.099 55.4062 27.5938ZM 71.6719 25.5078L 71.6719 28.7188C 71.6719 29.0625 71.7422 29.2891 71.8828 29.3984C 72.1016 29.5703 72.4922 29.6562 73.0547 29.6562C 73.8724 29.6562 74.6276 29.4818 75.3203 29.1328C 75.5859 28.9974 75.7943 28.9297 75.9453 28.9297C 76.1536 28.9297 76.3333 29.0078 76.4844 29.1641C 76.6406 29.3203 76.7188 29.5104 76.7188 29.7344C 76.7188 29.9427 76.6354 30.1224 76.4688 30.2734C 76.2135 30.5182 75.7083 30.7448 74.9531 30.9531C 74.2031 31.1562 73.5703 31.2578 73.0547 31.2578C 72.0599 31.2578 71.3125 31.0443 70.8125 30.6172C 70.3177 30.1849 70.0703 29.6562 70.0703 29.0312L 70.0703 25.5078L 69.4922 25.5078C 69.1068 25.5078 68.8307 25.4349 68.6641 25.2891C 68.5026 25.138 68.4219 24.9427 68.4219 24.7031C 68.4219 24.4688 68.5026 24.2786 68.6641 24.1328C 68.8307 23.9818 69.1068 23.9062 69.4922 23.9062L 70.0703 23.9062L 70.0703 22.4609C 70.0703 22.0755 70.1432 21.8021 70.2891 21.6406C 70.4401 21.474 70.6354 21.3906 70.875 21.3906C 71.1094 21.3906 71.2995 21.474 71.4453 21.6406C 71.5964 21.8021 71.6719 22.0755 71.6719 22.4609L 71.6719 23.9062L 74.6328 23.9062C 75.0182 23.9062 75.2917 23.9818 75.4531 24.1328C 75.6198 24.2786 75.7031 24.4714 75.7031 24.7109C 75.7031 24.9453 75.6198 25.138 75.4531 25.2891C 75.2917 25.4349 75.0182 25.5078 74.6328 25.5078L 71.6719 25.5078ZM 80.0234 20.8672L 80.0234 24.2812C 80.3568 24.0833 80.6927 23.9375 81.0312 23.8438C 81.375 23.7448 81.7214 23.6953 82.0703 23.6953C 82.6224 23.6953 83.1146 23.7891 83.5469 23.9766C 83.9792 24.1641 84.3359 24.4609 84.6172 24.8672C 84.9036 25.2682 85.0469 25.776 85.0469 26.3906L 85.0469 29.3984C 85.4531 29.3984 85.7188 29.4375 85.8438 29.5156C 86.0938 29.6771 86.2188 29.9062 86.2188 30.2031C 86.2188 30.4375 86.138 30.6302 85.9766 30.7812C 85.8151 30.9271 85.5417 31 85.1562 31L 83.3281 31C 82.9479 31 82.6745 30.9271 82.5078 30.7812C 82.3464 30.6302 82.2656 30.4349 82.2656 30.1953C 82.2656 29.9036 82.3906 29.6771 82.6406 29.5156C 82.7708 29.4323 83.0365 29.3932 83.4375 29.3984L 83.4375 26.5C 83.4375 26.0885 83.3438 25.7995 83.1562 25.6328C 82.9115 25.4089 82.5495 25.2969 82.0703 25.2969C 81.7161 25.2969 81.401 25.3672 81.125 25.5078C 80.8542 25.6432 80.487 25.9401 80.0234 26.3984L 80.0234 29.3984C 80.4349 29.3984 80.7005 29.4375 80.8203 29.5156C 81.0755 29.6771 81.2031 29.9062 81.2031 30.2031C 81.2031 30.4375 81.1198 30.6302 80.9531 30.7812C 80.7917 30.9271 80.5182 31 80.1328 31L 78.3125 31C 77.9271 31 77.651 30.9271 77.4844 30.7812C 77.3229 30.6302 77.2422 30.4349 77.2422 30.1953C 77.2422 29.9036 77.3698 29.6771 77.625 29.5156C 77.75 29.4323 78.0156 29.3932 78.4219 29.3984L 78.4219 22.4688L 78.1484 22.4688C 77.763 22.4688 77.487 22.3958 77.3203 22.25C 77.1589 22.099 77.0781 21.9036 77.0781 21.6641C 77.0781 21.4297 77.1589 21.2396 77.3203 21.0938C 77.487 20.9427 77.763 20.8672 78.1484 20.8672L 80.0234 20.8672ZM 91.8594 20.8672L 91.8594 22.5625L 89.9531 22.5625L 89.9531 20.8672L 91.8594 20.8672ZM 92.0781 23.9062L 92.0781 29.3984L 94 29.3984C 94.3854 29.3984 94.6589 29.474 94.8203 29.625C 94.987 29.7708 95.0703 29.9635 95.0703 30.2031C 95.0703 30.4375 94.987 30.6302 94.8203 30.7812C 94.6589 30.9271 94.3854 31 94 31L 88.5547 31C 88.1693 31 87.8932 30.9271 87.7266 30.7812C 87.5651 30.6302 87.4844 30.4349 87.4844 30.1953C 87.4844 29.9609 87.5651 29.7708 87.7266 29.625C 87.8932 29.474 88.1693 29.3984 88.5547 29.3984L 90.4766 29.3984L 90.4766 25.5078L 89.1875 25.5078C 88.8073 25.5078 88.5339 25.4349 88.3672 25.2891C 88.2005 25.138 88.1172 24.9427 88.1172 24.7031C 88.1172 24.4688 88.1979 24.2786 88.3594 24.1328C 88.526 23.9818 88.8021 23.9062 89.1875 23.9062L 92.0781 23.9062ZM 102.625 25.7812C 102.365 25.6198 102.091 25.5 101.805 25.4219C 101.518 25.3385 101.219 25.2969 100.906 25.2969C 100.286 25.2969 99.7943 25.3984 99.4297 25.6016C 99.2682 25.6901 99.1875 25.7865 99.1875 25.8906C 99.1875 26.0104 99.2969 26.1276 99.5156 26.2422C 99.6823 26.3255 100.055 26.4062 100.633 26.4844C 101.695 26.6302 102.435 26.776 102.852 26.9219C 103.398 27.1146 103.82 27.401 104.117 27.7812C 104.414 28.1615 104.562 28.5625 104.562 28.9844C 104.562 29.5573 104.31 30.0365 103.805 30.4219C 103.081 30.9792 102.141 31.2578 100.984 31.2578C 100.521 31.2578 100.091 31.2161 99.6953 31.1328C 99.3047 31.0547 98.9453 30.9375 98.6172 30.7812C 98.5391 30.849 98.4557 30.901 98.3672 30.9375C 98.2786 30.974 98.1875 30.9922 98.0938 30.9922C 97.8438 30.9922 97.6432 30.9115 97.4922 30.75C 97.3464 30.5833 97.2734 30.3073 97.2734 29.9219L 97.2734 29.3828C 97.2734 28.9974 97.3464 28.724 97.4922 28.5625C 97.6432 28.3958 97.8385 28.3125 98.0781 28.3125C 98.2708 28.3125 98.4323 28.3672 98.5625 28.4766C 98.6927 28.5807 98.7943 28.763 98.8672 29.0234C 99.112 29.2318 99.4062 29.3906 99.75 29.5C 100.094 29.6042 100.49 29.6562 100.938 29.6562C 101.672 29.6562 102.242 29.5417 102.648 29.3125C 102.841 29.1979 102.938 29.0781 102.938 28.9531C 102.938 28.7448 102.799 28.5729 102.523 28.4375C 102.247 28.3021 101.677 28.1875 100.812 28.0938C 99.526 27.9583 98.6667 27.6979 98.2344 27.3125C 97.8021 26.9323 97.5859 26.4635 97.5859 25.9062C 97.5859 25.3333 97.8281 24.8568 98.3125 24.4766C 98.9688 23.9557 99.8281 23.6953 100.891 23.6953C 101.26 23.6953 101.615 23.7318 101.953 23.8047C 102.297 23.8724 102.625 23.9792 102.938 24.125C 103.036 24.0521 103.128 23.9974 103.211 23.9609C 103.299 23.9245 103.38 23.9062 103.453 23.9062C 103.672 23.9062 103.854 23.9896 104 24.1562C 104.146 24.3177 104.219 24.5911 104.219 24.9766L 104.219 25.3672C 104.219 25.7161 104.177 25.9531 104.094 26.0781C 103.927 26.3177 103.701 26.4375 103.414 26.4375C 103.221 26.4375 103.052 26.3776 102.906 26.2578C 102.76 26.138 102.667 25.9792 102.625 25.7812ZM 112.453 25.0156C 112.453 25.3177 112.346 25.5703 112.133 25.7734C 111.919 25.9766 111.625 26.0781 111.25 26.0781C 110.88 26.0781 110.589 25.9766 110.375 25.7734C 110.161 25.5651 110.055 25.3099 110.055 25.0078C 110.055 24.7109 110.159 24.4609 110.367 24.2578C 110.581 24.0495 110.875 23.9453 111.25 23.9453C 111.625 23.9453 111.919 24.0469 112.133 24.25C 112.346 24.4531 112.453 24.7083 112.453 25.0156ZM 109.977 28.6641L 112.016 28.6641L 109.758 32.3281C 109.612 32.5729 109.469 32.6953 109.328 32.6953C 109.198 32.6953 109.086 32.6562 108.992 32.5781C 108.904 32.5 108.859 32.4167 108.859 32.3281C 108.859 32.2604 108.878 32.1693 108.914 32.0547L 109.977 28.6641ZM 44.6797 50L 44.6797 49.625C 44.2786 49.8385 43.8359 49.9974 43.3516 50.1016C 42.8672 50.2109 42.4271 50.2656 42.0312 50.2656C 41.1719 50.2656 40.474 50.0391 39.9375 49.5859C 39.401 49.1276 39.1328 48.6224 39.1328 48.0703C 39.1328 47.3984 39.474 46.776 40.1562 46.2031C 40.8438 45.625 41.7917 45.3359 43 45.3359C 43.4844 45.3359 44.0443 45.388 44.6797 45.4922L 44.6797 45.1094C 44.6797 44.8698 44.5755 44.6745 44.3672 44.5234C 44.1641 44.3724 43.7734 44.2969 43.1953 44.2969C 42.7214 44.2969 42.1068 44.3906 41.3516 44.5781C 41.0703 44.6458 40.8516 44.6797 40.6953 44.6797C 40.4818 44.6797 40.2995 44.6042 40.1484 44.4531C 40.0026 44.2969 39.9297 44.099 39.9297 43.8594C 39.9297 43.724 39.9557 43.6068 40.0078 43.5078C 40.0599 43.4089 40.1328 43.3307 40.2266 43.2734C 40.3203 43.2109 40.5156 43.138 40.8125 43.0547C 41.2083 42.9453 41.612 42.8594 42.0234 42.7969C 42.4349 42.7292 42.8073 42.6953 43.1406 42.6953C 44.1354 42.6953 44.9062 42.9115 45.4531 43.3438C 46.0052 43.7708 46.2812 44.3568 46.2812 45.1016L 46.2812 48.3984L 46.5547 48.3984C 46.9401 48.3984 47.2135 48.474 47.375 48.625C 47.5417 48.7708 47.625 48.9635 47.625 49.2031C 47.625 49.4375 47.5417 49.6302 47.375 49.7812C 47.2135 49.9271 46.9401 50 46.5547 50L 44.6797 50ZM 44.6797 47.1328C 44.0391 47.0078 43.4479 46.9453 42.9062 46.9453C 42.2552 46.9453 41.6953 47.1042 41.2266 47.4219C 40.9349 47.625 40.7891 47.8307 40.7891 48.0391C 40.7891 48.1901 40.8594 48.3125 41 48.4062C 41.2604 48.5781 41.6172 48.6641 42.0703 48.6641C 42.4557 48.6641 42.8906 48.5885 43.375 48.4375C 43.8646 48.2865 44.2995 48.0807 44.6797 47.8203L 44.6797 47.1328ZM 51.2266 42.9062L 51.2266 43.4453C 51.5182 43.1953 51.8385 43.0078 52.1875 42.8828C 52.5417 42.7578 52.9245 42.6953 53.3359 42.6953C 54.2839 42.6953 55.0339 42.9896 55.5859 43.5781C 56.0234 44.0469 56.2422 44.6615 56.2422 45.4219L 56.2422 48.3984C 56.5807 48.3984 56.8307 48.474 56.9922 48.625C 57.1536 48.7708 57.2344 48.9635 57.2344 49.2031C 57.2344 49.4375 57.151 49.6302 56.9844 49.7812C 56.8229 49.9271 56.5495 50 56.1641 50L 54.7188 50C 54.3333 50 54.0573 49.9271 53.8906 49.7812C 53.7292 49.6302 53.6484 49.4349 53.6484 49.1953C 53.6484 48.9609 53.7292 48.7708 53.8906 48.625C 54.0521 48.474 54.3021 48.3984 54.6406 48.3984L 54.6406 45.375C 54.6406 45.026 54.5469 44.7708 54.3594 44.6094C 54.1146 44.401 53.7474 44.2969 53.2578 44.2969C 52.888 44.2969 52.5625 44.3698 52.2812 44.5156C 52.0052 44.6562 51.6536 44.9583 51.2266 45.4219L 51.2266 48.3984C 51.638 48.3984 51.9036 48.4375 52.0234 48.5156C 52.2786 48.6719 52.4062 48.901 52.4062 49.2031C 52.4062 49.4375 52.3229 49.6302 52.1562 49.7812C 51.9948 49.9271 51.7214 50 51.3359 50L 49.5156 50C 49.1302 50 48.8542 49.9271 48.6875 49.7812C 48.526 49.6302 48.4453 49.4349 48.4453 49.1953C 48.4453 48.9036 48.5703 48.6771 48.8203 48.5156C 48.9453 48.4375 49.2135 48.3984 49.625 48.3984L 49.625 44.5078C 49.2865 44.5078 49.0365 44.4323 48.875 44.2812C 48.7135 44.1302 48.6328 43.9375 48.6328 43.7031C 48.6328 43.4688 48.7135 43.2786 48.875 43.1328C 49.0417 42.9818 49.3177 42.9062 49.7031 42.9062L 51.2266 42.9062ZM 66.1328 39.8672L 66.1328 48.3984L 66.4062 48.3984C 66.7865 48.3984 67.0599 48.474 67.2266 48.625C 67.3932 48.7708 67.4766 48.9635 67.4766 49.2031C 67.4766 49.4375 67.3932 49.6302 67.2266 49.7812C 67.0651 49.9271 66.7917 50 66.4062 50L 64.5312 50L 64.5312 49.6094C 64.1667 49.8229 63.7839 49.9844 63.3828 50.0938C 62.987 50.2031 62.5755 50.2578 62.1484 50.2578C 60.9453 50.2578 59.9766 49.9115 59.2422 49.2188C 58.5078 48.5208 58.1406 47.6536 58.1406 46.6172C 58.1406 45.5339 58.526 44.6094 59.2969 43.8438C 60.0677 43.0781 61.0078 42.6953 62.1172 42.6953C 62.5339 42.6953 62.9427 42.7604 63.3438 42.8906C 63.7448 43.0156 64.1406 43.2057 64.5312 43.4609L 64.5312 41.4688L 64.2578 41.4688C 63.8724 41.4688 63.5964 41.3958 63.4297 41.25C 63.2682 41.099 63.1875 40.9062 63.1875 40.6719C 63.1875 40.4323 63.2682 40.2396 63.4297 40.0938C 63.5964 39.9427 63.8724 39.8672 64.2578 39.8672L 66.1328 39.8672ZM 64.5312 46.6641C 64.5312 46.0026 64.2995 45.4427 63.8359 44.9844C 63.3724 44.526 62.8047 44.2969 62.1328 44.2969C 61.4661 44.2969 60.901 44.526 60.4375 44.9844C 59.974 45.4427 59.7422 45.9948 59.7422 46.6406C 59.7422 47.2292 59.9505 47.7135 60.3672 48.0938C 60.7839 48.4688 61.3724 48.6562 62.1328 48.6562C 62.888 48.6562 63.4766 48.4688 63.8984 48.0938C 64.3203 47.7135 64.5312 47.237 64.5312 46.6641ZM 81.2812 44.5078L 81.2812 47.7188C 81.2812 48.0625 81.3516 48.2891 81.4922 48.3984C 81.7109 48.5703 82.1016 48.6562 82.6641 48.6562C 83.4818 48.6562 84.237 48.4818 84.9297 48.1328C 85.1953 47.9974 85.4036 47.9297 85.5547 47.9297C 85.763 47.9297 85.9427 48.0078 86.0938 48.1641C 86.25 48.3203 86.3281 48.5104 86.3281 48.7344C 86.3281 48.9427 86.2448 49.1224 86.0781 49.2734C 85.8229 49.5182 85.3177 49.7448 84.5625 49.9531C 83.8125 50.1562 83.1797 50.2578 82.6641 50.2578C 81.6693 50.2578 80.9219 50.0443 80.4219 49.6172C 79.9271 49.1849 79.6797 48.6562 79.6797 48.0312L 79.6797 44.5078L 79.1016 44.5078C 78.7161 44.5078 78.4401 44.4349 78.2734 44.2891C 78.112 44.138 78.0312 43.9427 78.0312 43.7031C 78.0312 43.4688 78.112 43.2786 78.2734 43.1328C 78.4401 42.9818 78.7161 42.9062 79.1016 42.9062L 79.6797 42.9062L 79.6797 41.4609C 79.6797 41.0755 79.7526 40.8021 79.8984 40.6406C 80.0495 40.474 80.2448 40.3906 80.4844 40.3906C 80.7188 40.3906 80.9089 40.474 81.0547 40.6406C 81.2057 40.8021 81.2812 41.0755 81.2812 41.4609L 81.2812 42.9062L 84.2422 42.9062C 84.6276 42.9062 84.901 42.9818 85.0625 43.1328C 85.2292 43.2786 85.3125 43.4714 85.3125 43.7109C 85.3125 43.9453 85.2292 44.138 85.0625 44.2891C 84.901 44.4349 84.6276 44.5078 84.2422 44.5078L 81.2812 44.5078ZM 89.6328 39.8672L 89.6328 43.2812C 89.9661 43.0833 90.3021 42.9375 90.6406 42.8438C 90.9844 42.7448 91.3307 42.6953 91.6797 42.6953C 92.2318 42.6953 92.724 42.7891 93.1562 42.9766C 93.5885 43.1641 93.9453 43.4609 94.2266 43.8672C 94.513 44.2682 94.6562 44.776 94.6562 45.3906L 94.6562 48.3984C 95.0625 48.3984 95.3281 48.4375 95.4531 48.5156C 95.7031 48.6771 95.8281 48.9062 95.8281 49.2031C 95.8281 49.4375 95.7474 49.6302 95.5859 49.7812C 95.4245 49.9271 95.151 50 94.7656 50L 92.9375 50C 92.5573 50 92.2839 49.9271 92.1172 49.7812C 91.9557 49.6302 91.875 49.4349 91.875 49.1953C 91.875 48.9036 92 48.6771 92.25 48.5156C 92.3802 48.4323 92.6458 48.3932 93.0469 48.3984L 93.0469 45.5C 93.0469 45.0885 92.9531 44.7995 92.7656 44.6328C 92.5208 44.4089 92.1589 44.2969 91.6797 44.2969C 91.3255 44.2969 91.0104 44.3672 90.7344 44.5078C 90.4635 44.6432 90.0964 44.9401 89.6328 45.3984L 89.6328 48.3984C 90.0443 48.3984 90.3099 48.4375 90.4297 48.5156C 90.6849 48.6771 90.8125 48.9062 90.8125 49.2031C 90.8125 49.4375 90.7292 49.6302 90.5625 49.7812C 90.401 49.9271 90.1276 50 89.7422 50L 87.9219 50C 87.5365 50 87.2604 49.9271 87.0938 49.7812C 86.9323 49.6302 86.8516 49.4349 86.8516 49.1953C 86.8516 48.9036 86.9792 48.6771 87.2344 48.5156C 87.3594 48.4323 87.625 48.3932 88.0312 48.3984L 88.0312 41.4688L 87.7578 41.4688C 87.3724 41.4688 87.0964 41.3958 86.9297 41.25C 86.7682 41.099 86.6875 40.9036 86.6875 40.6641C 86.6875 40.4297 86.7682 40.2396 86.9297 40.0938C 87.0964 39.9427 87.3724 39.8672 87.7578 39.8672L 89.6328 39.8672ZM 101.469 39.8672L 101.469 41.5625L 99.5625 41.5625L 99.5625 39.8672L 101.469 39.8672ZM 101.688 42.9062L 101.688 48.3984L 103.609 48.3984C 103.995 48.3984 104.268 48.474 104.43 48.625C 104.596 48.7708 104.68 48.9635 104.68 49.2031C 104.68 49.4375 104.596 49.6302 104.43 49.7812C 104.268 49.9271 103.995 50 103.609 50L 98.1641 50C 97.7786 50 97.5026 49.9271 97.3359 49.7812C 97.1745 49.6302 97.0938 49.4349 97.0938 49.1953C 97.0938 48.9609 97.1745 48.7708 97.3359 48.625C 97.5026 48.474 97.7786 48.3984 98.1641 48.3984L 100.086 48.3984L 100.086 44.5078L 98.7969 44.5078C 98.4167 44.5078 98.1432 44.4349 97.9766 44.2891C 97.8099 44.138 97.7266 43.9427 97.7266 43.7031C 97.7266 43.4688 97.8073 43.2786 97.9688 43.1328C 98.1354 42.9818 98.4115 42.9062 98.7969 42.9062L 101.688 42.9062ZM 112.234 44.7812C 111.974 44.6198 111.701 44.5 111.414 44.4219C 111.128 44.3385 110.828 44.2969 110.516 44.2969C 109.896 44.2969 109.404 44.3984 109.039 44.6016C 108.878 44.6901 108.797 44.7865 108.797 44.8906C 108.797 45.0104 108.906 45.1276 109.125 45.2422C 109.292 45.3255 109.664 45.4062 110.242 45.4844C 111.305 45.6302 112.044 45.776 112.461 45.9219C 113.008 46.1146 113.43 46.401 113.727 46.7812C 114.023 47.1615 114.172 47.5625 114.172 47.9844C 114.172 48.5573 113.919 49.0365 113.414 49.4219C 112.69 49.9792 111.75 50.2578 110.594 50.2578C 110.13 50.2578 109.701 50.2161 109.305 50.1328C 108.914 50.0547 108.555 49.9375 108.227 49.7812C 108.148 49.849 108.065 49.901 107.977 49.9375C 107.888 49.974 107.797 49.9922 107.703 49.9922C 107.453 49.9922 107.253 49.9115 107.102 49.75C 106.956 49.5833 106.883 49.3073 106.883 48.9219L 106.883 48.3828C 106.883 47.9974 106.956 47.724 107.102 47.5625C 107.253 47.3958 107.448 47.3125 107.688 47.3125C 107.88 47.3125 108.042 47.3672 108.172 47.4766C 108.302 47.5807 108.404 47.763 108.477 48.0234C 108.721 48.2318 109.016 48.3906 109.359 48.5C 109.703 48.6042 110.099 48.6562 110.547 48.6562C 111.281 48.6562 111.852 48.5417 112.258 48.3125C 112.451 48.1979 112.547 48.0781 112.547 47.9531C 112.547 47.7448 112.409 47.5729 112.133 47.4375C 111.857 47.3021 111.286 47.1875 110.422 47.0938C 109.135 46.9583 108.276 46.6979 107.844 46.3125C 107.411 45.9323 107.195 45.4635 107.195 44.9062C 107.195 44.3333 107.438 43.8568 107.922 43.4766C 108.578 42.9557 109.438 42.6953 110.5 42.6953C 110.87 42.6953 111.224 42.7318 111.562 42.8047C 111.906 42.8724 112.234 42.9792 112.547 43.125C 112.646 43.0521 112.737 42.9974 112.82 42.9609C 112.909 42.9245 112.99 42.9062 113.062 42.9062C 113.281 42.9062 113.464 42.9896 113.609 43.1562C 113.755 43.3177 113.828 43.5911 113.828 43.9766L 113.828 44.3672C 113.828 44.7161 113.786 44.9531 113.703 45.0781C 113.536 45.3177 113.31 45.4375 113.023 45.4375C 112.831 45.4375 112.661 45.3776 112.516 45.2578C 112.37 45.138 112.276 44.9792 112.234 44.7812ZM 122.062 44.0156C 122.062 44.3177 121.956 44.5703 121.742 44.7734C 121.529 44.9766 121.234 45.0781 120.859 45.0781C 120.49 45.0781 120.198 44.9766 119.984 44.7734C 119.771 44.5651 119.664 44.3099 119.664 44.0078C 119.664 43.7109 119.768 43.4609 119.977 43.2578C 120.19 43.0495 120.484 42.9453 120.859 42.9453C 121.234 42.9453 121.529 43.0469 121.742 43.25C 121.956 43.4531 122.062 43.7083 122.062 44.0156ZM 119.586 47.6641L 121.625 47.6641L 119.367 51.3281C 119.221 51.5729 119.078 51.6953 118.938 51.6953C 118.807 51.6953 118.695 51.6562 118.602 51.5781C 118.513 51.5 118.469 51.4167 118.469 51.3281C 118.469 51.2604 118.487 51.1693 118.523 51.0547L 119.586 47.6641ZM 4.4375 64.1172C 4.25521 63.9036 4.1276 63.6979 4.05469 63.5C 3.98698 63.2969 3.95312 63.0208 3.95312 62.6719L 3.95312 60.125C 3.95312 59.9115 3.91146 59.7604 3.82812 59.6719C 3.75 59.5781 3.60156 59.5208 3.38281 59.5C 3.16406 59.4792 2.98438 59.3932 2.84375 59.2422C 2.70312 59.0911 2.63281 58.9089 2.63281 58.6953C 2.63281 58.4661 2.71094 58.2734 2.86719 58.1172C 3.02865 57.9609 3.23177 57.8828 3.47656 57.8828C 3.82552 57.8828 4.16146 57.9766 4.48438 58.1641C 4.80729 58.3464 5.08854 58.6458 5.32812 59.0625C 5.47917 59.3333 5.55469 59.6458 5.55469 60L 5.55469 62.6719C 5.55469 62.8958 5.59115 63.0521 5.66406 63.1406C 5.73698 63.224 5.89323 63.2786 6.13281 63.3047C 6.3724 63.3307 6.55469 63.4141 6.67969 63.5547C 6.8099 63.6953 6.875 63.8828 6.875 64.1172C 6.875 64.3464 6.8099 64.5312 6.67969 64.6719C 6.55469 64.8125 6.36979 64.8984 6.125 64.9297C 5.88542 64.9557 5.73958 65.0026 5.6875 65.0703C 5.59896 65.1745 5.55469 65.3359 5.55469 65.5547L 5.55469 68.375C 5.55469 68.9531 5.34635 69.4505 4.92969 69.8672C 4.51302 70.2891 4.03125 70.5 3.48438 70.5C 3.23438 70.5 3.02865 70.4219 2.86719 70.2656C 2.71094 70.1094 2.63281 69.9167 2.63281 69.6875C 2.63281 69.474 2.70312 69.2917 2.84375 69.1406C 2.98438 68.9896 3.16667 68.9036 3.39062 68.8828C 3.61458 68.862 3.75521 68.8151 3.8125 68.7422C 3.90625 68.6328 3.95312 68.4714 3.95312 68.2578L 3.95312 65.7109C 3.95312 65.263 3.98438 64.9401 4.04688 64.7422C 4.11458 64.5443 4.24479 64.3359 4.4375 64.1172ZM 9.40625 83.2656L 2.83594 83.2656C 2.90885 83.6771 3.1276 84.013 3.49219 84.2734C 3.85677 84.5286 4.40365 84.6562 5.13281 84.6562C 5.73698 84.6562 6.55729 84.5286 7.59375 84.2734C 8.02604 84.1693 8.32292 84.1172 8.48438 84.1172C 8.65625 84.1172 8.79948 84.1745 8.91406 84.2891C 9.02865 84.3984 9.08594 84.5443 9.08594 84.7266C 9.08594 84.9922 8.96615 85.2292 8.72656 85.4375C 8.49219 85.6406 7.9349 85.8281 7.05469 86C 6.17448 86.1719 5.38021 86.2578 4.67188 86.2578C 3.55729 86.2578 2.69531 85.9792 2.08594 85.4219C 1.48177 84.8594 1.17969 84.1432 1.17969 83.2734C 1.17969 82.5495 1.39844 81.8229 1.83594 81.0938C 2.27865 80.3646 2.90625 79.7839 3.71875 79.3516C 4.53646 78.9141 5.375 78.6953 6.23438 78.6953C 7.24479 78.6953 8.0625 78.974 8.6875 79.5312C 9.31771 80.0885 9.63281 80.8672 9.63281 81.8672C 9.63281 82.0807 9.60677 82.3203 9.55469 82.5859L 9.40625 83.2656ZM 7.96875 81.6641C 7.82812 81.2266 7.58333 80.8906 7.23438 80.6562C 6.88542 80.4167 6.4375 80.2969 5.89062 80.2969C 5.34375 80.2969 4.84896 80.4115 4.40625 80.6406C 3.96354 80.8646 3.57031 81.2057 3.22656 81.6641L 7.96875 81.6641ZM 17.3672 75.8672L 15.5547 84.3984L 17.4844 84.3984C 17.8385 84.3984 18.0781 84.4531 18.2031 84.5625C 18.3333 84.6719 18.3984 84.8281 18.3984 85.0312C 18.3984 85.3542 18.2422 85.6224 17.9297 85.8359C 17.7734 85.9453 17.5104 86 17.1406 86L 11.6875 86C 11.3333 86 11.0911 85.9453 10.9609 85.8359C 10.8359 85.7214 10.7734 85.5651 10.7734 85.3672C 10.7734 85.0443 10.9245 84.7786 11.2266 84.5703C 11.3932 84.4557 11.6615 84.3984 12.0312 84.3984L 13.9531 84.3984L 15.4297 77.4688L 14.1406 77.4688C 13.7865 77.4688 13.5443 77.4141 13.4141 77.3047C 13.2891 77.1901 13.2266 77.0339 13.2266 76.8359C 13.2266 76.5182 13.3776 76.2526 13.6797 76.0391C 13.8411 75.9245 14.1068 75.8672 14.4766 75.8672L 17.3672 75.8672ZM 26.8516 80.7812C 26.6276 80.6198 26.3802 80.5 26.1094 80.4219C 25.8438 80.3385 25.5521 80.2969 25.2344 80.2969C 24.724 80.2969 24.2891 80.3672 23.9297 80.5078C 23.5703 80.6432 23.3906 80.7812 23.3906 80.9219C 23.3906 81.0156 23.4505 81.1042 23.5703 81.1875C 23.7318 81.3021 24.112 81.401 24.7109 81.4844C 25.638 81.6146 26.3151 81.75 26.7422 81.8906C 27.1745 82.0312 27.5182 82.2578 27.7734 82.5703C 28.0286 82.8828 28.1562 83.2292 28.1562 83.6094C 28.1562 84.375 27.7448 85.0078 26.9219 85.5078C 26.099 86.0078 25.1432 86.2578 24.0547 86.2578C 23.5911 86.2578 23.1693 86.2161 22.7891 86.1328C 22.4089 86.0547 22.0729 85.9375 21.7812 85.7812C 21.5885 85.9219 21.4036 85.9922 21.2266 85.9922C 21.0234 85.9922 20.8594 85.9349 20.7344 85.8203C 20.6146 85.7005 20.5547 85.5599 20.5547 85.3984C 20.5547 85.2943 20.5781 85.1354 20.625 84.9219L 20.7422 84.3828C 20.8203 83.9922 20.9505 83.7161 21.1328 83.5547C 21.3203 83.3932 21.5339 83.3125 21.7734 83.3125C 21.9661 83.3125 22.1146 83.3672 22.2188 83.4766C 22.3229 83.5807 22.3854 83.763 22.4062 84.0234C 22.6042 84.2318 22.8646 84.3906 23.1875 84.5C 23.5104 84.6042 23.8958 84.6562 24.3438 84.6562C 25.1302 84.6562 25.75 84.5286 26.2031 84.2734C 26.4062 84.1589 26.5078 84.0286 26.5078 83.8828C 26.5078 83.6797 26.3828 83.5182 26.1328 83.3984C 25.8828 83.2839 25.3568 83.1823 24.5547 83.0938C 23.4036 82.9688 22.6484 82.7552 22.2891 82.4531C 21.9297 82.151 21.75 81.763 21.75 81.2891C 21.75 80.8776 21.8828 80.487 22.1484 80.1172C 22.4141 79.7474 22.8125 79.4349 23.3438 79.1797C 24.0312 78.8568 24.7708 78.6953 25.5625 78.6953C 25.9323 78.6953 26.2812 78.7318 26.6094 78.8047C 26.9375 78.8724 27.2422 78.9792 27.5234 79.125C 27.7474 78.9792 27.9323 78.9062 28.0781 78.9062C 28.2448 78.9062 28.388 78.9661 28.5078 79.0859C 28.6276 79.2005 28.6875 79.3359 28.6875 79.4922C 28.6875 79.6016 28.6667 79.763 28.625 79.9766L 28.5391 80.3672C 28.4557 80.7526 28.3203 81.0286 28.1328 81.1953C 27.9505 81.3568 27.7396 81.4375 27.5 81.4375C 27.3073 81.4375 27.151 81.3776 27.0312 81.2578C 26.9115 81.138 26.8516 80.9792 26.8516 80.7812ZM 38.2344 83.2656L 31.6641 83.2656C 31.737 83.6771 31.9557 84.013 32.3203 84.2734C 32.6849 84.5286 33.2318 84.6562 33.9609 84.6562C 34.5651 84.6562 35.3854 84.5286 36.4219 84.2734C 36.8542 84.1693 37.151 84.1172 37.3125 84.1172C 37.4844 84.1172 37.6276 84.1745 37.7422 84.2891C 37.8568 84.3984 37.9141 84.5443 37.9141 84.7266C 37.9141 84.9922 37.7943 85.2292 37.5547 85.4375C 37.3203 85.6406 36.763 85.8281 35.8828 86C 35.0026 86.1719 34.2083 86.2578 33.5 86.2578C 32.3854 86.2578 31.5234 85.9792 30.9141 85.4219C 30.3099 84.8594 30.0078 84.1432 30.0078 83.2734C 30.0078 82.5495 30.2266 81.8229 30.6641 81.0938C 31.1068 80.3646 31.7344 79.7839 32.5469 79.3516C 33.3646 78.9141 34.2031 78.6953 35.0625 78.6953C 36.0729 78.6953 36.8906 78.974 37.5156 79.5312C 38.1458 80.0885 38.4609 80.8672 38.4609 81.8672C 38.4609 82.0807 38.4349 82.3203 38.3828 82.5859L 38.2344 83.2656ZM 36.7969 81.6641C 36.6562 81.2266 36.4115 80.8906 36.0625 80.6562C 35.7135 80.4167 35.2656 80.2969 34.7188 80.2969C 34.1719 80.2969 33.6771 80.4115 33.2344 80.6406C 32.7917 80.8646 32.3984 81.2057 32.0547 81.6641L 36.7969 81.6641ZM 43.5625 82.1172C 43.75 82.3307 43.8776 82.5391 43.9453 82.7422C 44.013 82.9401 44.0469 83.263 44.0469 83.7109L 44.0469 86.2578C 44.0469 86.4714 44.0859 86.6224 44.1641 86.7109C 44.2474 86.8047 44.3984 86.8594 44.6172 86.875C 44.8359 86.8958 45.0156 86.9818 45.1562 87.1328C 45.2969 87.2839 45.3672 87.4688 45.3672 87.6875C 45.3672 87.9167 45.2865 88.1094 45.125 88.2656C 44.9688 88.4219 44.7682 88.5 44.5234 88.5C 44.1745 88.5 43.8385 88.4062 43.5156 88.2188C 43.1927 88.0365 42.9115 87.737 42.6719 87.3203C 42.5208 87.0495 42.4453 86.7344 42.4453 86.375L 42.4453 83.5547C 42.4453 83.3307 42.4089 83.1771 42.3359 83.0938C 42.263 83.0104 42.1068 82.9557 41.8672 82.9297C 41.6276 82.8984 41.4427 82.8125 41.3125 82.6719C 41.1875 82.5312 41.125 82.3464 41.125 82.1172C 41.125 81.8828 41.1875 81.6953 41.3125 81.5547C 41.4427 81.4141 41.6276 81.3307 41.8672 81.3047C 42.112 81.2734 42.2604 81.224 42.3125 81.1562C 42.401 81.0521 42.4453 80.8906 42.4453 80.6719L 42.4453 78C 42.4453 77.4271 42.6536 76.9323 43.0703 76.5156C 43.487 76.0938 43.9688 75.8828 44.5156 75.8828C 44.7656 75.8828 44.9688 75.9609 45.125 76.1172C 45.2865 76.2734 45.3672 76.4661 45.3672 76.6953C 45.3672 76.9089 45.2969 77.0911 45.1562 77.2422C 45.0156 77.3932 44.8333 77.4792 44.6094 77.5C 44.3854 77.5208 44.2448 77.5677 44.1875 77.6406C 44.0938 77.75 44.0469 77.9115 44.0469 78.125L 44.0469 80.6719C 44.0469 81.0312 44.0104 81.3099 43.9375 81.5078C 43.8698 81.7005 43.7448 81.9036 43.5625 82.1172ZM 46.9141 93.8672L 46.9141 102.398L 47.1875 102.398C 47.5677 102.398 47.8411 102.474 48.0078 102.625C 48.1745 102.771 48.2578 102.964 48.2578 103.203C 48.2578 103.438 48.1745 103.63 48.0078 103.781C 47.8464 103.927 47.5729 104 47.1875 104L 45.3125 104L 45.3125 103.609C 44.9479 103.823 44.5651 103.984 44.1641 104.094C 43.7682 104.203 43.3568 104.258 42.9297 104.258C 41.7266 104.258 40.7578 103.911 40.0234 103.219C 39.2891 102.521 38.9219 101.654 38.9219 100.617C 38.9219 99.5339 39.3073 98.6094 40.0781 97.8438C 40.849 97.0781 41.7891 96.6953 42.8984 96.6953C 43.3151 96.6953 43.724 96.7604 44.125 96.8906C 44.526 97.0156 44.9219 97.2057 45.3125 97.4609L 45.3125 95.4688L 45.0391 95.4688C 44.6536 95.4688 44.3776 95.3958 44.2109 95.25C 44.0495 95.099 43.9688 94.9062 43.9688 94.6719C 43.9688 94.4323 44.0495 94.2396 44.2109 94.0938C 44.3776 93.9427 44.6536 93.8672 45.0391 93.8672L 46.9141 93.8672ZM 45.3125 100.664C 45.3125 100.003 45.0807 99.4427 44.6172 98.9844C 44.1536 98.526 43.5859 98.2969 42.9141 98.2969C 42.2474 98.2969 41.6823 98.526 41.2188 98.9844C 40.7552 99.4427 40.5234 99.9948 40.5234 100.641C 40.5234 101.229 40.7318 101.714 41.1484 102.094C 41.5651 102.469 42.1536 102.656 42.9141 102.656C 43.6693 102.656 44.2578 102.469 44.6797 102.094C 45.1016 101.714 45.3125 101.237 45.3125 100.664ZM 57.0078 100.586C 57.0078 101.201 56.8359 101.797 56.4922 102.375C 56.1536 102.948 55.6458 103.406 54.9688 103.75C 54.2969 104.089 53.5938 104.258 52.8594 104.258C 52.1302 104.258 51.4323 104.091 50.7656 103.758C 50.099 103.419 49.5911 102.961 49.2422 102.383C 48.8932 101.805 48.7188 101.201 48.7188 100.57C 48.7188 99.9297 48.8958 99.3021 49.25 98.6875C 49.6042 98.0677 50.112 97.5807 50.7734 97.2266C 51.4401 96.8724 52.1354 96.6953 52.8594 96.6953C 53.5885 96.6953 54.2891 96.8776 54.9609 97.2422C 55.638 97.6016 56.1484 98.0885 56.4922 98.7031C 56.8359 99.3125 57.0078 99.9401 57.0078 100.586ZM 55.4062 100.594C 55.4062 100.078 55.2214 99.6042 54.8516 99.1719C 54.3464 98.5885 53.6823 98.2969 52.8594 98.2969C 52.1354 98.2969 51.5312 98.5286 51.0469 98.9922C 50.5625 99.4557 50.3203 99.9922 50.3203 100.602C 50.3203 101.102 50.5651 101.57 51.0547 102.008C 51.5443 102.44 52.1458 102.656 52.8594 102.656C 53.5781 102.656 54.1823 102.44 54.6719 102.008C 55.1615 101.57 55.4062 101.099 55.4062 100.594ZM 71.6719 98.5078L 71.6719 101.719C 71.6719 102.062 71.7422 102.289 71.8828 102.398C 72.1016 102.57 72.4922 102.656 73.0547 102.656C 73.8724 102.656 74.6276 102.482 75.3203 102.133C 75.5859 101.997 75.7943 101.93 75.9453 101.93C 76.1536 101.93 76.3333 102.008 76.4844 102.164C 76.6406 102.32 76.7188 102.51 76.7188 102.734C 76.7188 102.943 76.6354 103.122 76.4688 103.273C 76.2135 103.518 75.7083 103.745 74.9531 103.953C 74.2031 104.156 73.5703 104.258 73.0547 104.258C 72.0599 104.258 71.3125 104.044 70.8125 103.617C 70.3177 103.185 70.0703 102.656 70.0703 102.031L 70.0703 98.5078L 69.4922 98.5078C 69.1068 98.5078 68.8307 98.4349 68.6641 98.2891C 68.5026 98.138 68.4219 97.9427 68.4219 97.7031C 68.4219 97.4688 68.5026 97.2786 68.6641 97.1328C 68.8307 96.9818 69.1068 96.9062 69.4922 96.9062L 70.0703 96.9062L 70.0703 95.4609C 70.0703 95.0755 70.1432 94.8021 70.2891 94.6406C 70.4401 94.474 70.6354 94.3906 70.875 94.3906C 71.1094 94.3906 71.2995 94.474 71.4453 94.6406C 71.5964 94.8021 71.6719 95.0755 71.6719 95.4609L 71.6719 96.9062L 74.6328 96.9062C 75.0182 96.9062 75.2917 96.9818 75.4531 97.1328C 75.6198 97.2786 75.7031 97.4714 75.7031 97.7109C 75.7031 97.9453 75.6198 98.138 75.4531 98.2891C 75.2917 98.4349 75.0182 98.5078 74.6328 98.5078L 71.6719 98.5078ZM 80.0234 93.8672L 80.0234 97.2812C 80.3568 97.0833 80.6927 96.9375 81.0312 96.8438C 81.375 96.7448 81.7214 96.6953 82.0703 96.6953C 82.6224 96.6953 83.1146 96.7891 83.5469 96.9766C 83.9792 97.1641 84.3359 97.4609 84.6172 97.8672C 84.9036 98.2682 85.0469 98.776 85.0469 99.3906L 85.0469 102.398C 85.4531 102.398 85.7188 102.438 85.8438 102.516C 86.0938 102.677 86.2188 102.906 86.2188 103.203C 86.2188 103.438 86.138 103.63 85.9766 103.781C 85.8151 103.927 85.5417 104 85.1562 104L 83.3281 104C 82.9479 104 82.6745 103.927 82.5078 103.781C 82.3464 103.63 82.2656 103.435 82.2656 103.195C 82.2656 102.904 82.3906 102.677 82.6406 102.516C 82.7708 102.432 83.0365 102.393 83.4375 102.398L 83.4375 99.5C 83.4375 99.0885 83.3438 98.7995 83.1562 98.6328C 82.9115 98.4089 82.5495 98.2969 82.0703 98.2969C 81.7161 98.2969 81.401 98.3672 81.125 98.5078C 80.8542 98.6432 80.487 98.9401 80.0234 99.3984L 80.0234 102.398C 80.4349 102.398 80.7005 102.438 80.8203 102.516C 81.0755 102.677 81.2031 102.906 81.2031 103.203C 81.2031 103.438 81.1198 103.63 80.9531 103.781C 80.7917 103.927 80.5182 104 80.1328 104L 78.3125 104C 77.9271 104 77.651 103.927 77.4844 103.781C 77.3229 103.63 77.2422 103.435 77.2422 103.195C 77.2422 102.904 77.3698 102.677 77.625 102.516C 77.75 102.432 78.0156 102.393 78.4219 102.398L 78.4219 95.4688L 78.1484 95.4688C 77.763 95.4688 77.487 95.3958 77.3203 95.25C 77.1589 95.099 77.0781 94.9036 77.0781 94.6641C 77.0781 94.4297 77.1589 94.2396 77.3203 94.0938C 77.487 93.9427 77.763 93.8672 78.1484 93.8672L 80.0234 93.8672ZM 92.7266 104L 92.7266 103.625C 92.3255 103.839 91.8828 103.997 91.3984 104.102C 90.9141 104.211 90.474 104.266 90.0781 104.266C 89.2188 104.266 88.5208 104.039 87.9844 103.586C 87.4479 103.128 87.1797 102.622 87.1797 102.07C 87.1797 101.398 87.5208 100.776 88.2031 100.203C 88.8906 99.625 89.8385 99.3359 91.0469 99.3359C 91.5312 99.3359 92.0911 99.388 92.7266 99.4922L 92.7266 99.1094C 92.7266 98.8698 92.6224 98.6745 92.4141 98.5234C 92.2109 98.3724 91.8203 98.2969 91.2422 98.2969C 90.7682 98.2969 90.1536 98.3906 89.3984 98.5781C 89.1172 98.6458 88.8984 98.6797 88.7422 98.6797C 88.5286 98.6797 88.3464 98.6042 88.1953 98.4531C 88.0495 98.2969 87.9766 98.099 87.9766 97.8594C 87.9766 97.724 88.0026 97.6068 88.0547 97.5078C 88.1068 97.4089 88.1797 97.3307 88.2734 97.2734C 88.3672 97.2109 88.5625 97.138 88.8594 97.0547C 89.2552 96.9453 89.6589 96.8594 90.0703 96.7969C 90.4818 96.7292 90.8542 96.6953 91.1875 96.6953C 92.1823 96.6953 92.9531 96.9115 93.5 97.3438C 94.0521 97.7708 94.3281 98.3568 94.3281 99.1016L 94.3281 102.398L 94.6016 102.398C 94.987 102.398 95.2604 102.474 95.4219 102.625C 95.5885 102.771 95.6719 102.964 95.6719 103.203C 95.6719 103.438 95.5885 103.63 95.4219 103.781C 95.2604 103.927 94.987 104 94.6016 104L 92.7266 104ZM 92.7266 101.133C 92.0859 101.008 91.4948 100.945 90.9531 100.945C 90.3021 100.945 89.7422 101.104 89.2734 101.422C 88.9818 101.625 88.8359 101.831 88.8359 102.039C 88.8359 102.19 88.9062 102.312 89.0469 102.406C 89.3073 102.578 89.6641 102.664 90.1172 102.664C 90.5026 102.664 90.9375 102.589 91.4219 102.438C 91.9115 102.286 92.3464 102.081 92.7266 101.82L 92.7266 101.133ZM 100.5 98.5078L 100.5 101.719C 100.5 102.062 100.57 102.289 100.711 102.398C 100.93 102.57 101.32 102.656 101.883 102.656C 102.701 102.656 103.456 102.482 104.148 102.133C 104.414 101.997 104.622 101.93 104.773 101.93C 104.982 101.93 105.161 102.008 105.312 102.164C 105.469 102.32 105.547 102.51 105.547 102.734C 105.547 102.943 105.464 103.122 105.297 103.273C 105.042 103.518 104.536 103.745 103.781 103.953C 103.031 104.156 102.398 104.258 101.883 104.258C 100.888 104.258 100.141 104.044 99.6406 103.617C 99.1458 103.185 98.8984 102.656 98.8984 102.031L 98.8984 98.5078L 98.3203 98.5078C 97.9349 98.5078 97.6589 98.4349 97.4922 98.2891C 97.3307 98.138 97.25 97.9427 97.25 97.7031C 97.25 97.4688 97.3307 97.2786 97.4922 97.1328C 97.6589 96.9818 97.9349 96.9062 98.3203 96.9062L 98.8984 96.9062L 98.8984 95.4609C 98.8984 95.0755 98.9714 94.8021 99.1172 94.6406C 99.2682 94.474 99.4635 94.3906 99.7031 94.3906C 99.9375 94.3906 100.128 94.474 100.273 94.6406C 100.424 94.8021 100.5 95.0755 100.5 95.4609L 100.5 96.9062L 103.461 96.9062C 103.846 96.9062 104.12 96.9818 104.281 97.1328C 104.448 97.2786 104.531 97.4714 104.531 97.7109C 104.531 97.9453 104.448 98.138 104.281 98.2891C 104.12 98.4349 103.846 98.5078 103.461 98.5078L 100.5 98.5078ZM 112.453 98.0156C 112.453 98.3177 112.346 98.5703 112.133 98.7734C 111.919 98.9766 111.625 99.0781 111.25 99.0781C 110.88 99.0781 110.589 98.9766 110.375 98.7734C 110.161 98.5651 110.055 98.3099 110.055 98.0078C 110.055 97.7109 110.159 97.4609 110.367 97.2578C 110.581 97.0495 110.875 96.9453 111.25 96.9453C 111.625 96.9453 111.919 97.0469 112.133 97.25C 112.346 97.4531 112.453 97.7083 112.453 98.0156ZM 109.977 101.664L 112.016 101.664L 109.758 105.328C 109.612 105.573 109.469 105.695 109.328 105.695C 109.198 105.695 109.086 105.656 108.992 105.578C 108.904 105.5 108.859 105.417 108.859 105.328C 108.859 105.26 108.878 105.169 108.914 105.055L 109.977 101.664ZM 4.4375 118.117C 4.25521 117.904 4.1276 117.698 4.05469 117.5C 3.98698 117.297 3.95312 117.021 3.95312 116.672L 3.95312 114.125C 3.95312 113.911 3.91146 113.76 3.82812 113.672C 3.75 113.578 3.60156 113.521 3.38281 113.5C 3.16406 113.479 2.98438 113.393 2.84375 113.242C 2.70312 113.091 2.63281 112.909 2.63281 112.695C 2.63281 112.466 2.71094 112.273 2.86719 112.117C 3.02865 111.961 3.23177 111.883 3.47656 111.883C 3.82552 111.883 4.16146 111.977 4.48438 112.164C 4.80729 112.346 5.08854 112.646 5.32812 113.062C 5.47917 113.333 5.55469 113.646 5.55469 114L 5.55469 116.672C 5.55469 116.896 5.59115 117.052 5.66406 117.141C 5.73698 117.224 5.89323 117.279 6.13281 117.305C 6.3724 117.331 6.55469 117.414 6.67969 117.555C 6.8099 117.695 6.875 117.883 6.875 118.117C 6.875 118.346 6.8099 118.531 6.67969 118.672C 6.55469 118.812 6.36979 118.898 6.125 118.93C 5.88542 118.956 5.73958 119.003 5.6875 119.07C 5.59896 119.174 5.55469 119.336 5.55469 119.555L 5.55469 122.375C 5.55469 122.953 5.34635 123.451 4.92969 123.867C 4.51302 124.289 4.03125 124.5 3.48438 124.5C 3.23438 124.5 3.02865 124.422 2.86719 124.266C 2.71094 124.109 2.63281 123.917 2.63281 123.688C 2.63281 123.474 2.70312 123.292 2.84375 123.141C 2.98438 122.99 3.16667 122.904 3.39062 122.883C 3.61458 122.862 3.75521 122.815 3.8125 122.742C 3.90625 122.633 3.95312 122.471 3.95312 122.258L 3.95312 119.711C 3.95312 119.263 3.98438 118.94 4.04688 118.742C 4.11458 118.544 4.24479 118.336 4.4375 118.117Z"/>
<path id="path3_fill" d="M 6.31934 9.87207C 5.97363 9.8252 5.66895 9.80176 5.40527 9.80176C 4.44434 9.80176 3.81445 10.127 3.51562 10.7773L 3.51562 17L 0.975586 17L 0.975586 7.49023L 3.375 7.49023L 3.44531 8.62402C 3.95508 7.75098 4.66113 7.31445 5.56348 7.31445C 5.84473 7.31445 6.1084 7.35254 6.35449 7.42871L 6.31934 9.87207ZM 11.751 17.1758C 10.3564 17.1758 9.21973 16.748 8.34082 15.8926C 7.46777 15.0371 7.03125 13.8975 7.03125 12.4736L 7.03125 12.2275C 7.03125 11.2725 7.21582 10.4199 7.58496 9.66992C 7.9541 8.91406 8.47559 8.33398 9.14941 7.92969C 9.8291 7.51953 10.6025 7.31445 11.4697 7.31445C 12.7705 7.31445 13.793 7.72461 14.5371 8.54492C 15.2871 9.36523 15.6621 10.5283 15.6621 12.0342L 15.6621 13.0713L 9.60645 13.0713C 9.68848 13.6924 9.93457 14.1904 10.3447 14.5654C 10.7607 14.9404 11.2852 15.1279 11.918 15.1279C 12.8965 15.1279 13.6611 14.7734 14.2119 14.0645L 15.46 15.4619C 15.0791 16.001 14.5635 16.4229 13.9131 16.7275C 13.2627 17.0264 12.542 17.1758 11.751 17.1758ZM 11.4609 9.37109C 10.957 9.37109 10.5469 9.54102 10.2305 9.88086C 9.91992 10.2207 9.7207 10.707 9.63281 11.3398L 13.166 11.3398L 13.166 11.1377C 13.1543 10.5752 13.002 10.1416 12.709 9.83691C 12.416 9.52637 12 9.37109 11.4609 9.37109ZM 22.2627 14.3721C 22.2627 14.0615 22.1074 13.8184 21.7969 13.6426C 21.4922 13.4609 21 13.2998 20.3203 13.1592C 18.0586 12.6846 16.9277 11.7236 16.9277 10.2764C 16.9277 9.43262 17.2764 8.72949 17.9736 8.16699C 18.6768 7.59863 19.5938 7.31445 20.7246 7.31445C 21.9316 7.31445 22.8955 7.59863 23.6162 8.16699C 24.3428 8.73535 24.7061 9.47363 24.7061 10.3818L 22.166 10.3818C 22.166 10.0186 22.0488 9.71973 21.8145 9.48535C 21.5801 9.24512 21.2139 9.125 20.7158 9.125C 20.2881 9.125 19.957 9.22168 19.7227 9.41504C 19.4883 9.6084 19.3711 9.85449 19.3711 10.1533C 19.3711 10.4346 19.5029 10.6631 19.7666 10.8389C 20.0361 11.0088 20.4873 11.1582 21.1201 11.2871C 21.7529 11.4102 22.2861 11.5508 22.7197 11.709C 24.0615 12.2012 24.7324 13.0537 24.7324 14.2666C 24.7324 15.1338 24.3604 15.8369 23.6162 16.376C 22.8721 16.9092 21.9111 17.1758 20.7334 17.1758C 19.9365 17.1758 19.2275 17.0352 18.6064 16.7539C 17.9912 16.4668 17.5078 16.0771 17.1562 15.585C 16.8047 15.0869 16.6289 14.5508 16.6289 13.9766L 19.0371 13.9766C 19.0605 14.4277 19.2275 14.7734 19.5381 15.0137C 19.8486 15.2539 20.2646 15.374 20.7861 15.374C 21.2725 15.374 21.6387 15.2832 21.8848 15.1016C 22.1367 14.9141 22.2627 14.6709 22.2627 14.3721ZM 32.0713 16.0332C 31.4443 16.7949 30.5771 17.1758 29.4697 17.1758C 28.4502 17.1758 27.6709 16.8828 27.1318 16.2969C 26.5986 15.7109 26.3262 14.8525 26.3145 13.7217L 26.3145 7.49023L 28.8545 7.49023L 28.8545 13.6338C 28.8545 14.624 29.3057 15.1191 30.208 15.1191C 31.0693 15.1191 31.6611 14.8203 31.9834 14.2227L 31.9834 7.49023L 34.5322 7.49023L 34.5322 17L 32.1416 17L 32.0713 16.0332ZM 39.1289 17L 36.5801 17L 36.5801 3.5L 39.1289 3.5L 39.1289 17ZM 44.2705 5.15234L 44.2705 7.49023L 45.8965 7.49023L 45.8965 9.35352L 44.2705 9.35352L 44.2705 14.0996C 44.2705 14.4512 44.3379 14.7031 44.4727 14.8555C 44.6074 15.0078 44.8652 15.084 45.2461 15.084C 45.5273 15.084 45.7764 15.0635 45.9932 15.0225L 45.9932 16.9473C 45.4951 17.0996 44.9824 17.1758 44.4551 17.1758C 42.6738 17.1758 41.7656 16.2764 41.7305 14.4775L 41.7305 9.35352L 40.3418 9.35352L 40.3418 7.49023L 41.7305 7.49023L 41.7305 5.15234L 44.2705 5.15234Z"/>
<path id="path4_stroke" d="M 59.7427 1.06066C 60.3285 0.474874 60.3285 -0.474874 59.7427 -1.06066L 50.1967 -10.6066C 49.611 -11.1924 48.6612 -11.1924 48.0754 -10.6066C 47.4896 -10.0208 47.4896 -9.07107 48.0754 -8.48528L 56.5607 0L 48.0754 8.48528C 47.4896 9.07107 47.4896 10.0208 48.0754 10.6066C 48.6612 11.1924 49.611 11.1924 50.1967 10.6066L 59.7427 1.06066ZM 0 1.5L 58.682 1.5L 58.682 -1.5L 0 -1.5L 0 1.5Z"/>
</defs>
</svg>
