<svg width="212" height="151" viewBox="0 0 212 151" version="1.1" xmlns="http://www.w3.org/2000/svg" xmlns:xlink="http://www.w3.org/1999/xlink">
<title>Group 6</title>
<desc>Created using Figma</desc>
<g id="Canvas" transform="translate(158 -1323)">
<g id="Group 6">
<g id="Line">
<use xlink:href="#path0_stroke" transform="translate(-143.972 1364.35)" fill="#6FCF97"/>
</g>
<g id="Line">
<use xlink:href="#path1_stroke" transform="translate(-143.972 1380.35)" fill="#1CA6F0"/>
</g>
<g id="Vector">
<use xlink:href="#path2_stroke" transform="translate(-157.348 1323.14)"/>
</g>
<g id="time">
<use xlink:href="#path3_fill" transform="translate(18.7484 1458.59)"/>
</g>
<g id="desired result">
<use xlink:href="#path4_fill" transform="translate(-52.0511 1336.95)" fill="#6FCF97"/>
</g>
<g id="result">
<use xlink:href="#path5_fill" transform="translate(3.94885 1380.97)" fill="#1CA6F0"/>
</g>
</g>
</g>
<defs>
<path id="path0_stroke" d="M 0 -2.22045e-16L 5.27559 -2.22045e-16L 5.27559 -4L 0 -4L 0 -2.22045e-16ZM 15.8268 -2.22045e-16L 26.378 -2.22045e-16L 26.378 -4L 15.8268 -4L 15.8268 -2.22045e-16ZM 36.9291 -2.22045e-16L 47.4803 -2.22045e-16L 47.4803 -4L 36.9291 -4L 36.9291 -2.22045e-16ZM 58.0315 0L 68.5827 0L 68.5827 -4L 58.0315 -4L 58.0315 0ZM 79.1339 -2.22045e-16L 89.6851 -2.22045e-16L 89.6851 -4L 79.1339 -4L 79.1339 -2.22045e-16ZM 100.236 0L 110.787 0L 110.787 -4L 100.236 -4L 100.236 0ZM 121.339 -2.22045e-16L 131.89 -2.22045e-16L 131.89 -4L 121.339 -4L 121.339 -2.22045e-16ZM 142.441 -2.22045e-16L 152.992 -2.22045e-16L 152.992 -4L 142.441 -4L 142.441 -2.22045e-16ZM 163.543 -2.22045e-16L 174.095 -2.22045e-16L 174.095 -4L 163.543 -4L 163.543 -2.22045e-16ZM 184.646 -2.22045e-16L 189.921 -2.22045e-16L 189.921 -4L 184.646 -4L 184.646 -2.22045e-16Z"/>
<path id="path1_stroke" d="M 0 0L 189.921 0L 189.921 -4L 0 -4L 0 0Z"/>
<path id="path2_stroke" d="M 11.9913 0L 11.9913 150.621L 16.9913 150.621L 16.9913 0L 11.9913 0ZM 0 134.859L 210.472 134.859L 210.472 129.859L 0 129.859L 0 134.859Z"/>
<path id="path3_fill" d="M 3.57031 4.46875L 3.57031 6.54688L 5.01562 6.54688L 5.01562 8.20312L 3.57031 8.20312L 3.57031 12.4219C 3.57031 12.7344 3.63021 12.9583 3.75 13.0938C 3.86979 13.2292 4.09896 13.2969 4.4375 13.2969C 4.6875 13.2969 4.90885 13.2786 5.10156 13.2422L 5.10156 14.9531C 4.65885 15.0885 4.20312 15.1562 3.73438 15.1562C 2.15104 15.1562 1.34375 14.3568 1.3125 12.7578L 1.3125 8.20312L 0.078125 8.20312L 0.078125 6.54688L 1.3125 6.54688L 1.3125 4.46875L 3.57031 4.46875ZM 8.65625 15L 6.39062 15L 6.39062 6.54688L 8.65625 6.54688L 8.65625 15ZM 6.25781 4.35938C 6.25781 4.02083 6.36979 3.74219 6.59375 3.52344C 6.82292 3.30469 7.13281 3.19531 7.52344 3.19531C 7.90885 3.19531 8.21615 3.30469 8.44531 3.52344C 8.67448 3.74219 8.78906 4.02083 8.78906 4.35938C 8.78906 4.70312 8.67188 4.98438 8.4375 5.20312C 8.20833 5.42188 7.90365 5.53125 7.52344 5.53125C 7.14323 5.53125 6.83594 5.42188 6.60156 5.20312C 6.3724 4.98438 6.25781 4.70312 6.25781 4.35938ZM 12.6406 6.54688L 12.7109 7.49219C 13.3099 6.75781 14.1198 6.39062 15.1406 6.39062C 16.2292 6.39062 16.9766 6.82031 17.3828 7.67969C 17.9766 6.82031 18.8229 6.39062 19.9219 6.39062C 20.8385 6.39062 21.5208 6.65885 21.9688 7.19531C 22.4167 7.72656 22.6406 8.52865 22.6406 9.60156L 22.6406 15L 20.375 15L 20.375 9.60938C 20.375 9.13021 20.2812 8.78125 20.0938 8.5625C 19.9062 8.33854 19.5755 8.22656 19.1016 8.22656C 18.4245 8.22656 17.9557 8.54948 17.6953 9.19531L 17.7031 15L 15.4453 15L 15.4453 9.61719C 15.4453 9.1276 15.349 8.77344 15.1562 8.55469C 14.9635 8.33594 14.6354 8.22656 14.1719 8.22656C 13.5312 8.22656 13.0677 8.49219 12.7812 9.02344L 12.7812 15L 10.5234 15L 10.5234 6.54688L 12.6406 6.54688ZM 28.2734 15.1562C 27.0339 15.1562 26.0234 14.776 25.2422 14.0156C 24.4661 13.2552 24.0781 12.2422 24.0781 10.9766L 24.0781 10.7578C 24.0781 9.90885 24.2422 9.15104 24.5703 8.48438C 24.8984 7.8125 25.362 7.29688 25.9609 6.9375C 26.5651 6.57292 27.2526 6.39062 28.0234 6.39062C 29.1797 6.39062 30.0885 6.75521 30.75 7.48438C 31.4167 8.21354 31.75 9.2474 31.75 10.5859L 31.75 11.5078L 26.3672 11.5078C 26.4401 12.0599 26.6589 12.5026 27.0234 12.8359C 27.3932 13.1693 27.8594 13.3359 28.4219 13.3359C 29.2917 13.3359 29.9714 13.0208 30.4609 12.3906L 31.5703 13.6328C 31.2318 14.112 30.7734 14.487 30.1953 14.7578C 29.6172 15.0234 28.9766 15.1562 28.2734 15.1562ZM 28.0156 8.21875C 27.5677 8.21875 27.2031 8.36979 26.9219 8.67188C 26.6458 8.97396 26.4688 9.40625 26.3906 9.96875L 29.5312 9.96875L 29.5312 9.78906C 29.5208 9.28906 29.3854 8.90365 29.125 8.63281C 28.8646 8.35677 28.4948 8.21875 28.0156 8.21875Z"/>
<path id="path4_fill" d="M 0.828125 10.7109C 0.828125 9.39323 1.1224 8.34375 1.71094 7.5625C 2.30469 6.78125 3.11458 6.39062 4.14062 6.39062C 4.96354 6.39062 5.64323 6.69792 6.17969 7.3125L 6.17969 3L 8.44531 3L 8.44531 15L 6.40625 15L 6.29688 14.1016C 5.73438 14.8047 5.01042 15.1562 4.125 15.1562C 3.13021 15.1562 2.33073 14.7656 1.72656 13.9844C 1.1276 13.1979 0.828125 12.1068 0.828125 10.7109ZM 3.08594 10.875C 3.08594 11.6667 3.22396 12.2734 3.5 12.6953C 3.77604 13.1172 4.17708 13.3281 4.70312 13.3281C 5.40104 13.3281 5.89323 13.0339 6.17969 12.4453L 6.17969 9.10938C 5.89844 8.52083 5.41146 8.22656 4.71875 8.22656C 3.63021 8.22656 3.08594 9.10938 3.08594 10.875ZM 14.0859 15.1562C 12.8464 15.1562 11.8359 14.776 11.0547 14.0156C 10.2786 13.2552 9.89062 12.2422 9.89062 10.9766L 9.89062 10.7578C 9.89062 9.90885 10.0547 9.15104 10.3828 8.48438C 10.7109 7.8125 11.1745 7.29688 11.7734 6.9375C 12.3776 6.57292 13.0651 6.39062 13.8359 6.39062C 14.9922 6.39062 15.901 6.75521 16.5625 7.48438C 17.2292 8.21354 17.5625 9.2474 17.5625 10.5859L 17.5625 11.5078L 12.1797 11.5078C 12.2526 12.0599 12.4714 12.5026 12.8359 12.8359C 13.2057 13.1693 13.6719 13.3359 14.2344 13.3359C 15.1042 13.3359 15.7839 13.0208 16.2734 12.3906L 17.3828 13.6328C 17.0443 14.112 16.5859 14.487 16.0078 14.7578C 15.4297 15.0234 14.7891 15.1562 14.0859 15.1562ZM 13.8281 8.21875C 13.3802 8.21875 13.0156 8.36979 12.7344 8.67188C 12.4583 8.97396 12.2812 9.40625 12.2031 9.96875L 15.3438 9.96875L 15.3438 9.78906C 15.3333 9.28906 15.1979 8.90365 14.9375 8.63281C 14.6771 8.35677 14.3073 8.21875 13.8281 8.21875ZM 23.4297 12.6641C 23.4297 12.388 23.2917 12.1719 23.0156 12.0156C 22.7448 11.8542 22.3073 11.7109 21.7031 11.5859C 19.6927 11.1641 18.6875 10.3099 18.6875 9.02344C 18.6875 8.27344 18.9974 7.64844 19.6172 7.14844C 20.2422 6.64323 21.0573 6.39062 22.0625 6.39062C 23.1354 6.39062 23.9922 6.64323 24.6328 7.14844C 25.2786 7.65365 25.6016 8.3099 25.6016 9.11719L 23.3438 9.11719C 23.3438 8.79427 23.2396 8.52865 23.0312 8.32031C 22.8229 8.10677 22.4974 8 22.0547 8C 21.6745 8 21.3802 8.08594 21.1719 8.25781C 20.9635 8.42969 20.8594 8.64844 20.8594 8.91406C 20.8594 9.16406 20.9766 9.36719 21.2109 9.52344C 21.4505 9.67448 21.8516 9.80729 22.4141 9.92188C 22.9766 10.0312 23.4505 10.1562 23.8359 10.2969C 25.0286 10.7344 25.625 11.4922 25.625 12.5703C 25.625 13.3411 25.2943 13.9661 24.6328 14.4453C 23.9714 14.9193 23.1172 15.1562 22.0703 15.1562C 21.362 15.1562 20.7318 15.0312 20.1797 14.7812C 19.6328 14.526 19.2031 14.1797 18.8906 13.7422C 18.5781 13.2995 18.4219 12.8229 18.4219 12.3125L 20.5625 12.3125C 20.5833 12.7135 20.7318 13.0208 21.0078 13.2344C 21.2839 13.4479 21.6536 13.5547 22.1172 13.5547C 22.5495 13.5547 22.875 13.474 23.0938 13.3125C 23.3177 13.1458 23.4297 12.9297 23.4297 12.6641ZM 29.4688 15L 27.2031 15L 27.2031 6.54688L 29.4688 6.54688L 29.4688 15ZM 27.0703 4.35938C 27.0703 4.02083 27.1823 3.74219 27.4062 3.52344C 27.6354 3.30469 27.9453 3.19531 28.3359 3.19531C 28.7214 3.19531 29.0286 3.30469 29.2578 3.52344C 29.487 3.74219 29.6016 4.02083 29.6016 4.35938C 29.6016 4.70312 29.4844 4.98438 29.25 5.20312C 29.0208 5.42188 28.7161 5.53125 28.3359 5.53125C 27.9557 5.53125 27.6484 5.42188 27.4141 5.20312C 27.1849 4.98438 27.0703 4.70312 27.0703 4.35938ZM 36.0859 8.66406C 35.7786 8.6224 35.5078 8.60156 35.2734 8.60156C 34.4193 8.60156 33.8594 8.89062 33.5938 9.46875L 33.5938 15L 31.3359 15L 31.3359 6.54688L 33.4688 6.54688L 33.5312 7.55469C 33.9844 6.77865 34.612 6.39062 35.4141 6.39062C 35.6641 6.39062 35.8984 6.42448 36.1172 6.49219L 36.0859 8.66406ZM 40.9141 15.1562C 39.6745 15.1562 38.6641 14.776 37.8828 14.0156C 37.1068 13.2552 36.7188 12.2422 36.7188 10.9766L 36.7188 10.7578C 36.7188 9.90885 36.8828 9.15104 37.2109 8.48438C 37.5391 7.8125 38.0026 7.29688 38.6016 6.9375C 39.2057 6.57292 39.8932 6.39062 40.6641 6.39062C 41.8203 6.39062 42.7292 6.75521 43.3906 7.48438C 44.0573 8.21354 44.3906 9.2474 44.3906 10.5859L 44.3906 11.5078L 39.0078 11.5078C 39.0807 12.0599 39.2995 12.5026 39.6641 12.8359C 40.0339 13.1693 40.5 13.3359 41.0625 13.3359C 41.9323 13.3359 42.612 13.0208 43.1016 12.3906L 44.2109 13.6328C 43.8724 14.112 43.4141 14.487 42.8359 14.7578C 42.2578 15.0234 41.6172 15.1562 40.9141 15.1562ZM 40.6562 8.21875C 40.2083 8.21875 39.8438 8.36979 39.5625 8.67188C 39.2865 8.97396 39.1094 9.40625 39.0312 9.96875L 42.1719 9.96875L 42.1719 9.78906C 42.1615 9.28906 42.026 8.90365 41.7656 8.63281C 41.5052 8.35677 41.1354 8.21875 40.6562 8.21875ZM 45.3281 10.7109C 45.3281 9.39323 45.6224 8.34375 46.2109 7.5625C 46.8047 6.78125 47.6146 6.39062 48.6406 6.39062C 49.4635 6.39062 50.1432 6.69792 50.6797 7.3125L 50.6797 3L 52.9453 3L 52.9453 15L 50.9062 15L 50.7969 14.1016C 50.2344 14.8047 49.5104 15.1562 48.625 15.1562C 47.6302 15.1562 46.8307 14.7656 46.2266 13.9844C 45.6276 13.1979 45.3281 12.1068 45.3281 10.7109ZM 47.5859 10.875C 47.5859 11.6667 47.724 12.2734 48 12.6953C 48.276 13.1172 48.6771 13.3281 49.2031 13.3281C 49.901 13.3281 50.3932 13.0339 50.6797 12.4453L 50.6797 9.10938C 50.3984 8.52083 49.9115 8.22656 49.2188 8.22656C 48.1302 8.22656 47.5859 9.10938 47.5859 10.875ZM 63.4297 8.66406C 63.1224 8.6224 62.8516 8.60156 62.6172 8.60156C 61.763 8.60156 61.2031 8.89062 60.9375 9.46875L 60.9375 15L 58.6797 15L 58.6797 6.54688L 60.8125 6.54688L 60.875 7.55469C 61.3281 6.77865 61.9557 6.39062 62.7578 6.39062C 63.0078 6.39062 63.2422 6.42448 63.4609 6.49219L 63.4297 8.66406ZM 68.2578 15.1562C 67.0182 15.1562 66.0078 14.776 65.2266 14.0156C 64.4505 13.2552 64.0625 12.2422 64.0625 10.9766L 64.0625 10.7578C 64.0625 9.90885 64.2266 9.15104 64.5547 8.48438C 64.8828 7.8125 65.3464 7.29688 65.9453 6.9375C 66.5495 6.57292 67.237 6.39062 68.0078 6.39062C 69.1641 6.39062 70.0729 6.75521 70.7344 7.48438C 71.401 8.21354 71.7344 9.2474 71.7344 10.5859L 71.7344 11.5078L 66.3516 11.5078C 66.4245 12.0599 66.6432 12.5026 67.0078 12.8359C 67.3776 13.1693 67.8438 13.3359 68.4062 13.3359C 69.276 13.3359 69.9557 13.0208 70.4453 12.3906L 71.5547 13.6328C 71.2161 14.112 70.7578 14.487 70.1797 14.7578C 69.6016 15.0234 68.9609 15.1562 68.2578 15.1562ZM 68 8.21875C 67.5521 8.21875 67.1875 8.36979 66.9062 8.67188C 66.6302 8.97396 66.4531 9.40625 66.375 9.96875L 69.5156 9.96875L 69.5156 9.78906C 69.5052 9.28906 69.3698 8.90365 69.1094 8.63281C 68.849 8.35677 68.4792 8.21875 68 8.21875ZM 77.6016 12.6641C 77.6016 12.388 77.4635 12.1719 77.1875 12.0156C 76.9167 11.8542 76.4792 11.7109 75.875 11.5859C 73.8646 11.1641 72.8594 10.3099 72.8594 9.02344C 72.8594 8.27344 73.1693 7.64844 73.7891 7.14844C 74.4141 6.64323 75.2292 6.39062 76.2344 6.39062C 77.3073 6.39062 78.1641 6.64323 78.8047 7.14844C 79.4505 7.65365 79.7734 8.3099 79.7734 9.11719L 77.5156 9.11719C 77.5156 8.79427 77.4115 8.52865 77.2031 8.32031C 76.9948 8.10677 76.6693 8 76.2266 8C 75.8464 8 75.5521 8.08594 75.3438 8.25781C 75.1354 8.42969 75.0312 8.64844 75.0312 8.91406C 75.0312 9.16406 75.1484 9.36719 75.3828 9.52344C 75.6224 9.67448 76.0234 9.80729 76.5859 9.92188C 77.1484 10.0312 77.6224 10.1562 78.0078 10.2969C 79.2005 10.7344 79.7969 11.4922 79.7969 12.5703C 79.7969 13.3411 79.4661 13.9661 78.8047 14.4453C 78.1432 14.9193 77.2891 15.1562 76.2422 15.1562C 75.5339 15.1562 74.9036 15.0312 74.3516 14.7812C 73.8047 14.526 73.375 14.1797 73.0625 13.7422C 72.75 13.2995 72.5938 12.8229 72.5938 12.3125L 74.7344 12.3125C 74.7552 12.7135 74.9036 13.0208 75.1797 13.2344C 75.4557 13.4479 75.8255 13.5547 76.2891 13.5547C 76.7214 13.5547 77.0469 13.474 77.2656 13.3125C 77.4896 13.1458 77.6016 12.9297 77.6016 12.6641ZM 86.3203 14.1406C 85.763 14.8177 84.9922 15.1562 84.0078 15.1562C 83.1016 15.1562 82.4089 14.8958 81.9297 14.375C 81.4557 13.8542 81.2135 13.0911 81.2031 12.0859L 81.2031 6.54688L 83.4609 6.54688L 83.4609 12.0078C 83.4609 12.888 83.862 13.3281 84.6641 13.3281C 85.4297 13.3281 85.9557 13.0625 86.2422 12.5312L 86.2422 6.54688L 88.5078 6.54688L 88.5078 15L 86.3828 15L 86.3203 14.1406ZM 92.5938 15L 90.3281 15L 90.3281 3L 92.5938 3L 92.5938 15ZM 97.1641 4.46875L 97.1641 6.54688L 98.6094 6.54688L 98.6094 8.20312L 97.1641 8.20312L 97.1641 12.4219C 97.1641 12.7344 97.224 12.9583 97.3438 13.0938C 97.4635 13.2292 97.6927 13.2969 98.0312 13.2969C 98.2812 13.2969 98.5026 13.2786 98.6953 13.2422L 98.6953 14.9531C 98.2526 15.0885 97.7969 15.1562 97.3281 15.1562C 95.7448 15.1562 94.9375 14.3568 94.9062 12.7578L 94.9062 8.20312L 93.6719 8.20312L 93.6719 6.54688L 94.9062 6.54688L 94.9062 4.46875L 97.1641 4.46875Z"/>
<path id="path5_fill" d="M 6.42969 8.66406C 6.1224 8.6224 5.85156 8.60156 5.61719 8.60156C 4.76302 8.60156 4.20312 8.89062 3.9375 9.46875L 3.9375 15L 1.67969 15L 1.67969 6.54688L 3.8125 6.54688L 3.875 7.55469C 4.32812 6.77865 4.95573 6.39062 5.75781 6.39062C 6.00781 6.39062 6.24219 6.42448 6.46094 6.49219L 6.42969 8.66406ZM 11.2578 15.1562C 10.0182 15.1562 9.00781 14.776 8.22656 14.0156C 7.45052 13.2552 7.0625 12.2422 7.0625 10.9766L 7.0625 10.7578C 7.0625 9.90885 7.22656 9.15104 7.55469 8.48438C 7.88281 7.8125 8.34635 7.29688 8.94531 6.9375C 9.54948 6.57292 10.237 6.39062 11.0078 6.39062C 12.1641 6.39062 13.0729 6.75521 13.7344 7.48438C 14.401 8.21354 14.7344 9.2474 14.7344 10.5859L 14.7344 11.5078L 9.35156 11.5078C 9.42448 12.0599 9.64323 12.5026 10.0078 12.8359C 10.3776 13.1693 10.8438 13.3359 11.4062 13.3359C 12.276 13.3359 12.9557 13.0208 13.4453 12.3906L 14.5547 13.6328C 14.2161 14.112 13.7578 14.487 13.1797 14.7578C 12.6016 15.0234 11.9609 15.1562 11.2578 15.1562ZM 11 8.21875C 10.5521 8.21875 10.1875 8.36979 9.90625 8.67188C 9.63021 8.97396 9.45312 9.40625 9.375 9.96875L 12.5156 9.96875L 12.5156 9.78906C 12.5052 9.28906 12.3698 8.90365 12.1094 8.63281C 11.849 8.35677 11.4792 8.21875 11 8.21875ZM 20.6016 12.6641C 20.6016 12.388 20.4635 12.1719 20.1875 12.0156C 19.9167 11.8542 19.4792 11.7109 18.875 11.5859C 16.8646 11.1641 15.8594 10.3099 15.8594 9.02344C 15.8594 8.27344 16.1693 7.64844 16.7891 7.14844C 17.4141 6.64323 18.2292 6.39062 19.2344 6.39062C 20.3073 6.39062 21.1641 6.64323 21.8047 7.14844C 22.4505 7.65365 22.7734 8.3099 22.7734 9.11719L 20.5156 9.11719C 20.5156 8.79427 20.4115 8.52865 20.2031 8.32031C 19.9948 8.10677 19.6693 8 19.2266 8C 18.8464 8 18.5521 8.08594 18.3438 8.25781C 18.1354 8.42969 18.0312 8.64844 18.0312 8.91406C 18.0312 9.16406 18.1484 9.36719 18.3828 9.52344C 18.6224 9.67448 19.0234 9.80729 19.5859 9.92188C 20.1484 10.0312 20.6224 10.1562 21.0078 10.2969C 22.2005 10.7344 22.7969 11.4922 22.7969 12.5703C 22.7969 13.3411 22.4661 13.9661 21.8047 14.4453C 21.1432 14.9193 20.2891 15.1562 19.2422 15.1562C 18.5339 15.1562 17.9036 15.0312 17.3516 14.7812C 16.8047 14.526 16.375 14.1797 16.0625 13.7422C 15.75 13.2995 15.5938 12.8229 15.5938 12.3125L 17.7344 12.3125C 17.7552 12.7135 17.9036 13.0208 18.1797 13.2344C 18.4557 13.4479 18.8255 13.5547 19.2891 13.5547C 19.7214 13.5547 20.0469 13.474 20.2656 13.3125C 20.4896 13.1458 20.6016 12.9297 20.6016 12.6641ZM 29.3203 14.1406C 28.763 14.8177 27.9922 15.1562 27.0078 15.1562C 26.1016 15.1562 25.4089 14.8958 24.9297 14.375C 24.4557 13.8542 24.2135 13.0911 24.2031 12.0859L 24.2031 6.54688L 26.4609 6.54688L 26.4609 12.0078C 26.4609 12.888 26.862 13.3281 27.6641 13.3281C 28.4297 13.3281 28.9557 13.0625 29.2422 12.5312L 29.2422 6.54688L 31.5078 6.54688L 31.5078 15L 29.3828 15L 29.3203 14.1406ZM 35.5938 15L 33.3281 15L 33.3281 3L 35.5938 3L 35.5938 15ZM 40.1641 4.46875L 40.1641 6.54688L 41.6094 6.54688L 41.6094 8.20312L 40.1641 8.20312L 40.1641 12.4219C 40.1641 12.7344 40.224 12.9583 40.3438 13.0938C 40.4635 13.2292 40.6927 13.2969 41.0312 13.2969C 41.2812 13.2969 41.5026 13.2786 41.6953 13.2422L 41.6953 14.9531C 41.2526 15.0885 40.7969 15.1562 40.3281 15.1562C 38.7448 15.1562 37.9375 14.3568 37.9062 12.7578L 37.9062 8.20312L 36.6719 8.20312L 36.6719 6.54688L 37.9062 6.54688L 37.9062 4.46875L 40.1641 4.46875Z"/>
</defs>
</svg>
