<svg width="994" height="413" viewBox="0 0 994 413" version="1.1" xmlns="http://www.w3.org/2000/svg" xmlns:xlink="http://www.w3.org/1999/xlink">
<title>Group 3</title>
<desc>Created using Figma</desc>
<g id="Canvas" transform="translate(251 -1866)">
<g id="Group 3">
<g id="Group 3">
<g id="Line (Stroke)">
<use xlink:href="#path0_fill" transform="matrix(0.98526 -0.171065 0.155562 0.987826 5.31474 2132.12)"/>
</g>
<g id="Line 2 (Stroke)">
<use xlink:href="#path1_fill" transform="matrix(0.840572 -0.5417 0.504631 0.863335 4.93695 2132.27)"/>
</g>
<g id="Line 3 (Stroke)">
<use xlink:href="#path2_fill" transform="matrix(0.671733 -0.740793 0.707198 0.707016 4.23342 2131.41)"/>
</g>
<g id="Line 4 (Stroke)">
<use xlink:href="#path3_fill" transform="matrix(0.527679 -0.849444 0.825044 0.565069 5.59169 2133.64)"/>
</g>
<g id="Line 5 (Stroke)">
<use xlink:href="#path4_fill" transform="matrix(0.999993 -0.00366622 0.00332529 0.999995 131.046 2110.39)"/>
</g>
<g id="Line 6 (Stroke)">
<use xlink:href="#path5_fill" transform="matrix(0.771463 -0.636274 0.599009 0.800743 131.878 2111.66)"/>
</g>
<g id="Line 7 (Stroke)">
<use xlink:href="#path6_fill" transform="matrix(0.529965 -0.848019 0.823458 0.567378 131.157 2110.37)"/>
</g>
<g id="Line 8 (Stroke)">
<use xlink:href="#path7_fill" transform="matrix(0.385829 -0.92257 0.908115 0.418722 130.581 2110.53)"/>
</g>
<g id="Line 9 (Stroke)">
<use xlink:href="#path8_fill" transform="matrix(0.780495 0.625161 -0.58776 0.809035 132.178 2050.64)"/>
</g>
<g id="Line 10 (Stroke)">
<use xlink:href="#path9_fill" transform="matrix(0.999981 0.00616828 -0.0055947 0.999984 131.548 2049.9)"/>
</g>
<g id="Line 11 (Stroke)">
<use xlink:href="#path10_fill" transform="matrix(0.771703 -0.635982 0.598713 0.800964 132.863 2051.17)"/>
</g>
<g id="Line 12 (Stroke)">
<use xlink:href="#path11_fill" transform="matrix(0.535247 -0.844696 0.819762 0.572704 130.668 2049.87)"/>
</g>
<g id="Line 5.1 (Stroke)">
<use xlink:href="#path4_fill" transform="matrix(0.999993 -0.00366622 0.00332529 0.999995 205.319 2109.61)"/>
</g>
<g id="Line 6.1 (Stroke)">
<use xlink:href="#path5_fill" transform="matrix(0.771463 -0.636274 0.599009 0.800743 206.151 2110.88)"/>
</g>
<g id="Line 7.1 (Stroke)">
<use xlink:href="#path6_fill" transform="matrix(0.529965 -0.848019 0.823458 0.567378 205.43 2109.6)"/>
</g>
<g id="Line 8.1 (Stroke)">
<use xlink:href="#path7_fill" transform="matrix(0.385829 -0.92257 0.908115 0.418722 204.854 2109.76)"/>
</g>
<g id="Line 9.1 (Stroke)">
<use xlink:href="#path8_fill" transform="matrix(0.780495 0.625161 -0.58776 0.809035 206.452 2049.86)"/>
</g>
<g id="Line 10.1 (Stroke)">
<use xlink:href="#path9_fill" transform="matrix(0.999981 0.00616828 -0.0055947 0.999984 205.821 2049.12)"/>
</g>
<g id="Line 11.1 (Stroke)">
<use xlink:href="#path10_fill" transform="matrix(0.771703 -0.635982 0.598713 0.800964 207.137 2050.39)"/>
</g>
<g id="Line 12.1 (Stroke)">
<use xlink:href="#path11_fill" transform="matrix(0.535247 -0.844696 0.819762 0.572704 204.941 2049.1)"/>
</g>
<g id="Line 5.2 (Stroke)">
<use xlink:href="#path4_fill" transform="matrix(0.999993 -0.00366622 0.00332529 0.999995 279.592 2108.84)"/>
</g>
<g id="Line 6.2 (Stroke)">
<use xlink:href="#path5_fill" transform="matrix(0.771463 -0.636274 0.599009 0.800743 280.425 2110.11)"/>
</g>
<g id="Line 7.2 (Stroke)">
<use xlink:href="#path6_fill" transform="matrix(0.529965 -0.848019 0.823458 0.567378 279.703 2108.82)"/>
</g>
<g id="Line 8.2 (Stroke)">
<use xlink:href="#path7_fill" transform="matrix(0.385829 -0.92257 0.908115 0.418722 279.127 2108.98)"/>
</g>
<g id="Line 9.2 (Stroke)">
<use xlink:href="#path8_fill" transform="matrix(0.780495 0.625161 -0.58776 0.809035 280.725 2049.09)"/>
</g>
<g id="Line 10.2 (Stroke)">
<use xlink:href="#path9_fill" transform="matrix(0.999981 0.00616828 -0.0055947 0.999984 280.094 2048.35)"/>
</g>
<g id="Line 11.2 (Stroke)">
<use xlink:href="#path10_fill" transform="matrix(0.771703 -0.635982 0.598713 0.800964 281.41 2049.62)"/>
</g>
<g id="Line 12.2 (Stroke)">
<use xlink:href="#path11_fill" transform="matrix(0.535247 -0.844696 0.819762 0.572704 279.214 2048.32)"/>
</g>
<g id="Line 13 (Stroke)">
<use xlink:href="#path12_fill" transform="matrix(0.757047 -0.653361 0.616393 0.787439 354.428 2109.09)"/>
</g>
<g id="Line 14 (Stroke)">
<use xlink:href="#path13_fill" transform="matrix(0.955599 -0.294672 0.269352 0.963042 354.798 2048.91)"/>
</g>
</g>
<g id="Group 3.1">
<g id="Line (Stroke)">
<use xlink:href="#path0_fill" transform="matrix(0.98526 0.171065 0.155562 -0.987826 5.31474 1911.56)"/>
</g>
<g id="Line 2 (Stroke)">
<use xlink:href="#path1_fill" transform="matrix(0.840572 0.5417 0.504631 -0.863335 4.93695 1911.41)"/>
</g>
<g id="Line 3 (Stroke)">
<use xlink:href="#path2_fill" transform="matrix(0.671733 0.740793 0.707198 -0.707016 4.23342 1912.27)"/>
</g>
<g id="Line 4 (Stroke)">
<use xlink:href="#path3_fill" transform="matrix(0.527679 0.849444 0.825044 -0.565069 5.59169 1910.04)"/>
</g>
<g id="Line 5 (Stroke)">
<use xlink:href="#path4_fill" transform="matrix(0.999993 0.00366622 0.00332529 -0.999995 131.046 1933.29)"/>
</g>
<g id="Line 6 (Stroke)">
<use xlink:href="#path5_fill" transform="matrix(0.771463 0.636274 0.599009 -0.800743 131.878 1932.02)"/>
</g>
<g id="Line 7 (Stroke)">
<use xlink:href="#path6_fill" transform="matrix(0.529965 0.848019 0.823458 -0.567378 131.157 1933.31)"/>
</g>
<g id="Line 8 (Stroke)">
<use xlink:href="#path7_fill" transform="matrix(0.385829 0.92257 0.908115 -0.418722 130.581 1933.15)"/>
</g>
<g id="Line 9 (Stroke)">
<use xlink:href="#path8_fill" transform="matrix(0.780495 -0.625161 -0.58776 -0.809035 132.178 1993.04)"/>
</g>
<g id="Line 10 (Stroke)">
<use xlink:href="#path9_fill" transform="matrix(0.999981 -0.00616828 -0.0055947 -0.999984 131.548 1993.79)"/>
</g>
<g id="Line 11 (Stroke)">
<use xlink:href="#path10_fill" transform="matrix(0.771703 0.635982 0.598713 -0.800964 132.863 1992.52)"/>
</g>
<g id="Line 12 (Stroke)">
<use xlink:href="#path11_fill" transform="matrix(0.535247 0.844696 0.819762 -0.572704 130.668 1993.81)"/>
</g>
<g id="Line 5.1 (Stroke)">
<use xlink:href="#path4_fill" transform="matrix(0.999993 0.00366622 0.00332529 -0.999995 205.319 1934.07)"/>
</g>
<g id="Line 6.1 (Stroke)">
<use xlink:href="#path5_fill" transform="matrix(0.771463 0.636274 0.599009 -0.800743 206.151 1932.8)"/>
</g>
<g id="Line 7.1 (Stroke)">
<use xlink:href="#path6_fill" transform="matrix(0.529965 0.848019 0.823458 -0.567378 205.43 1934.09)"/>
</g>
<g id="Line 8.1 (Stroke)">
<use xlink:href="#path7_fill" transform="matrix(0.385829 0.92257 0.908115 -0.418722 204.854 1933.93)"/>
</g>
<g id="Line 9.1 (Stroke)">
<use xlink:href="#path8_fill" transform="matrix(0.780495 -0.625161 -0.58776 -0.809035 206.452 1993.82)"/>
</g>
<g id="Line 10.1 (Stroke)">
<use xlink:href="#path9_fill" transform="matrix(0.999981 -0.00616828 -0.0055947 -0.999984 205.821 1994.56)"/>
</g>
<g id="Line 11.1 (Stroke)">
<use xlink:href="#path10_fill" transform="matrix(0.771703 0.635982 0.598713 -0.800964 207.137 1993.29)"/>
</g>
<g id="Line 12.1 (Stroke)">
<use xlink:href="#path11_fill" transform="matrix(0.535247 0.844696 0.819762 -0.572704 204.941 1994.59)"/>
</g>
<g id="Line 5.2 (Stroke)">
<use xlink:href="#path4_fill" transform="matrix(0.999993 0.00366622 0.00332529 -0.999995 279.592 1934.84)"/>
</g>
<g id="Line 6.2 (Stroke)">
<use xlink:href="#path5_fill" transform="matrix(0.771463 0.636274 0.599009 -0.800743 280.425 1933.57)"/>
</g>
<g id="Line 7.2 (Stroke)">
<use xlink:href="#path6_fill" transform="matrix(0.529965 0.848019 0.823458 -0.567378 279.703 1934.86)"/>
</g>
<g id="Line 8.2 (Stroke)">
<use xlink:href="#path7_fill" transform="matrix(0.385829 0.92257 0.908115 -0.418722 279.127 1934.7)"/>
</g>
<g id="Line 9.2 (Stroke)">
<use xlink:href="#path8_fill" transform="matrix(0.780495 -0.625161 -0.58776 -0.809035 280.725 1994.59)"/>
</g>
<g id="Line 10.2 (Stroke)">
<use xlink:href="#path9_fill" transform="matrix(0.999981 -0.00616828 -0.0055947 -0.999984 280.094 1995.34)"/>
</g>
<g id="Line 11.2 (Stroke)">
<use xlink:href="#path10_fill" transform="matrix(0.771703 0.635982 0.598713 -0.800964 281.41 1994.07)"/>
</g>
<g id="Line 12.2 (Stroke)">
<use xlink:href="#path11_fill" transform="matrix(0.535247 0.844696 0.819762 -0.572704 279.214 1995.36)"/>
</g>
<g id="Line 13 (Stroke)">
<use xlink:href="#path12_fill" transform="matrix(0.757047 0.653361 0.616393 -0.787439 354.428 1934.59)"/>
</g>
<g id="Line 14 (Stroke)">
<use xlink:href="#path13_fill" transform="matrix(0.955599 0.294672 0.269352 -0.963042 354.798 1994.77)"/>
</g>
</g>
<g id="Hours of sleep">
<use xlink:href="#path14_fill" transform="translate(-250.251 1898.28)"/>
<use xlink:href="#path15_fill" transform="translate(-250.251 1898.28)"/>
<use xlink:href="#path16_fill" transform="translate(-250.251 1898.28)"/>
<use xlink:href="#path17_fill" transform="translate(-250.251 1898.28)"/>
<use xlink:href="#path18_fill" transform="translate(-250.251 1898.28)"/>
<use xlink:href="#path19_fill" transform="translate(-250.251 1898.28)"/>
<use xlink:href="#path20_fill" transform="translate(-250.251 1898.28)"/>
<use xlink:href="#path21_fill" transform="translate(-250.251 1898.28)"/>
<use xlink:href="#path22_fill" transform="translate(-250.251 1898.28)"/>
<use xlink:href="#path23_fill" transform="translate(-250.251 1898.28)"/>
<use xlink:href="#path24_fill" transform="translate(-250.251 1898.28)"/>
<use xlink:href="#path25_fill" transform="translate(-250.251 1898.28)"/>
</g>
<g id="Hours of study">
<use xlink:href="#path26_fill" transform="translate(-250.251 2128.2)"/>
<use xlink:href="#path27_fill" transform="translate(-250.251 2128.2)"/>
<use xlink:href="#path28_fill" transform="translate(-250.251 2128.2)"/>
<use xlink:href="#path29_fill" transform="translate(-250.251 2128.2)"/>
<use xlink:href="#path30_fill" transform="translate(-250.251 2128.2)"/>
<use xlink:href="#path31_fill" transform="translate(-250.251 2128.2)"/>
<use xlink:href="#path32_fill" transform="translate(-250.251 2128.2)"/>
<use xlink:href="#path33_fill" transform="translate(-250.251 2128.2)"/>
<use xlink:href="#path34_fill" transform="translate(-250.251 2128.2)"/>
<use xlink:href="#path35_fill" transform="translate(-250.251 2128.2)"/>
<use xlink:href="#path36_fill" transform="translate(-250.251 2128.2)"/>
<use xlink:href="#path37_fill" transform="translate(-250.251 2128.2)"/>
</g>
<g id="Predicted score">
<use xlink:href="#path38_fill" transform="translate(565.575 2004.78)"/>
<use xlink:href="#path39_fill" transform="translate(565.575 2004.78)"/>
<use xlink:href="#path40_fill" transform="translate(565.575 2004.78)"/>
<use xlink:href="#path41_fill" transform="translate(565.575 2004.78)"/>
<use xlink:href="#path42_fill" transform="translate(565.575 2004.78)"/>
<use xlink:href="#path43_fill" transform="translate(565.575 2004.78)"/>
<use xlink:href="#path44_fill" transform="translate(565.575 2004.78)"/>
<use xlink:href="#path45_fill" transform="translate(565.575 2004.78)"/>
<use xlink:href="#path46_fill" transform="translate(565.575 2004.78)"/>
<use xlink:href="#path47_fill" transform="translate(565.575 2004.78)"/>
<use xlink:href="#path48_fill" transform="translate(565.575 2004.78)"/>
<use xlink:href="#path49_fill" transform="translate(565.575 2004.78)"/>
<use xlink:href="#path50_fill" transform="translate(565.575 2004.78)"/>
<use xlink:href="#path51_fill" transform="translate(565.575 2004.78)"/>
</g>
<g id="Arrow 3 (Stroke)">
<use xlink:href="#path52_fill" transform="matrix(0.999985 -0.00552674 0.00501281 0.999987 -70.1689 1899.4)"/>
</g>
<g id="Arrow 3.1 (Stroke)">
<use xlink:href="#path52_fill" transform="matrix(0.999985 -0.00552674 0.00501281 0.999987 -70.1689 2133.04)"/>
</g>
<g id="Arrow 3.2 (Stroke)">
<use xlink:href="#path52_fill" transform="matrix(0.999985 -0.00552674 0.00501281 0.999987 526.641 2008.51)"/>
</g>
<g id="Ellipse">
<use xlink:href="#path53_fill" transform="translate(-33.6219 1866.9)" fill="#FC0303"/>
</g>
<g id="Ellipse">
<use xlink:href="#path54_fill" transform="translate(-33.6219 2089.07)" fill="#FC0303"/>
</g>
<g id="Ellipse">
<use xlink:href="#path55_fill" transform="translate(114.062 1913.32)" fill="#1CA6F0"/>
</g>
<g id="Ellipse">
<use xlink:href="#path55_fill" transform="translate(114.062 1972.96)" fill="#1CA6F0"/>
</g>
<g id="Ellipse">
<use xlink:href="#path55_fill" transform="translate(114.062 2032.59)" fill="#1CA6F0"/>
</g>
<g id="Ellipse">
<use xlink:href="#path55_fill" transform="translate(114.062 2092.23)" fill="#1CA6F0"/>
</g>
<g id="Ellipse">
<use xlink:href="#path55_fill" transform="translate(188.335 1913.32)" fill="#1CA6F0"/>
</g>
<g id="Ellipse">
<use xlink:href="#path55_fill" transform="translate(188.335 1972.96)" fill="#1CA6F0"/>
</g>
<g id="Ellipse">
<use xlink:href="#path55_fill" transform="translate(188.335 2032.59)" fill="#1CA6F0"/>
</g>
<g id="Ellipse">
<use xlink:href="#path55_fill" transform="translate(188.335 2092.23)" fill="#1CA6F0"/>
</g>
<g id="Ellipse">
<use xlink:href="#path55_fill" transform="translate(262.608 1913.32)" fill="#1CA6F0"/>
</g>
<g id="Ellipse">
<use xlink:href="#path55_fill" transform="translate(262.608 1972.96)" fill="#1CA6F0"/>
</g>
<g id="Ellipse">
<use xlink:href="#path55_fill" transform="translate(262.608 2032.59)" fill="#1CA6F0"/>
</g>
<g id="Ellipse">
<use xlink:href="#path55_fill" transform="translate(262.608 2092.23)" fill="#1CA6F0"/>
</g>
<g id="Ellipse">
<use xlink:href="#path55_fill" transform="translate(336.881 1913.32)" fill="#1CA6F0"/>
</g>
<g id="Ellipse">
<use xlink:href="#path55_fill" transform="translate(336.881 1972.96)" fill="#1CA6F0"/>
</g>
<g id="Ellipse">
<use xlink:href="#path55_fill" transform="translate(336.881 2032.59)" fill="#1CA6F0"/>
</g>
<g id="Ellipse">
<use xlink:href="#path55_fill" transform="translate(336.881 2092.23)" fill="#1CA6F0"/>
</g>
<g id="Ellipse">
<use xlink:href="#path54_fill" transform="translate(421.753 1972.96)" fill="#219653"/>
</g>
<g id="INPUT LAYER">
<use xlink:href="#path56_fill" transform="translate(-37.386 2202.29)" fill="#FF0000"/>
<use xlink:href="#path57_fill" transform="translate(-37.386 2202.29)" fill="#FF0000"/>
<use xlink:href="#path58_fill" transform="translate(-37.386 2202.29)" fill="#FF0000"/>
<use xlink:href="#path59_fill" transform="translate(-37.386 2202.29)" fill="#FF0000"/>
<use xlink:href="#path60_fill" transform="translate(-37.386 2202.29)" fill="#FF0000"/>
<use xlink:href="#path61_fill" transform="translate(-37.386 2202.29)" fill="#FF0000"/>
<use xlink:href="#path62_fill" transform="translate(-37.386 2202.29)" fill="#FF0000"/>
<use xlink:href="#path63_fill" transform="translate(-37.386 2202.29)" fill="#FF0000"/>
<use xlink:href="#path64_fill" transform="translate(-37.386 2202.29)" fill="#FF0000"/>
<use xlink:href="#path65_fill" transform="translate(-37.386 2202.29)" fill="#FF0000"/>
</g>
<g id="HIDDEN LAYERS">
<use xlink:href="#path66_fill" transform="translate(187.643 2166.11)" fill="#1CA6F0"/>
<use xlink:href="#path67_fill" transform="translate(187.643 2166.11)" fill="#1CA6F0"/>
<use xlink:href="#path68_fill" transform="translate(187.643 2166.11)" fill="#1CA6F0"/>
<use xlink:href="#path69_fill" transform="translate(187.643 2166.11)" fill="#1CA6F0"/>
<use xlink:href="#path70_fill" transform="translate(187.643 2166.11)" fill="#1CA6F0"/>
<use xlink:href="#path71_fill" transform="translate(187.643 2166.11)" fill="#1CA6F0"/>
<use xlink:href="#path72_fill" transform="translate(187.643 2166.11)" fill="#1CA6F0"/>
<use xlink:href="#path73_fill" transform="translate(187.643 2166.11)" fill="#1CA6F0"/>
<use xlink:href="#path74_fill" transform="translate(187.643 2166.11)" fill="#1CA6F0"/>
<use xlink:href="#path75_fill" transform="translate(187.643 2166.11)" fill="#1CA6F0"/>
<use xlink:href="#path76_fill" transform="translate(187.643 2166.11)" fill="#1CA6F0"/>
<use xlink:href="#path77_fill" transform="translate(187.643 2166.11)" fill="#1CA6F0"/>
</g>
<g id="OUTPUT LAYER">
<use xlink:href="#path78_fill" transform="translate(403.291 2200.78)" fill="#219653"/>
<use xlink:href="#path79_fill" transform="translate(403.291 2200.78)" fill="#219653"/>
<use xlink:href="#path80_fill" transform="translate(403.291 2200.78)" fill="#219653"/>
<use xlink:href="#path81_fill" transform="translate(403.291 2200.78)" fill="#219653"/>
<use xlink:href="#path82_fill" transform="translate(403.291 2200.78)" fill="#219653"/>
<use xlink:href="#path83_fill" transform="translate(403.291 2200.78)" fill="#219653"/>
<use xlink:href="#path84_fill" transform="translate(403.291 2200.78)" fill="#219653"/>
<use xlink:href="#path85_fill" transform="translate(403.291 2200.78)" fill="#219653"/>
<use xlink:href="#path86_fill" transform="translate(403.291 2200.78)" fill="#219653"/>
<use xlink:href="#path87_fill" transform="translate(403.291 2200.78)" fill="#219653"/>
<use xlink:href="#path88_fill" transform="translate(403.291 2200.78)" fill="#219653"/>
</g>
<g id="changes to minimize loss">
<use xlink:href="#path89_fill" transform="translate(103 2252)"/>
</g>
</g>
</g>
<defs>
<path id="path0_fill" fill-rule="evenodd" d="M 128.556 1.10071L 0 1.10071L 0 0L 128.556 0L 128.556 1.10071Z"/>
<path id="path1_fill" fill-rule="evenodd" d="M 150.684 1.08797L 0 1.08797L 0 0L 150.684 0L 150.684 1.08797Z"/>
<path id="path2_fill" fill-rule="evenodd" d="M 189.292 1.07486L 0 1.07486L 0 0L 189.292 0L 189.292 1.07486Z"/>
<path id="path3_fill" fill-rule="evenodd" d="M 238.168 1.06552L 0 1.06552L 0 0L 238.168 0L 238.168 1.06552Z"/>
<path id="path4_fill" fill-rule="evenodd" d="M 75.371 1.10208L 0 1.10208L 0 0L 75.371 0L 75.371 1.10208Z"/>
<path id="path5_fill" fill-rule="evenodd" d="M 95.7834 1.08235L 0 1.08235L 0 0L 95.7834 0L 95.7834 1.08235Z"/>
<path id="path6_fill" fill-rule="evenodd" d="M 140.36 1.06566L 0 1.06566L 0 0L 140.36 0L 140.36 1.06566Z"/>
<path id="path7_fill" fill-rule="evenodd" d="M 194.071 1.05825L 0 1.05825L 0 0L 194.071 0L 194.071 1.05825Z"/>
<path id="path8_fill" fill-rule="evenodd" d="M 95.9367 1.08306L 0 1.08306L 0 0L 95.9367 0L 95.9367 1.08306Z"/>
<path id="path9_fill" fill-rule="evenodd" d="M 74.8795 1.10208L 0 1.10208L 0 0L 74.8795 0L 74.8795 1.10208Z"/>
<path id="path10_fill" fill-rule="evenodd" d="M 94.4774 1.08237L 0 1.08237L 0 0L 94.4774 0L 94.4774 1.08237Z"/>
<path id="path11_fill" fill-rule="evenodd" d="M 139.895 1.06597L 0 1.06597L 0 0L 139.895 0L 139.895 1.06597Z"/>
<path id="path12_fill" fill-rule="evenodd" d="M 142.828 1.08122L 0 1.08122L 0 0L 142.828 0L 142.828 1.08122Z"/>
<path id="path13_fill" fill-rule="evenodd" d="M 113.152 1.098L 0 1.098L 0 0L 113.152 0L 113.152 1.098Z"/>
<path id="path14_fill" d="M 13.927 20.9739L 11.5183 20.9739L 13.0173 11.92L 3.90776 11.92L 2.40872 20.9739L 0 20.9739L 3.24152 1.38622L 5.65023 1.38622L 4.25369 9.80785L 13.3504 9.80785L 14.747 1.38622L 17.1685 1.38622L 13.927 20.9739Z"/>
<path id="path15_fill" d="M 25.6118 6.14861C 26.7735 6.16655 27.7686 6.49839 28.5971 7.14414C 29.4256 7.78989 30.0363 8.68228 30.4293 9.82131C 30.8307 10.9514 30.9674 12.1891 30.8392 13.5344L 30.8136 13.8303C 30.6513 15.2474 30.2499 16.5299 29.6093 17.6779C 28.9686 18.8169 28.1401 19.7048 27.1237 20.3416C 26.1072 20.9784 24.9926 21.2789 23.7797 21.243C 22.6266 21.225 21.6315 20.8932 20.7944 20.2475C 19.9659 19.6017 19.3594 18.7228 18.975 17.6106C 18.5907 16.4985 18.454 15.2743 18.565 13.938C 18.6932 12.4312 19.0818 11.0769 19.731 9.87512C 20.3801 8.67331 21.2129 7.74505 22.2294 7.09033C 23.2544 6.42664 24.3818 6.11274 25.6118 6.14861ZM 20.8969 13.9514C 20.8371 14.5164 20.8371 15.1039 20.8969 15.7138C 20.9823 16.7721 21.2813 17.6151 21.7938 18.2429C 22.3148 18.8708 23.0066 19.1981 23.8693 19.225C 24.6381 19.2519 25.347 19.0546 25.9962 18.6331C 26.6453 18.2026 27.192 17.5568 27.6362 16.6958C 28.0803 15.8348 28.3665 14.8797 28.4946 13.8303C 28.5629 13.0052 28.5757 12.3101 28.533 11.7451C 28.4305 10.6599 28.1188 9.80337 27.5977 9.17556C 27.0767 8.54775 26.3848 8.21591 25.5221 8.18003C 24.3263 8.15312 23.3099 8.6464 22.4728 9.65987C 21.6357 10.6733 21.119 12.0007 20.9225 13.642L 20.8969 13.9514Z"/>
<path id="path16_fill" d="M 41.371 19.5344C 40.2862 20.7093 38.9067 21.2789 37.2326 21.243C 35.9087 21.2071 34.9264 20.7093 34.2858 19.7497C 33.6537 18.79 33.4188 17.4806 33.5811 15.8214L 35.0673 6.41767L 37.3863 6.41767L 35.8873 15.8617C 35.8446 16.2564 35.836 16.642 35.8617 17.0187C 35.9044 17.6645 36.088 18.1712 36.4126 18.5389C 36.7372 18.9066 37.1899 19.1039 37.7707 19.1308C 39.4278 19.1847 40.709 18.4806 41.6144 17.0187L 43.3569 6.41767L 45.6759 6.41767L 43.2672 20.9739L 41.0763 20.9739L 41.371 19.5344Z"/>
<path id="path17_fill" d="M 55.362 8.63743L 54.273 8.51636C 52.7867 8.51636 51.6166 9.2204 50.7624 10.6285L 49.0584 20.9739L 46.7393 20.9739L 49.148 6.41767L 51.3902 6.40422L 51.0443 8.09931C 52.0265 6.74503 53.1839 6.08583 54.5164 6.12171C 54.7983 6.12171 55.1656 6.18897 55.6183 6.3235L 55.362 8.63743Z"/>
<path id="path18_fill" d="M 64.0616 17.0322C 64.1897 16.0277 63.6644 15.3191 62.4857 14.9066L 60.077 14.1667C 58.0441 13.4312 57.0618 12.2115 57.1301 10.5074C 57.1899 9.22489 57.7451 8.17555 58.7957 7.35939C 59.8549 6.53427 61.0977 6.13068 62.5241 6.14861C 63.9249 6.16655 65.0609 6.59705 65.9322 7.44011C 66.812 8.2742 67.2348 9.3639 67.2006 10.7092L 64.8944 10.6958C 64.9115 9.96929 64.6937 9.37735 64.241 8.91995C 63.7883 8.46254 63.1861 8.22487 62.4344 8.20694C 61.6315 8.189 60.9396 8.39528 60.3588 8.82578C 59.8207 9.22937 59.5089 9.75853 59.4235 10.4132C 59.3125 11.2563 59.8036 11.8707 60.8969 12.2563L 62.0629 12.5926C 63.6516 13.0231 64.7791 13.5837 65.4453 14.2743C 66.1115 14.9649 66.419 15.8214 66.3678 16.8438C 66.3166 17.7497 66.0347 18.5389 65.5222 19.2116C 65.0097 19.8842 64.3264 20.3999 63.4722 20.7587C 62.6181 21.1085 61.7084 21.2699 60.7432 21.243C 59.274 21.225 58.0611 20.7766 57.1045 19.8977C 56.1478 19.0098 55.6866 17.8707 55.7208 16.4806L 58.0398 16.494C 58.0398 17.3102 58.2875 17.9649 58.7829 18.4582C 59.2783 18.9515 59.9574 19.1981 60.8201 19.1981C 61.6657 19.2161 62.396 19.0322 63.011 18.6465C 63.626 18.2519 63.9762 17.7138 64.0616 17.0322Z"/>
<path id="path19_fill" d="M 82.8572 6.14861C 84.0189 6.16655 85.014 6.49839 85.8425 7.14414C 86.6711 7.78989 87.2818 8.68228 87.6747 9.82131C 88.0761 10.9514 88.2128 12.1891 88.0847 13.5344L 88.0591 13.8303C 87.8968 15.2474 87.4953 16.5299 86.8547 17.6779C 86.2141 18.8169 85.3855 19.7048 84.3691 20.3416C 83.3527 20.9784 82.238 21.2789 81.0251 21.243C 79.872 21.225 78.8769 20.8932 78.0398 20.2475C 77.2113 19.6017 76.6048 18.7228 76.2205 17.6106C 75.8361 16.4985 75.6994 15.2743 75.8105 13.938C 75.9386 12.4312 76.3272 11.0769 76.9764 9.87512C 77.6256 8.67331 78.4584 7.74505 79.4748 7.09033C 80.4998 6.42664 81.6273 6.11274 82.8572 6.14861ZM 78.1423 13.9514C 78.0825 14.5164 78.0825 15.1039 78.1423 15.7138C 78.2277 16.7721 78.5267 17.6151 79.0392 18.2429C 79.5602 18.8708 80.2521 19.1981 81.1148 19.225C 81.8835 19.2519 82.5925 19.0546 83.2416 18.6331C 83.8908 18.2026 84.4374 17.5568 84.8816 16.6958C 85.3258 15.8348 85.6119 14.8797 85.74 13.8303C 85.8083 13.0052 85.8212 12.3101 85.7785 11.7451C 85.676 10.6599 85.3642 9.80337 84.8432 9.17556C 84.3221 8.54775 83.6303 8.21591 82.7676 8.18003C 81.5717 8.15312 80.5553 8.6464 79.7182 9.65987C 78.8812 10.6733 78.3644 12.0007 78.1679 13.642L 78.1423 13.9514Z"/>
<path id="path20_fill" d="M 90.9418 20.9739L 93.043 8.34147L 90.9034 8.34147L 91.2237 6.41767L 93.3505 6.41767L 93.5812 4.69568C 93.8032 3.23378 94.3414 2.09026 95.1955 1.26514C 96.0924 0.404142 97.2369 -0.0173884 98.6292 0.000549106C 99.0648 0.000549106 99.6158 0.0767833 100.282 0.229252L 100 2.26067C 99.5901 2.17098 99.1759 2.11717 98.7573 2.09923C 97.9544 2.09923 97.301 2.36381 96.7971 2.89296C 96.3016 3.41315 95.9941 4.10823 95.8746 4.97819L 95.6696 6.41767L 98.5395 6.41767L 98.2192 8.34147L 95.3493 8.34147L 93.2608 20.9739L 90.9418 20.9739Z"/>
<path id="path21_fill" d="M 113.799 17.0322C 113.927 16.0277 113.402 15.3191 112.223 14.9066L 109.814 14.1667C 107.781 13.4312 106.799 12.2115 106.868 10.5074C 106.927 9.22489 107.483 8.17555 108.533 7.35939C 109.592 6.53427 110.835 6.13068 112.262 6.14861C 113.662 6.16655 114.798 6.59705 115.67 7.44011C 116.549 8.2742 116.972 9.3639 116.938 10.7092L 114.632 10.6958C 114.649 9.96929 114.431 9.37735 113.978 8.91995C 113.526 8.46254 112.923 8.22487 112.172 8.20694C 111.369 8.189 110.677 8.39528 110.096 8.82578C 109.558 9.22937 109.246 9.75853 109.161 10.4132C 109.05 11.2563 109.541 11.8707 110.634 12.2563L 111.8 12.5926C 113.389 13.0231 114.516 13.5837 115.183 14.2743C 115.849 14.9649 116.156 15.8214 116.105 16.8438C 116.054 17.7497 115.772 18.5389 115.26 19.2116C 114.747 19.8842 114.064 20.3999 113.21 20.7587C 112.355 21.1085 111.446 21.2699 110.481 21.243C 109.011 21.225 107.799 20.7766 106.842 19.8977C 105.885 19.0098 105.424 17.8707 105.458 16.4806L 107.777 16.494C 107.777 17.3102 108.025 17.9649 108.52 18.4582C 109.016 18.9515 109.695 19.1981 110.557 19.1981C 111.403 19.2161 112.133 19.0322 112.748 18.6465C 113.363 18.2519 113.714 17.7138 113.799 17.0322Z"/>
<path id="path22_fill" d="M 120.974 20.9739L 118.668 20.9739L 122.076 0.30997L 124.395 0.30997L 120.974 20.9739Z"/>
<path id="path23_fill" d="M 130.762 21.243C 129.037 21.2071 127.688 20.5389 126.714 19.2385C 125.74 17.938 125.33 16.2743 125.484 14.2474L 125.548 13.6689C 125.693 12.2249 126.099 10.9065 126.765 9.71368C 127.44 8.52084 128.26 7.62397 129.225 7.02306C 130.19 6.41319 131.232 6.12171 132.351 6.14861C 133.778 6.18449 134.897 6.68225 135.708 7.64191C 136.52 8.60156 136.964 9.90203 137.041 11.5433C 137.066 12.1263 137.049 12.7092 136.989 13.2922L 136.848 14.4088L 127.79 14.4088C 127.636 15.7272 127.841 16.8483 128.405 17.7721C 128.977 18.6959 129.827 19.1757 130.955 19.2116C 132.321 19.2474 133.585 18.6017 134.747 17.2743L 136.08 18.4582C 135.499 19.3371 134.747 20.0277 133.825 20.53C 132.911 21.0232 131.89 21.2609 130.762 21.243ZM 132.236 8.18003C 131.279 8.15312 130.442 8.49393 129.725 9.20246C 129.016 9.91099 128.452 10.9648 128.033 12.3639L 134.773 12.3774L 134.824 12.1621C 134.961 11.0321 134.786 10.0949 134.299 9.35045C 133.82 8.59708 133.133 8.20694 132.236 8.18003Z"/>
<path id="path24_fill" d="M 144.369 21.243C 142.644 21.2071 141.294 20.5389 140.32 19.2385C 139.347 17.938 138.937 16.2743 139.09 14.2474L 139.155 13.6689C 139.3 12.2249 139.705 10.9065 140.372 9.71368C 141.047 8.52084 141.867 7.62397 142.832 7.02306C 143.797 6.41319 144.839 6.12171 145.958 6.14861C 147.384 6.18449 148.503 6.68225 149.315 7.64191C 150.126 8.60156 150.57 9.90203 150.647 11.5433C 150.673 12.1263 150.656 12.7092 150.596 13.2922L 150.455 14.4088L 141.397 14.4088C 141.243 15.7272 141.448 16.8483 142.012 17.7721C 142.584 18.6959 143.434 19.1757 144.561 19.2116C 145.928 19.2474 147.192 18.6017 148.354 17.2743L 149.686 18.4582C 149.105 19.3371 148.354 20.0277 147.431 20.53C 146.517 21.0232 145.497 21.2609 144.369 21.243ZM 145.843 8.18003C 144.886 8.15312 144.049 8.49393 143.331 9.20246C 142.622 9.91099 142.059 10.9648 141.64 12.3639L 148.379 12.3774L 148.431 12.1621C 148.567 11.0321 148.392 10.0949 147.905 9.35045C 147.427 8.59708 146.739 8.20694 145.843 8.18003Z"/>
<path id="path25_fill" d="M 164.536 13.7631C 164.365 15.2429 163.985 16.5748 163.395 17.7586C 162.806 18.9425 162.076 19.8304 161.205 20.4223C 160.333 21.0053 159.368 21.2833 158.309 21.2564C 156.703 21.2206 155.473 20.651 154.619 19.5479L 153.376 26.5704L 151.057 26.5704L 154.388 6.41767L 156.49 6.40422L 156.233 8.03205C 157.378 6.74055 158.749 6.11274 160.346 6.14861C 161.679 6.18449 162.716 6.70019 163.46 7.69572C 164.203 8.69125 164.596 10.0635 164.638 11.8124C 164.647 12.3864 164.625 12.9424 164.574 13.4805L 164.536 13.7631ZM 162.255 13.4805L 162.319 12.3505C 162.319 11.0411 162.08 10.041 161.602 9.35045C 161.132 8.65089 160.449 8.28317 159.552 8.2473C 158.211 8.21142 157.053 8.87959 156.08 10.2518L 154.914 17.234C 155.435 18.5255 156.37 19.1891 157.72 19.225C 158.873 19.2519 159.851 18.7811 160.654 17.8124C 161.465 16.8349 161.999 15.3909 162.255 13.4805Z"/>
<path id="path26_fill" d="M 13.927 20.9739L 11.5183 20.9739L 13.0173 11.92L 3.90776 11.92L 2.40872 20.9739L 0 20.9739L 3.24152 1.38622L 5.65023 1.38622L 4.25369 9.80785L 13.3504 9.80785L 14.747 1.38622L 17.1685 1.38622L 13.927 20.9739Z"/>
<path id="path27_fill" d="M 25.6118 6.14861C 26.7735 6.16655 27.7686 6.49839 28.5971 7.14414C 29.4256 7.78989 30.0363 8.68228 30.4293 9.82131C 30.8307 10.9514 30.9674 12.1891 30.8392 13.5344L 30.8136 13.8303C 30.6513 15.2474 30.2499 16.5299 29.6093 17.6779C 28.9686 18.8169 28.1401 19.7048 27.1237 20.3416C 26.1072 20.9784 24.9926 21.2789 23.7797 21.243C 22.6266 21.225 21.6315 20.8932 20.7944 20.2475C 19.9659 19.6017 19.3594 18.7228 18.975 17.6106C 18.5907 16.4985 18.454 15.2743 18.565 13.938C 18.6932 12.4312 19.0818 11.0769 19.731 9.87512C 20.3801 8.67331 21.2129 7.74505 22.2294 7.09033C 23.2544 6.42664 24.3818 6.11274 25.6118 6.14861ZM 20.8969 13.9514C 20.8371 14.5164 20.8371 15.1039 20.8969 15.7138C 20.9823 16.7721 21.2813 17.6151 21.7938 18.2429C 22.3148 18.8708 23.0067 19.1981 23.8693 19.225C 24.6381 19.2519 25.347 19.0546 25.9962 18.6331C 26.6453 18.2026 27.192 17.5568 27.6362 16.6958C 28.0803 15.8348 28.3665 14.8797 28.4946 13.8303C 28.5629 13.0052 28.5757 12.3101 28.533 11.7451C 28.4305 10.6599 28.1188 9.80337 27.5977 9.17556C 27.0767 8.54775 26.3848 8.2159 25.5221 8.18003C 24.3263 8.15312 23.3099 8.6464 22.4728 9.65987C 21.6357 10.6733 21.119 12.0007 20.9225 13.642L 20.8969 13.9514Z"/>
<path id="path28_fill" d="M 41.371 19.5344C 40.2862 20.7093 38.9067 21.2789 37.2326 21.243C 35.9087 21.2071 34.9264 20.7093 34.2858 19.7497C 33.6537 18.79 33.4188 17.4806 33.5811 15.8214L 35.0673 6.41767L 37.3863 6.41767L 35.8873 15.8617C 35.8446 16.2564 35.8361 16.642 35.8617 17.0187C 35.9044 17.6645 36.088 18.1712 36.4126 18.5389C 36.7372 18.9066 37.1899 19.1039 37.7707 19.1308C 39.4278 19.1847 40.709 18.4806 41.6144 17.0187L 43.3569 6.41767L 45.6759 6.41767L 43.2672 20.9739L 41.0763 20.9739L 41.371 19.5344Z"/>
<path id="path29_fill" d="M 55.362 8.63743L 54.273 8.51636C 52.7867 8.51636 51.6166 9.2204 50.7624 10.6285L 49.0584 20.9739L 46.7393 20.9739L 49.148 6.41767L 51.3902 6.40422L 51.0443 8.09931C 52.0266 6.74503 53.1839 6.08583 54.5164 6.12171C 54.7983 6.12171 55.1656 6.18897 55.6183 6.3235L 55.362 8.63743Z"/>
<path id="path30_fill" d="M 64.0616 17.0322C 64.1897 16.0277 63.6644 15.3191 62.4857 14.9066L 60.077 14.1667C 58.0441 13.4312 57.0618 12.2115 57.1301 10.5074C 57.1899 9.22489 57.7451 8.17555 58.7957 7.35939C 59.8549 6.53427 61.0977 6.13068 62.5241 6.14861C 63.9249 6.16655 65.0609 6.59705 65.9322 7.44011C 66.812 8.2742 67.2348 9.3639 67.2006 10.7092L 64.8944 10.6958C 64.9115 9.96929 64.6937 9.37735 64.241 8.91995C 63.7883 8.46254 63.1861 8.22487 62.4344 8.20694C 61.6315 8.189 60.9397 8.39528 60.3588 8.82578C 59.8207 9.22937 59.5089 9.75853 59.4235 10.4132C 59.3125 11.2563 59.8036 11.8707 60.8969 12.2563L 62.0629 12.5926C 63.6516 13.0231 64.7791 13.5837 65.4453 14.2743C 66.1116 14.9649 66.4191 15.8214 66.3678 16.8438C 66.3166 17.7497 66.0347 18.5389 65.5222 19.2116C 65.0097 19.8842 64.3264 20.3999 63.4722 20.7587C 62.6181 21.1085 61.7084 21.2699 60.7432 21.243C 59.274 21.225 58.0611 20.7766 57.1045 19.8977C 56.1478 19.0098 55.6866 17.8707 55.7208 16.4806L 58.0398 16.494C 58.0398 17.3102 58.2875 17.9649 58.7829 18.4582C 59.2783 18.9515 59.9574 19.1981 60.8201 19.1981C 61.6657 19.216 62.396 19.0322 63.011 18.6465C 63.626 18.2519 63.9762 17.7138 64.0616 17.0322Z"/>
<path id="path31_fill" d="M 82.8573 6.14861C 84.0189 6.16655 85.014 6.49839 85.8425 7.14414C 86.6711 7.78989 87.2818 8.68228 87.6747 9.82131C 88.0761 10.9514 88.2128 12.1891 88.0847 13.5344L 88.0591 13.8303C 87.8968 15.2474 87.4953 16.5299 86.8547 17.6779C 86.2141 18.8169 85.3856 19.7048 84.3691 20.3416C 83.3527 20.9784 82.238 21.2789 81.0251 21.243C 79.872 21.225 78.8769 20.8932 78.0398 20.2475C 77.2113 19.6017 76.6048 18.7228 76.2205 17.6106C 75.8361 16.4985 75.6994 15.2743 75.8105 13.938C 75.9386 12.4312 76.3272 11.0769 76.9764 9.87512C 77.6256 8.67331 78.4584 7.74505 79.4748 7.09033C 80.4998 6.42664 81.6273 6.11274 82.8573 6.14861ZM 78.1423 13.9514C 78.0825 14.5164 78.0825 15.1039 78.1423 15.7138C 78.2277 16.7721 78.5267 17.6151 79.0392 18.2429C 79.5602 18.8708 80.2521 19.1981 81.1148 19.225C 81.8835 19.2519 82.5925 19.0546 83.2416 18.6331C 83.8908 18.2026 84.4374 17.5568 84.8816 16.6958C 85.3258 15.8348 85.6119 14.8797 85.74 13.8303C 85.8084 13.0052 85.8212 12.3101 85.7785 11.7451C 85.676 10.6599 85.3642 9.80337 84.8432 9.17556C 84.3221 8.54775 83.6303 8.2159 82.7676 8.18003C 81.5718 8.15312 80.5553 8.6464 79.7182 9.65987C 78.8812 10.6733 78.3644 12.0007 78.1679 13.642L 78.1423 13.9514Z"/>
<path id="path32_fill" d="M 90.9418 20.9739L 93.043 8.34147L 90.9034 8.34147L 91.2237 6.41767L 93.3505 6.41767L 93.5812 4.69568C 93.8032 3.23378 94.3414 2.09026 95.1955 1.26514C 96.0924 0.404142 97.2369 -0.0173884 98.6292 0.000549106C 99.0648 0.000549106 99.6158 0.0767833 100.282 0.229252L 100 2.26067C 99.5901 2.17098 99.1759 2.11717 98.7573 2.09923C 97.9544 2.09923 97.301 2.36381 96.7971 2.89296C 96.3016 3.41315 95.9941 4.10823 95.8746 4.97819L 95.6696 6.41767L 98.5395 6.41767L 98.2192 8.34147L 95.3493 8.34147L 93.2609 20.9739L 90.9418 20.9739Z"/>
<path id="path33_fill" d="M 113.799 17.0322C 113.927 16.0277 113.402 15.3191 112.223 14.9066L 109.814 14.1667C 107.781 13.4312 106.799 12.2115 106.868 10.5074C 106.927 9.22489 107.483 8.17555 108.533 7.35939C 109.592 6.53427 110.835 6.13068 112.262 6.14861C 113.662 6.16655 114.798 6.59705 115.67 7.44011C 116.549 8.2742 116.972 9.3639 116.938 10.7092L 114.632 10.6958C 114.649 9.96929 114.431 9.37735 113.978 8.91995C 113.526 8.46254 112.923 8.22487 112.172 8.20694C 111.369 8.189 110.677 8.39528 110.096 8.82578C 109.558 9.22937 109.246 9.75853 109.161 10.4132C 109.05 11.2563 109.541 11.8707 110.634 12.2563L 111.8 12.5926C 113.389 13.0231 114.516 13.5837 115.183 14.2743C 115.849 14.9649 116.156 15.8214 116.105 16.8438C 116.054 17.7497 115.772 18.5389 115.26 19.2116C 114.747 19.8842 114.064 20.3999 113.21 20.7587C 112.355 21.1085 111.446 21.2699 110.481 21.243C 109.011 21.225 107.799 20.7766 106.842 19.8977C 105.885 19.0098 105.424 17.8707 105.458 16.4806L 107.777 16.494C 107.777 17.3102 108.025 17.9649 108.52 18.4582C 109.016 18.9515 109.695 19.1981 110.557 19.1981C 111.403 19.216 112.133 19.0322 112.748 18.6465C 113.363 18.2519 113.714 17.7138 113.799 17.0322Z"/>
<path id="path34_fill" d="M 124.587 2.89296L 123.998 6.41767L 126.522 6.41767L 126.201 8.34147L 123.69 8.34147L 122.242 17.3954C 122.217 17.6286 122.212 17.8438 122.23 18.0411C 122.289 18.7407 122.652 19.0905 123.319 19.0905C 123.6 19.0905 123.976 19.0456 124.446 18.956L 124.267 20.9874C 123.711 21.1488 123.148 21.2295 122.575 21.2295C 121.653 21.2116 120.961 20.8573 120.5 20.1667C 120.039 19.4672 119.859 18.5299 119.962 17.355L 121.371 8.34147L 118.924 8.34147L 119.244 6.41767L 121.691 6.41767L 122.281 2.89296L 124.587 2.89296Z"/>
<path id="path35_fill" d="M 135.721 19.5344C 134.636 20.7093 133.257 21.2789 131.583 21.243C 130.259 21.2071 129.276 20.7093 128.636 19.7497C 128.004 18.79 127.769 17.4806 127.931 15.8214L 129.417 6.41767L 131.736 6.41767L 130.237 15.8617C 130.194 16.2564 130.186 16.642 130.212 17.0187C 130.254 17.6645 130.438 18.1712 130.763 18.5389C 131.087 18.9066 131.54 19.1039 132.121 19.1308C 133.778 19.1847 135.059 18.4806 135.964 17.0187L 137.707 6.41767L 140.026 6.41767L 137.617 20.9739L 135.426 20.9739L 135.721 19.5344Z"/>
<path id="path36_fill" d="M 141.755 13.6689C 141.926 12.1891 142.315 10.8527 142.921 9.65987C 143.528 8.46703 144.275 7.57464 145.164 6.9827C 146.052 6.39077 147.03 6.10825 148.098 6.13516C 149.644 6.17103 150.831 6.76297 151.659 7.91097L 152.992 0.30997L 155.311 0.30997L 151.903 20.9739L 149.789 20.9739L 150.032 19.4134C 148.939 20.669 147.589 21.2789 145.984 21.243C 144.702 21.2071 143.682 20.6824 142.921 19.669C 142.161 18.6465 141.751 17.2788 141.691 15.5658C 141.666 15.0366 141.687 14.4043 141.755 13.6689ZM 143.985 15.068C 143.959 16.3505 144.177 17.3461 144.638 18.0546C 145.099 18.7631 145.774 19.1264 146.663 19.1443C 148.004 19.2071 149.195 18.4986 150.237 17.0187L 151.339 10.2922C 150.827 8.96479 149.896 8.28317 148.546 8.2473C 147.632 8.22039 146.825 8.51187 146.124 9.12175C 145.433 9.72265 144.903 10.5702 144.536 11.6644C 144.177 12.7496 143.993 13.8841 143.985 15.068Z"/>
<path id="path37_fill" d="M 160.538 17.3012L 165.471 6.41767L 168.034 6.41767L 159.808 23.3955C 158.663 25.7543 157.194 26.9202 155.401 26.8933C 155.085 26.8843 154.619 26.8036 154.004 26.6511L 154.209 24.6332L 154.811 24.7004C 155.546 24.7363 156.178 24.5614 156.707 24.1758C 157.246 23.7991 157.72 23.1847 158.13 22.3327L 158.962 20.6645L 156.567 6.41767L 158.988 6.41767L 160.538 17.3012Z"/>
<path id="path38_fill" d="M 3.67713 12.9957L 2.40872 20.6639L 0 20.6639L 3.24152 1.07625L 9.4683 1.0897C 11.3902 1.0897 12.8721 1.62782 13.9142 2.70407C 14.9562 3.77135 15.4047 5.19289 15.2595 6.9687C 15.1057 8.84317 14.3925 10.3185 13.1198 11.3948C 11.8557 12.471 10.1858 13.0091 8.1102 13.0091L 3.67713 12.9957ZM 4.02307 10.8836L 8.17426 10.897C 9.48111 10.897 10.5531 10.5517 11.3902 9.86112C 12.2272 9.17052 12.7184 8.21087 12.8636 6.98215C 13.0002 5.879 12.7824 4.98661 12.2101 4.30499C 11.6379 3.6144 10.8051 3.25116 9.71174 3.21529L 5.29149 3.20184L 4.02307 10.8836Z"/>
<path id="path39_fill" d="M 24.4587 8.32746L 23.3697 8.20639C 21.8834 8.20639 20.7132 8.91043 19.8591 10.3185L 18.1551 20.6639L 15.836 20.6639L 18.2447 6.1077L 20.4869 6.09425L 20.141 7.78934C 21.1232 6.43506 22.2806 5.77586 23.6131 5.81174C 23.895 5.81174 24.2623 5.879 24.715 6.01353L 24.4587 8.32746Z"/>
<path id="path40_fill" d="M 30.3139 20.933C 28.5886 20.8971 27.239 20.229 26.2652 18.9285C 25.2915 17.628 24.8815 15.9643 25.0353 13.9374L 25.0993 13.3589C 25.2445 11.915 25.6503 10.5966 26.3165 9.40371C 26.9913 8.21087 27.8113 7.314 28.7765 6.71309C 29.7417 6.10322 30.7837 5.81174 31.9027 5.83864C 33.3291 5.87452 34.4481 6.37228 35.2595 7.33194C 36.0709 8.29159 36.5151 9.59206 36.592 11.2333C 36.6176 11.8163 36.6005 12.3993 36.5407 12.9822L 36.3998 14.0988L 27.3415 14.0988C 27.1877 15.4172 27.3927 16.5383 27.9565 17.4621C 28.5288 18.3859 29.3786 18.8657 30.5061 18.9016C 31.8728 18.9375 33.1369 18.2917 34.2986 16.9643L 35.6311 18.1482C 35.0502 19.0272 34.2986 19.7177 33.3761 20.22C 32.4621 20.7133 31.4414 20.9509 30.3139 20.933ZM 31.7874 7.87006C 30.8307 7.84315 29.9936 8.18396 29.2761 8.89249C 28.5672 9.60102 28.0035 10.6548 27.5849 12.054L 34.3242 12.0674L 34.3754 11.8522C 34.5121 10.7221 34.337 9.78488 33.8501 9.04048C 33.3718 8.2871 32.6842 7.89697 31.7874 7.87006Z"/>
<path id="path41_fill" d="M 38.5907 13.3589C 38.7615 11.8791 39.1502 10.5427 39.7566 9.3499C 40.3631 8.15706 41.1105 7.26467 41.9988 6.67273C 42.8871 6.0808 43.8651 5.79828 44.9328 5.82519C 46.4788 5.86106 47.6661 6.453 48.4946 7.601L 49.8271 0L 52.1461 0L 48.7381 20.6639L 46.624 20.6639L 46.8675 19.1034C 45.7741 20.359 44.4246 20.9689 42.8188 20.933C 41.5375 20.8971 40.5168 20.3725 39.7566 19.359C 38.9964 18.3366 38.5864 16.9688 38.5266 15.2558C 38.501 14.7267 38.5224 14.0944 38.5907 13.3589ZM 40.82 14.758C 40.7944 16.0406 41.0122 17.0361 41.4735 17.7446C 41.9347 18.4532 42.6095 18.8164 43.4978 18.8343C 44.8388 18.8971 46.0304 18.1886 47.0725 16.7087L 48.1743 9.98219C 47.6618 8.65482 46.7308 7.9732 45.3812 7.93732C 44.4673 7.91042 43.6601 8.2019 42.9597 8.81178C 42.2678 9.41268 41.7383 10.2602 41.371 11.3544C 41.0122 12.4396 40.8286 13.5742 40.82 14.758Z"/>
<path id="path42_fill" d="M 54.9136 20.6639L 52.6074 20.6639L 55.0161 6.1077L 57.3223 6.1077L 54.9136 20.6639ZM 56.8226 0.793732C 57.2155 0.775795 57.5401 0.901357 57.7964 1.17042C 58.0611 1.43051 58.1935 1.77581 58.1935 2.20631C 58.185 2.62784 58.0526 2.97313 57.7964 3.2422C 57.5487 3.51126 57.2241 3.65476 56.8226 3.67269C 56.4212 3.69063 56.0923 3.56955 55.8361 3.30946C 55.5798 3.04937 55.456 2.70856 55.4645 2.28703C 55.4731 1.8655 55.6012 1.51572 55.8489 1.23768C 56.0966 0.959654 56.4212 0.81167 56.8226 0.793732Z"/>
<path id="path43_fill" d="M 64.5613 18.915C 65.3898 18.933 66.1372 18.6819 66.8034 18.1617C 67.4697 17.6325 67.9053 16.9419 68.1103 16.0899L 70.3012 16.0764C 70.1731 16.9913 69.8229 17.8253 69.2506 18.5787C 68.6868 19.3321 67.9736 19.9195 67.1109 20.3411C 66.2482 20.7626 65.3642 20.9599 64.4588 20.933C 63.3057 20.9151 62.3277 20.6012 61.5247 19.9913C 60.7304 19.3725 60.1453 18.5159 59.7695 17.4218C 59.3936 16.3186 59.2655 15.0809 59.3851 13.7087L 59.4492 13.036C 59.6114 11.6369 60.0001 10.3858 60.6151 9.28263C 61.2301 8.17948 62.033 7.32297 63.0238 6.71309C 64.0146 6.09425 65.1079 5.80277 66.3037 5.83864C 67.7558 5.87452 68.9174 6.38573 69.7887 7.37229C 70.6599 8.35886 71.0956 9.60999 71.0956 11.1257L 68.9303 11.1123C 68.9132 10.1616 68.6612 9.39474 68.1743 8.81178C 67.6875 8.21984 67.0298 7.90593 66.2012 7.87006C 64.9969 7.84315 63.9933 8.31401 63.1903 9.28263C 62.396 10.2513 61.9006 11.6055 61.7041 13.3455L 61.6657 13.6952C 61.6144 14.2692 61.6059 14.8612 61.6401 15.4711C 61.6998 16.5204 61.9817 17.35 62.4857 17.9599C 62.9896 18.5698 63.6815 18.8881 64.5613 18.915Z"/>
<path id="path44_fill" d="M 78.2833 2.58299L 77.6939 6.1077L 80.2179 6.1077L 79.8976 8.0315L 77.3864 8.0315L 75.9386 17.0854C 75.913 17.3186 75.9087 17.5339 75.9258 17.7312C 75.9856 18.4307 76.3486 18.7805 77.0148 18.7805C 77.2967 18.7805 77.6725 18.7357 78.1423 18.646L 77.963 20.6774C 77.4077 20.8388 76.844 20.9196 76.2717 20.9196C 75.3492 20.9016 74.6574 20.5474 74.1961 19.8568C 73.7349 19.1572 73.5555 18.22 73.658 17.0451L 75.0674 8.0315L 72.6202 8.0315L 72.9405 6.1077L 75.3877 6.1077L 75.977 2.58299L 78.2833 2.58299Z"/>
<path id="path45_fill" d="M 86.6113 20.933C 84.8859 20.8971 83.5363 20.229 82.5626 18.9285C 81.5888 17.628 81.1788 15.9643 81.3326 13.9374L 81.3967 13.3589C 81.5419 11.915 81.9476 10.5966 82.6138 9.40371C 83.2886 8.21087 84.1086 7.314 85.0738 6.71309C 86.039 6.10322 87.081 5.81174 88.2 5.83864C 89.6264 5.87452 90.7454 6.37228 91.5568 7.33194C 92.3683 8.29159 92.8124 9.59206 92.8893 11.2333C 92.9149 11.8163 92.8978 12.3993 92.8381 12.9822L 92.6971 14.0988L 83.6388 14.0988C 83.4851 15.4172 83.6901 16.5383 84.2538 17.4621C 84.8261 18.3859 85.676 18.8657 86.8035 18.9016C 88.1701 18.9375 89.4342 18.2917 90.5959 16.9643L 91.9284 18.1482C 91.3475 19.0272 90.5959 19.7177 89.6734 20.22C 88.7595 20.7133 87.7387 20.9509 86.6113 20.933ZM 88.0847 7.87006C 87.128 7.84315 86.291 8.18396 85.5735 8.89249C 84.8645 9.60102 84.3008 10.6548 83.8822 12.054L 90.6215 12.0674L 90.6728 11.8522C 90.8094 10.7221 90.6343 9.78488 90.1475 9.04048C 89.6691 8.2871 88.9815 7.89697 88.0847 7.87006Z"/>
<path id="path46_fill" d="M 94.888 13.3589C 95.0589 11.8791 95.4475 10.5427 96.0539 9.3499C 96.6604 8.15706 97.4078 7.26467 98.2961 6.67273C 99.1844 6.0808 100.162 5.79828 101.23 5.82519C 102.776 5.86106 103.963 6.453 104.792 7.601L 106.124 0L 108.443 0L 105.035 20.6639L 102.921 20.6639L 103.165 19.1034C 102.071 20.359 100.722 20.9689 99.1161 20.933C 97.8349 20.8971 96.8141 20.3725 96.0539 19.359C 95.2937 18.3366 94.8838 16.9688 94.824 15.2558C 94.7983 14.7267 94.8197 14.0944 94.888 13.3589ZM 97.1174 14.758C 97.0917 16.0406 97.3095 17.0361 97.7708 17.7446C 98.232 18.4532 98.9068 18.8164 99.7951 18.8343C 101.136 18.8971 102.328 18.1886 103.37 16.7087L 104.472 9.98219C 103.959 8.65482 103.028 7.9732 101.679 7.93732C 100.765 7.91042 99.9574 8.2019 99.257 8.81178C 98.5652 9.41268 98.0356 10.2602 97.6683 11.3544C 97.3095 12.4396 97.1259 13.5742 97.1174 14.758Z"/>
<path id="path47_fill" d="M 123.716 16.7222C 123.844 15.7177 123.319 15.0092 122.14 14.5966L 119.731 13.8567C 117.698 13.1213 116.716 11.9015 116.784 10.1974C 116.844 8.91492 117.399 7.86557 118.45 7.04942C 119.509 6.2243 120.752 5.8207 122.178 5.83864C 123.579 5.85658 124.715 6.28708 125.586 7.13014C 126.466 7.96423 126.889 9.05393 126.855 10.3992L 124.549 10.3858C 124.566 9.65932 124.348 9.06738 123.895 8.60998C 123.442 8.15257 122.84 7.9149 122.089 7.89697C 121.286 7.87903 120.594 8.08531 120.013 8.51581C 119.475 8.9194 119.163 9.44855 119.078 10.1033C 118.967 10.9463 119.458 11.5607 120.551 11.9463L 121.717 12.2827C 123.306 12.7132 124.433 13.2737 125.099 13.9643C 125.766 14.6549 126.073 15.5114 126.022 16.5339C 125.971 17.4397 125.689 18.2289 125.176 18.9016C 124.664 19.5742 123.981 20.09 123.126 20.4487C 122.272 20.7985 121.363 20.9599 120.397 20.933C 118.928 20.9151 117.715 20.4666 116.759 19.5877C 115.802 18.6998 115.341 17.5608 115.375 16.1706L 117.694 16.1841C 117.694 17.0002 117.942 17.6549 118.437 18.1482C 118.932 18.6415 119.612 18.8881 120.474 18.8881C 121.32 18.9061 122.05 18.7222 122.665 18.3366C 123.28 17.9419 123.63 17.4038 123.716 16.7222Z"/>
<path id="path48_fill" d="M 134.235 18.915C 135.063 18.933 135.811 18.6819 136.477 18.1617C 137.143 17.6325 137.579 16.9419 137.784 16.0899L 139.975 16.0764C 139.846 16.9913 139.496 17.8253 138.924 18.5787C 138.36 19.3321 137.647 19.9195 136.784 20.3411C 135.922 20.7626 135.038 20.9599 134.132 20.933C 132.979 20.9151 132.001 20.6012 131.198 19.9913C 130.404 19.3725 129.819 18.5159 129.443 17.4218C 129.067 16.3186 128.939 15.0809 129.058 13.7087L 129.123 13.036C 129.285 11.6369 129.673 10.3858 130.288 9.28263C 130.903 8.17948 131.706 7.32297 132.697 6.71309C 133.688 6.09425 134.781 5.80277 135.977 5.83864C 137.429 5.87452 138.591 6.38573 139.462 7.37229C 140.333 8.35886 140.769 9.60999 140.769 11.1257L 138.604 11.1123C 138.587 10.1616 138.335 9.39474 137.848 8.81178C 137.361 8.21984 136.703 7.90593 135.875 7.87006C 134.67 7.84315 133.667 8.31401 132.864 9.28263C 132.069 10.2513 131.574 11.6055 131.378 13.3455L 131.339 13.6952C 131.288 14.2692 131.279 14.8612 131.313 15.4711C 131.373 16.5204 131.655 17.35 132.159 17.9599C 132.663 18.5698 133.355 18.8881 134.235 18.915Z"/>
<path id="path49_fill" d="M 149.533 5.83864C 150.694 5.85658 151.689 6.18842 152.518 6.83417C 153.346 7.47992 153.957 8.37231 154.35 9.51134C 154.751 10.6414 154.888 11.8791 154.76 13.2244L 154.734 13.5204C 154.572 14.9374 154.171 16.2199 153.53 17.3679C 152.889 18.507 152.061 19.3949 151.044 20.0317C 150.028 20.6684 148.913 20.9689 147.7 20.933C 146.547 20.9151 145.552 20.5832 144.715 19.9375C 143.887 19.2917 143.28 18.4128 142.896 17.3007C 142.511 16.1886 142.375 14.9643 142.486 13.628C 142.614 12.1212 143.003 10.767 143.652 9.56515C 144.301 8.36334 145.134 7.43508 146.15 6.78036C 147.175 6.11667 148.303 5.80277 149.533 5.83864ZM 144.818 13.6414C 144.758 14.2065 144.758 14.7939 144.818 15.4038C 144.903 16.4621 145.202 17.3052 145.714 17.933C 146.236 18.5608 146.927 18.8881 147.79 18.915C 148.559 18.942 149.268 18.7446 149.917 18.3231C 150.566 17.8926 151.113 17.2469 151.557 16.3859C 152.001 15.5249 152.287 14.5697 152.415 13.5204C 152.484 12.6952 152.496 12.0002 152.454 11.4351C 152.351 10.3499 152.039 9.4934 151.518 8.86559C 150.997 8.23778 150.306 7.90593 149.443 7.87006C 148.247 7.84315 147.231 8.33643 146.394 9.3499C 145.556 10.3634 145.04 11.6907 144.843 13.332L 144.818 13.6414Z"/>
<path id="path50_fill" d="M 165.112 8.32746L 164.023 8.20639C 162.537 8.20639 161.367 8.91043 160.513 10.3185L 158.809 20.6639L 156.49 20.6639L 158.898 6.1077L 161.141 6.09425L 160.795 7.78934C 161.777 6.43506 162.934 5.77586 164.267 5.81174C 164.549 5.81174 164.916 5.879 165.369 6.01353L 165.112 8.32746Z"/>
<path id="path51_fill" d="M 170.968 20.933C 169.242 20.8971 167.893 20.229 166.919 18.9285C 165.945 17.628 165.535 15.9643 165.689 13.9374L 165.753 13.3589C 165.898 11.915 166.304 10.5966 166.97 9.40371C 167.645 8.21087 168.465 7.314 169.43 6.71309C 170.395 6.10322 171.437 5.81174 172.556 5.83864C 173.983 5.87452 175.102 6.37228 175.913 7.33194C 176.725 8.29159 177.169 9.59206 177.246 11.2333C 177.271 11.8163 177.254 12.3993 177.194 12.9822L 177.053 14.0988L 167.995 14.0988C 167.841 15.4172 168.046 16.5383 168.61 17.4621C 169.182 18.3859 170.032 18.8657 171.16 18.9016C 172.526 18.9375 173.791 18.2917 174.952 16.9643L 176.285 18.1482C 175.704 19.0272 174.952 19.7177 174.03 20.22C 173.116 20.7133 172.095 20.9509 170.968 20.933ZM 172.441 7.87006C 171.484 7.84315 170.647 8.18396 169.93 8.89249C 169.221 9.60102 168.657 10.6548 168.239 12.054L 174.978 12.0674L 175.029 11.8522C 175.166 10.7221 174.991 9.78488 174.504 9.04048C 174.025 8.2871 173.338 7.89697 172.441 7.87006Z"/>
<path id="path52_fill" fill-rule="evenodd" d="M 16.1856 0.322791L 22.8651 7.33636C 23.275 7.76675 23.275 8.46454 22.8651 8.89493L 16.1856 15.9085C 15.7757 16.3389 15.1111 16.3389 14.7012 15.9085C 14.2913 15.4781 14.2913 14.7803 14.7012 14.3499L 19.589 9.21772L 0 9.21772L 0 7.01357L 19.589 7.01357L 14.7012 1.88136C 14.2913 1.45097 14.2913 0.753178 14.7012 0.322791C 15.1111 -0.107597 15.7757 -0.107597 16.1856 0.322791Z"/>
<path id="path53_fill" d="M 82.9372 43.5425C 82.9372 67.5904 64.3711 87.0851 41.4686 87.0851C 18.5661 87.0851 0 67.5904 0 43.5425C 0 19.4947 18.5661 0 41.4686 0C 64.3711 0 82.9372 19.4947 82.9372 43.5425Z"/>
<path id="path54_fill" d="M 82.9372 43.5425C 82.9372 67.5904 64.3711 87.0851 41.4686 87.0851C 18.5661 87.0851 0 67.5904 0 43.5425C 0 19.4947 18.5661 0 41.4686 0C 64.3711 0 82.9372 19.4947 82.9372 43.5425Z"/>
<path id="path55_fill" d="M 36.1703 18.9896C 36.1703 29.4773 28.0733 37.9793 18.0852 37.9793C 8.097 37.9793 0 29.4773 0 18.9896C 0 8.50196 8.097 0 18.0852 0C 28.0733 0 36.1703 8.50196 36.1703 18.9896Z"/>
<path id="path56_fill" d="M 4.90455 23.5052L 0.292121 23.5052L 0.292121 0L 4.90455 0L 4.90455 23.5052Z"/>
<path id="path57_fill" d="M 27.3979 23.5052L 22.7854 23.5052L 13.8066 8.03957L 13.8066 23.5052L 9.19412 23.5052L 9.19412 0L 13.8066 0L 22.8008 15.498L 22.8008 0L 27.3979 0L 27.3979 23.5052Z"/>
<path id="path58_fill" d="M 36.0385 15.2235L 36.0385 23.5052L 31.4261 23.5052L 31.4261 0L 40.1589 0C 41.8399 0 43.3159 0.322874 44.5869 0.968623C 45.8681 1.61437 46.8521 2.53456 47.5388 3.7292C 48.2256 4.91307 48.5689 6.26376 48.5689 7.78127C 48.5689 10.0844 47.8156 11.9033 46.3088 13.2378C 44.8124 14.5616 42.7368 15.2235 40.0821 15.2235L 36.0385 15.2235ZM 36.0385 11.3006L 40.1589 11.3006C 41.3787 11.3006 42.3063 10.9992 42.9418 10.3966C 43.5875 9.79385 43.9104 8.93285 43.9104 7.81356C 43.9104 6.66197 43.5875 5.73102 42.9418 5.02069C 42.296 4.31037 41.4043 3.94445 40.2665 3.92292L 36.0385 3.92292L 36.0385 11.3006Z"/>
<path id="path59_fill" d="M 68.6945 0L 68.6945 15.4818C 68.6945 18.0541 67.9258 20.0882 66.3883 21.5841C 64.8611 23.0801 62.7701 23.8281 60.1154 23.8281C 57.5017 23.8281 55.4261 23.1017 53.8886 21.6487C 52.3511 20.1958 51.567 18.1993 51.5363 15.6594L 51.5363 0L 56.1487 0L 56.1487 15.5141C 56.1487 17.0531 56.4972 18.1778 57.1942 18.8881C 57.9014 19.5877 58.8752 19.9375 60.1154 19.9375C 62.7086 19.9375 64.0257 18.5061 64.0667 15.6433L 64.0667 0L 68.6945 0Z"/>
<path id="path60_fill" d="M 89.3275 3.92292L 82.4703 3.92292L 82.4703 23.5052L 77.8579 23.5052L 77.8579 3.92292L 71.093 3.92292L 71.093 0L 89.3275 0L 89.3275 3.92292Z"/>
<path id="path61_fill" d="M 4.61243 58.1873L 14.4062 58.1873L 14.4062 62.078L 0 62.078L 0 38.5727L 4.61243 38.5727L 4.61243 58.1873Z"/>
<path id="path62_fill" d="M 30.0116 57.2348L 21.9244 57.2348L 20.387 62.078L 15.4824 62.078L 23.8155 38.5727L 28.0897 38.5727L 36.469 62.078L 31.5644 62.078L 30.0116 57.2348ZM 23.1698 53.3119L 28.7662 53.3119L 25.9526 44.5136L 23.1698 53.3119Z"/>
<path id="path63_fill" d="M 43.9719 49.163L 48.6304 38.5727L 53.6734 38.5727L 46.3242 53.5541L 46.3242 62.078L 41.6349 62.078L 41.6349 53.5541L 34.2858 38.5727L 39.3441 38.5727L 43.9719 49.163Z"/>
<path id="path64_fill" d="M 69.1865 51.8913L 60.3306 51.8913L 60.3306 58.1873L 70.724 58.1873L 70.724 62.078L 55.7182 62.078L 55.7182 38.5727L 70.6932 38.5727L 70.6932 42.4956L 60.3306 42.4956L 60.3306 48.0975L 69.1865 48.0975L 69.1865 51.8913Z"/>
<path id="path65_fill" d="M 81.717 53.4734L 78.0424 53.4734L 78.0424 62.078L 73.43 62.078L 73.43 38.5727L 81.7477 38.5727C 84.3922 38.5727 86.4319 39.1916 87.8669 40.4292C 89.3018 41.6669 90.0193 43.4158 90.0193 45.6759C 90.0193 47.2796 89.6862 48.6195 89.02 49.6957C 88.364 50.7612 87.3646 51.6114 86.0219 52.2464L 90.865 61.8519L 90.865 62.078L 85.9143 62.078L 81.717 53.4734ZM 78.0424 49.5504L 81.7631 49.5504C 82.9213 49.5504 83.8182 49.2437 84.4537 48.6302C 85.0892 48.006 85.4069 47.1504 85.4069 46.0634C 85.4069 44.9549 85.1045 44.0831 84.4998 43.4481C 83.9053 42.8131 82.9879 42.4956 81.7477 42.4956L 78.0424 42.4956L 78.0424 49.5504Z"/>
<path id="path66_fill" d="M 18.4959 23.5052L 13.8834 23.5052L 13.8834 13.4316L 4.88918 13.4316L 4.88918 23.5052L 0.276746 23.5052L 0.276746 0L 4.88918 0L 4.88918 9.52479L 13.8834 9.52479L 13.8834 0L 18.4959 0L 18.4959 23.5052Z"/>
<path id="path67_fill" d="M 27.444 23.5052L 22.8315 23.5052L 22.8315 0L 27.444 0L 27.444 23.5052Z"/>
<path id="path68_fill" d="M 31.7335 23.5052L 31.7335 0L 38.6214 0C 40.5894 0 42.3473 0.468168 43.895 1.4045C 45.453 2.33008 46.6676 3.65386 47.5388 5.37586C 48.4101 7.08709 48.8457 9.0351 48.8457 11.2199L 48.8457 12.3015C 48.8457 14.4863 48.4152 16.4289 47.5542 18.1294C 46.7035 19.8299 45.4991 21.1483 43.9411 22.0846C 42.3831 23.0209 40.6253 23.4945 38.6676 23.5052L 31.7335 23.5052ZM 36.346 3.92292L 36.346 19.6146L 38.5753 19.6146C 40.3793 19.6146 41.7579 18.9958 42.7111 17.7581C 43.6644 16.5204 44.1512 14.75 44.1717 12.4468L 44.1717 11.2037C 44.1717 8.81447 43.7003 7.00637 42.7573 5.77945C 41.8143 4.54176 40.4357 3.92292 38.6214 3.92292L 36.346 3.92292Z"/>
<path id="path69_fill" d="M 52.2128 23.5052L 52.2128 0L 59.1007 0C 61.0686 0 62.8265 0.468168 64.3742 1.4045C 65.9322 2.33008 67.1468 3.65386 68.018 5.37586C 68.8893 7.08709 69.3249 9.0351 69.3249 11.2199L 69.3249 12.3015C 69.3249 14.4863 68.8944 16.4289 68.0334 18.1294C 67.1827 19.8299 65.9783 21.1483 64.4203 22.0846C 62.8624 23.0209 61.1045 23.4945 59.1468 23.5052L 52.2128 23.5052ZM 56.8252 3.92292L 56.8252 19.6146L 59.0545 19.6146C 60.8585 19.6146 62.2371 18.9958 63.1903 17.7581C 64.1436 16.5204 64.6305 14.75 64.651 12.4468L 64.651 11.2037C 64.651 8.81447 64.1795 7.00637 63.2365 5.77945C 62.2935 4.54176 60.9149 3.92292 59.1007 3.92292L 56.8252 3.92292Z"/>
<path id="path70_fill" d="M 86.1603 13.3186L 77.3044 13.3186L 77.3044 19.6146L 87.6977 19.6146L 87.6977 23.5052L 72.692 23.5052L 72.692 0L 87.667 0L 87.667 3.92292L 77.3044 3.92292L 77.3044 9.52479L 86.1603 9.52479L 86.1603 13.3186Z"/>
<path id="path71_fill" d="M 108.607 23.5052L 103.995 23.5052L 95.0161 8.03957L 95.0161 23.5052L 90.4037 23.5052L 90.4037 0L 95.0161 0L 104.01 15.498L 104.01 0L 108.607 0L 108.607 23.5052Z"/>
<path id="path72_fill" d="M 4.61243 58.1873L 14.4062 58.1873L 14.4062 62.0779L 0 62.0779L 0 38.5727L 4.61243 38.5727L 4.61243 58.1873Z"/>
<path id="path73_fill" d="M 30.0116 57.2348L 21.9244 57.2348L 20.387 62.0779L 15.4824 62.0779L 23.8155 38.5727L 28.0897 38.5727L 36.469 62.0779L 31.5644 62.0779L 30.0116 57.2348ZM 23.1698 53.3119L 28.7662 53.3119L 25.9526 44.5136L 23.1698 53.3119Z"/>
<path id="path74_fill" d="M 43.9719 49.163L 48.6304 38.5727L 53.6734 38.5727L 46.3242 53.5541L 46.3242 62.0779L 41.6349 62.0779L 41.6349 53.5541L 34.2858 38.5727L 39.3441 38.5727L 43.9719 49.163Z"/>
<path id="path75_fill" d="M 69.1865 51.8913L 60.3306 51.8913L 60.3306 58.1873L 70.724 58.1873L 70.724 62.0779L 55.7182 62.0779L 55.7182 38.5727L 70.6932 38.5727L 70.6932 42.4956L 60.3306 42.4956L 60.3306 48.0975L 69.1865 48.0975L 69.1865 51.8913Z"/>
<path id="path76_fill" d="M 81.717 53.4734L 78.0424 53.4734L 78.0424 62.0779L 73.43 62.0779L 73.43 38.5727L 81.7477 38.5727C 84.3922 38.5727 86.4319 39.1916 87.8669 40.4292C 89.3018 41.6669 90.0193 43.4158 90.0193 45.6759C 90.0193 47.2795 89.6862 48.6195 89.02 49.6957C 88.364 50.7612 87.3646 51.6114 86.0219 52.2464L 90.865 61.8519L 90.865 62.0779L 85.9143 62.0779L 81.717 53.4734ZM 78.0424 49.5504L 81.7631 49.5504C 82.9213 49.5504 83.8182 49.2437 84.4537 48.6302C 85.0892 48.006 85.4069 47.1504 85.4069 46.0634C 85.4069 44.9549 85.1045 44.0831 84.4998 43.4481C 83.9053 42.8131 82.9879 42.4956 81.7477 42.4956L 78.0424 42.4956L 78.0424 49.5504Z"/>
<path id="path77_fill" d="M 105.148 55.9111C 105.148 54.9962 104.841 54.2967 104.226 53.8124C 103.611 53.3173 102.504 52.8007 100.905 52.2626C 99.3057 51.7137 98.0398 51.1756 97.1071 50.6482C 94.5651 49.206 93.2942 47.2634 93.2942 44.8203C 93.2942 43.5504 93.6324 42.4203 94.3089 41.4301C 94.9956 40.4292 95.9745 39.649 97.2455 39.0893C 98.5267 38.5297 99.9617 38.2498 101.55 38.2498C 103.149 38.2498 104.574 38.5566 105.825 39.17C 107.075 39.7727 108.044 40.6283 108.73 41.7369C 109.427 42.8454 109.776 44.1046 109.776 45.5145L 105.163 45.5145C 105.163 44.4383 104.841 43.6042 104.195 43.0122C 103.549 42.4095 102.642 42.1082 101.474 42.1082C 100.346 42.1082 99.4697 42.3611 98.8445 42.8669C 98.2192 43.362 97.9066 44.0185 97.9066 44.8365C 97.9066 45.6006 98.2705 46.241 98.9982 46.7576C 99.7362 47.2742 100.818 47.7585 102.242 48.2105C 104.866 49.0392 106.778 50.067 107.977 51.294C 109.176 52.5209 109.776 54.0491 109.776 55.8788C 109.776 57.9129 109.043 59.5111 107.577 60.6734C 106.112 61.825 104.139 62.4008 101.658 62.4008C 99.9361 62.4008 98.3678 62.0726 96.9534 61.4161C 95.5389 60.7488 94.4575 59.8394 93.7093 58.6878C 92.9713 57.5362 92.6023 56.2016 92.6023 54.6841L 97.2301 54.6841C 97.2301 57.2779 98.7061 58.5748 101.658 58.5748C 102.755 58.5748 103.611 58.3434 104.226 57.8806C 104.841 57.407 105.148 56.7505 105.148 55.9111Z"/>
<path id="path78_fill" d="M 19.0647 12.6082C 19.0647 14.9222 18.6752 16.9509 17.8962 18.6944C 17.1173 20.4379 16 21.7832 14.5445 22.7303C 13.0993 23.6774 11.4388 24.151 9.56311 24.151C 7.70789 24.151 6.05254 23.6828 4.59706 22.7465C 3.14158 21.8102 2.0141 20.4756 1.21461 18.7428C 0.415119 16.9993 0.0102499 14.9975 0 12.7374L 0 11.575C 0 9.26111 0.394619 7.227 1.18386 5.47272C 1.98335 3.70767 3.10571 2.35698 4.55093 1.42065C 6.00641 0.473549 7.66689 0 9.53236 0C 11.3978 0 13.0532 0.473549 14.4984 1.42065C 15.9539 2.35698 17.0763 3.70767 17.8655 5.47272C 18.665 7.227 19.0647 9.25573 19.0647 11.5589L 19.0647 12.6082ZM 14.3908 11.5428C 14.3908 9.07815 13.9706 7.20548 13.1301 5.92474C 12.2896 4.64401 11.0903 4.00364 9.53236 4.00364C 7.98464 4.00364 6.79053 4.63863 5.95004 5.9086C 5.10955 7.16781 4.68418 9.01895 4.67393 11.462L 4.67393 12.6082C 4.67393 15.0083 5.09418 16.8702 5.93467 18.194C 6.77515 19.5177 7.98464 20.1796 9.56311 20.1796C 11.1108 20.1796 12.2998 19.5447 13.1301 18.2747C 13.9603 16.9939 14.3805 15.132 14.3908 12.689L 14.3908 11.5428Z"/>
<path id="path79_fill" d="M 39.3594 0.322874L 39.3594 15.8047C 39.3594 18.3769 38.5907 20.411 37.0532 21.907C 35.526 23.403 33.435 24.151 30.7803 24.151C 28.1666 24.151 26.091 23.4245 24.5535 21.9716C 23.016 20.5187 22.2319 18.5222 22.2012 15.9823L 22.2012 0.322874L 26.8136 0.322874L 26.8136 15.837C 26.8136 17.376 27.1621 18.5007 27.8591 19.211C 28.5663 19.9106 29.5401 20.2604 30.7803 20.2604C 33.3735 20.2604 34.6906 18.8289 34.7316 15.9661L 34.7316 0.322874L 39.3594 0.322874Z"/>
<path id="path80_fill" d="M 59.9924 4.2458L 53.1352 4.2458L 53.1352 23.8281L 48.5228 23.8281L 48.5228 4.2458L 41.7579 4.2458L 41.7579 0.322874L 59.9924 0.322874L 59.9924 4.2458Z"/>
<path id="path81_fill" d="M 67.2493 15.5464L 67.2493 23.8281L 62.6369 23.8281L 62.6369 0.322874L 71.3697 0.322874C 73.0507 0.322874 74.5267 0.645748 75.7977 1.2915C 77.0789 1.93725 78.0629 2.85744 78.7496 4.05207C 79.4364 5.23594 79.7797 6.58663 79.7797 8.10414C 79.7797 10.4073 79.0264 12.2262 77.5196 13.5607C 76.0232 14.8845 73.9476 15.5464 71.2929 15.5464L 67.2493 15.5464ZM 67.2493 11.6235L 71.3697 11.6235C 72.5895 11.6235 73.5171 11.3221 74.1526 10.7194C 74.7983 10.1167 75.1212 9.25573 75.1212 8.13643C 75.1212 6.98485 74.7983 6.05389 74.1526 5.34357C 73.5068 4.63324 72.6151 4.26732 71.4774 4.2458L 67.2493 4.2458L 67.2493 11.6235Z"/>
<path id="path82_fill" d="M 99.9053 0.322874L 99.9053 15.8047C 99.9053 18.3769 99.1366 20.411 97.5991 21.907C 96.0719 23.403 93.9809 24.151 91.3262 24.151C 88.7125 24.151 86.6369 23.4245 85.0994 21.9716C 83.5619 20.5187 82.7778 18.5222 82.7471 15.9823L 82.7471 0.322874L 87.3595 0.322874L 87.3595 15.837C 87.3595 17.376 87.708 18.5007 88.405 19.211C 89.1122 19.9106 90.086 20.2604 91.3262 20.2604C 93.9194 20.2604 95.2365 18.8289 95.2775 15.9661L 95.2775 0.322874L 99.9053 0.322874Z"/>
<path id="path83_fill" d="M 120.538 4.2458L 113.681 4.2458L 113.681 23.8281L 109.069 23.8281L 109.069 4.2458L 102.304 4.2458L 102.304 0.322874L 120.538 0.322874L 120.538 4.2458Z"/>
<path id="path84_fill" d="M 19.772 58.5102L 29.5657 58.5102L 29.5657 62.4008L 15.1595 62.4008L 15.1595 38.8956L 19.772 38.8956L 19.772 58.5102Z"/>
<path id="path85_fill" d="M 45.1711 57.5577L 37.084 57.5577L 35.5465 62.4008L 30.6419 62.4008L 38.9751 38.8956L 43.2493 38.8956L 51.6285 62.4008L 46.724 62.4008L 45.1711 57.5577ZM 38.3293 53.6348L 43.9257 53.6348L 41.1122 44.8365L 38.3293 53.6348Z"/>
<path id="path86_fill" d="M 59.1314 49.4859L 63.79 38.8956L 68.8329 38.8956L 61.4837 53.8769L 61.4837 62.4008L 56.7944 62.4008L 56.7944 53.8769L 49.4453 38.8956L 54.5036 38.8956L 59.1314 49.4859Z"/>
<path id="path87_fill" d="M 84.346 52.2141L 75.4902 52.2141L 75.4902 58.5102L 85.8835 58.5102L 85.8835 62.4008L 70.8777 62.4008L 70.8777 38.8956L 85.8528 38.8956L 85.8528 42.8185L 75.4902 42.8185L 75.4902 48.4204L 84.346 48.4204L 84.346 52.2141Z"/>
<path id="path88_fill" d="M 96.8765 53.7962L 93.2019 53.7962L 93.2019 62.4008L 88.5895 62.4008L 88.5895 38.8956L 96.9072 38.8956C 99.5517 38.8956 101.591 39.5144 103.026 40.7521C 104.461 41.9898 105.179 43.7387 105.179 45.9988C 105.179 47.6024 104.846 48.9424 104.18 50.0186C 103.524 51.0841 102.524 51.9343 101.181 52.5693L 106.024 62.1748L 106.024 62.4008L 101.074 62.4008L 96.8765 53.7962ZM 93.2019 49.8733L 96.9226 49.8733C 98.0808 49.8733 98.9777 49.5666 99.6132 48.9531C 100.249 48.3289 100.566 47.4733 100.566 46.3863C 100.566 45.2777 100.264 44.406 99.6593 43.771C 99.0648 43.136 98.1475 42.8185 96.9072 42.8185L 93.2019 42.8185L 93.2019 49.8733Z"/>
<path id="path89_fill" d="M 6.72656 20.4648C 7.5 20.4648 8.17578 20.2305 8.75391 19.7617C 9.33203 19.293 9.65234 18.707 9.71484 18.0039L 11.7656 18.0039C 11.7266 18.7305 11.4766 19.4219 11.0156 20.0781C 10.5547 20.7344 9.9375 21.2578 9.16406 21.6484C 8.39844 22.0391 7.58594 22.2344 6.72656 22.2344C 5 22.2344 3.625 21.6602 2.60156 20.5117C 1.58594 19.3555 1.07812 17.7773 1.07812 15.7773L 1.07812 15.4141C 1.07812 14.1797 1.30469 13.082 1.75781 12.1211C 2.21094 11.1602 2.85938 10.4141 3.70312 9.88281C 4.55469 9.35156 5.55859 9.08594 6.71484 9.08594C 8.13672 9.08594 9.31641 9.51172 10.2539 10.3633C 11.1992 11.2148 11.7031 12.3203 11.7656 13.6797L 9.71484 13.6797C 9.65234 12.8594 9.33984 12.1875 8.77734 11.6641C 8.22266 11.1328 7.53516 10.8672 6.71484 10.8672C 5.61328 10.8672 4.75781 11.2656 4.14844 12.0625C 3.54687 12.8516 3.24609 13.9961 3.24609 15.4961L 3.24609 15.9062C 3.24609 17.3672 3.54687 18.4922 4.14844 19.2812C 4.75 20.0703 5.60937 20.4648 6.72656 20.4648ZM 16.3711 10.8555C 17.332 9.67578 18.582 9.08594 20.1211 9.08594C 22.8008 9.08594 24.1523 10.5977 24.1758 13.6211L 24.1758 22L 22.0078 22L 22.0078 13.6094C 22 12.6953 21.7891 12.0195 21.375 11.582C 20.9687 11.1445 20.332 10.9258 19.4648 10.9258C 18.7617 10.9258 18.1445 11.1133 17.6133 11.4883C 17.082 11.8633 16.668 12.3555 16.3711 12.9648L 16.3711 22L 14.2031 22L 14.2031 4L 16.3711 4L 16.3711 10.8555ZM 35.25 22C 35.125 21.75 35.0234 21.3047 34.9453 20.6641C 33.9375 21.7109 32.7344 22.2344 31.3359 22.2344C 30.0859 22.2344 29.0586 21.8828 28.2539 21.1797C 27.457 20.4687 27.0586 19.5703 27.0586 18.4844C 27.0586 17.1641 27.5586 16.1406 28.5586 15.4141C 29.5664 14.6797 30.9805 14.3125 32.8008 14.3125L 34.9102 14.3125L 34.9102 13.3164C 34.9102 12.5586 34.6836 11.957 34.2305 11.5117C 33.7773 11.0586 33.1094 10.832 32.2266 10.832C 31.4531 10.832 30.8047 11.0273 30.2812 11.418C 29.7578 11.8086 29.4961 12.2813 29.4961 12.8359L 27.3164 12.8359C 27.3164 12.2031 27.5391 11.5938 27.9844 11.0078C 28.4375 10.4141 29.0469 9.94531 29.8125 9.60156C 30.5859 9.25781 31.4336 9.08594 32.3555 9.08594C 33.8164 9.08594 34.9609 9.45313 35.7891 10.1875C 36.6172 10.9141 37.0469 11.918 37.0781 13.1992L 37.0781 19.0352C 37.0781 20.1992 37.2266 21.125 37.5234 21.8125L 37.5234 22L 35.25 22ZM 31.6523 20.3477C 32.332 20.3477 32.9766 20.1719 33.5859 19.8203C 34.1953 19.4688 34.6367 19.0117 34.9102 18.4492L 34.9102 15.8477L 33.2109 15.8477C 30.5547 15.8477 29.2266 16.625 29.2266 18.1797C 29.2266 18.8594 29.4531 19.3906 29.9062 19.7734C 30.3594 20.1563 30.9414 20.3477 31.6523 20.3477ZM 42.5273 9.32031L 42.5977 10.9141C 43.5664 9.69531 44.832 9.08594 46.3945 9.08594C 49.0742 9.08594 50.4258 10.5977 50.4492 13.6211L 50.4492 22L 48.2812 22L 48.2812 13.6094C 48.2734 12.6953 48.0625 12.0195 47.6484 11.582C 47.2422 11.1445 46.6055 10.9258 45.7383 10.9258C 45.0352 10.9258 44.418 11.1133 43.8867 11.4883C 43.3555 11.8633 42.9414 12.3555 42.6445 12.9648L 42.6445 22L 40.4766 22L 40.4766 9.32031L 42.5273 9.32031ZM 53.2031 15.5547C 53.2031 13.5781 53.6602 12.0078 54.5742 10.8438C 55.4883 9.67188 56.6992 9.08594 58.207 9.08594C 59.7539 9.08594 60.9609 9.63281 61.8281 10.7266L 61.9336 9.32031L 63.9141 9.32031L 63.9141 21.6953C 63.9141 23.3359 63.4258 24.6289 62.4492 25.5742C 61.4805 26.5195 60.1758 26.9922 58.5352 26.9922C 57.6211 26.9922 56.7266 26.7969 55.8516 26.4062C 54.9766 26.0156 54.3086 25.4805 53.8477 24.8008L 54.9727 23.5C 55.9023 24.6484 57.0391 25.2227 58.3828 25.2227C 59.4375 25.2227 60.2578 24.9258 60.8438 24.332C 61.4375 23.7383 61.7344 22.9023 61.7344 21.8242L 61.7344 20.7344C 60.8672 21.7344 59.6836 22.2344 58.1836 22.2344C 56.6992 22.2344 55.4961 21.6367 54.5742 20.4414C 53.6602 19.2461 53.2031 17.6172 53.2031 15.5547ZM 55.3828 15.8008C 55.3828 17.2305 55.6758 18.3555 56.2617 19.1758C 56.8477 19.9883 57.668 20.3945 58.7227 20.3945C 60.0898 20.3945 61.0937 19.7734 61.7344 18.5312L 61.7344 12.7422C 61.0703 11.5313 60.0742 10.9258 58.7461 10.9258C 57.6914 10.9258 56.8672 11.3359 56.2734 12.1562C 55.6797 12.9766 55.3828 14.1914 55.3828 15.8008ZM 72.457 22.2344C 70.7383 22.2344 69.3398 21.6719 68.2617 20.5469C 67.1836 19.4141 66.6445 17.9023 66.6445 16.0117L 66.6445 15.6133C 66.6445 14.3555 66.8828 13.2344 67.3594 12.25C 67.8437 11.2578 68.5156 10.4844 69.375 9.92969C 70.2422 9.36719 71.1797 9.08594 72.1875 9.08594C 73.8359 9.08594 75.1172 9.62891 76.0312 10.7148C 76.9453 11.8008 77.4023 13.3555 77.4023 15.3789L 77.4023 16.2812L 68.8125 16.2812C 68.8437 17.5312 69.207 18.543 69.9023 19.3164C 70.6055 20.082 71.4961 20.4648 72.5742 20.4648C 73.3398 20.4648 73.9883 20.3086 74.5195 19.9961C 75.0508 19.6836 75.5156 19.2695 75.9141 18.7539L 77.2383 19.7852C 76.1758 21.418 74.582 22.2344 72.457 22.2344ZM 72.1875 10.8672C 71.3125 10.8672 70.5781 11.1875 69.9844 11.8281C 69.3906 12.4609 69.0234 13.3516 68.8828 14.5L 75.2344 14.5L 75.2344 14.3359C 75.1719 13.2344 74.875 12.3828 74.3438 11.7812C 73.8125 11.1719 73.0937 10.8672 72.1875 10.8672ZM 87.3047 18.6367C 87.3047 18.0508 87.082 17.5977 86.6367 17.2773C 86.1992 16.9492 85.4297 16.668 84.3281 16.4336C 83.2344 16.1992 82.3633 15.918 81.7148 15.5898C 81.0742 15.2617 80.5977 14.8711 80.2852 14.418C 79.9805 13.9648 79.8281 13.4258 79.8281 12.8008C 79.8281 11.7617 80.2656 10.8828 81.1406 10.1641C 82.0234 9.44531 83.1484 9.08594 84.5156 9.08594C 85.9531 9.08594 87.1172 9.45703 88.0078 10.1992C 88.9063 10.9414 89.3555 11.8906 89.3555 13.0469L 87.1758 13.0469C 87.1758 12.4531 86.9219 11.9414 86.4141 11.5117C 85.9141 11.082 85.2812 10.8672 84.5156 10.8672C 83.7266 10.8672 83.1094 11.0391 82.6641 11.3828C 82.2188 11.7266 81.9961 12.1758 81.9961 12.7305C 81.9961 13.2539 82.2031 13.6484 82.6172 13.9141C 83.0313 14.1797 83.7773 14.4336 84.8555 14.6758C 85.9414 14.918 86.8203 15.207 87.4922 15.543C 88.1641 15.8789 88.6602 16.2852 88.9805 16.7617C 89.3086 17.2305 89.4727 17.8047 89.4727 18.4844C 89.4727 19.6172 89.0195 20.5273 88.1133 21.2148C 87.207 21.8945 86.0312 22.2344 84.5859 22.2344C 83.5703 22.2344 82.6719 22.0547 81.8906 21.6953C 81.1094 21.3359 80.4961 20.8359 80.0508 20.1953C 79.6133 19.5469 79.3945 18.8477 79.3945 18.0977L 81.5625 18.0977C 81.6016 18.8242 81.8906 19.4023 82.4297 19.832C 82.9766 20.2539 83.6953 20.4648 84.5859 20.4648C 85.4062 20.4648 86.0625 20.3008 86.5547 19.9727C 87.0547 19.6367 87.3047 19.1914 87.3047 18.6367ZM 101.191 6.25L 101.191 9.32031L 103.559 9.32031L 103.559 10.9961L 101.191 10.9961L 101.191 18.8594C 101.191 19.3672 101.297 19.75 101.508 20.0078C 101.719 20.2578 102.078 20.3828 102.586 20.3828C 102.836 20.3828 103.18 20.3359 103.617 20.2422L 103.617 22C 103.047 22.1562 102.492 22.2344 101.953 22.2344C 100.984 22.2344 100.254 21.9414 99.7617 21.3555C 99.2695 20.7695 99.0234 19.9375 99.0234 18.8594L 99.0234 10.9961L 96.7148 10.9961L 96.7148 9.32031L 99.0234 9.32031L 99.0234 6.25L 101.191 6.25ZM 105.293 15.543C 105.293 14.3008 105.535 13.1836 106.02 12.1914C 106.512 11.1992 107.191 10.4336 108.059 9.89453C 108.934 9.35547 109.93 9.08594 111.047 9.08594C 112.773 9.08594 114.168 9.68359 115.23 10.8789C 116.301 12.0742 116.836 13.6641 116.836 15.6484L 116.836 15.8008C 116.836 17.0352 116.598 18.1445 116.121 19.1289C 115.652 20.1055 114.977 20.8672 114.094 21.4141C 113.219 21.9609 112.211 22.2344 111.07 22.2344C 109.352 22.2344 107.957 21.6367 106.887 20.4414C 105.824 19.2461 105.293 17.6641 105.293 15.6953L 105.293 15.543ZM 107.473 15.8008C 107.473 17.207 107.797 18.3359 108.445 19.1875C 109.102 20.0391 109.977 20.4648 111.07 20.4648C 112.172 20.4648 113.047 20.0352 113.695 19.1758C 114.344 18.3086 114.668 17.0977 114.668 15.543C 114.668 14.1523 114.336 13.0273 113.672 12.168C 113.016 11.3008 112.141 10.8672 111.047 10.8672C 109.977 10.8672 109.113 11.293 108.457 12.1445C 107.801 12.9961 107.473 14.2148 107.473 15.8008ZM 127.547 9.32031L 127.605 10.7266C 128.535 9.63281 129.789 9.08594 131.367 9.08594C 133.141 9.08594 134.348 9.76562 134.988 11.125C 135.41 10.5156 135.957 10.0234 136.629 9.64844C 137.309 9.27344 138.109 9.08594 139.031 9.08594C 141.813 9.08594 143.227 10.5586 143.273 13.5039L 143.273 22L 141.105 22L 141.105 13.6328C 141.105 12.7266 140.898 12.0508 140.484 11.6055C 140.07 11.1523 139.375 10.9258 138.398 10.9258C 137.594 10.9258 136.926 11.168 136.395 11.6523C 135.863 12.1289 135.555 12.7734 135.469 13.5859L 135.469 22L 133.289 22L 133.289 13.6914C 133.289 11.8477 132.387 10.9258 130.582 10.9258C 129.16 10.9258 128.187 11.5313 127.664 12.7422L 127.664 22L 125.496 22L 125.496 9.32031L 127.547 9.32031ZM 148.91 22L 146.742 22L 146.742 9.32031L 148.91 9.32031L 148.91 22ZM 146.566 5.95703C 146.566 5.60547 146.672 5.30859 146.883 5.06641C 147.102 4.82422 147.422 4.70312 147.844 4.70312C 148.266 4.70312 148.586 4.82422 148.805 5.06641C 149.023 5.30859 149.133 5.60547 149.133 5.95703C 149.133 6.30859 149.023 6.60156 148.805 6.83594C 148.586 7.07031 148.266 7.1875 147.844 7.1875C 147.422 7.1875 147.102 7.07031 146.883 6.83594C 146.672 6.60156 146.566 6.30859 146.566 5.95703ZM 154.441 9.32031L 154.512 10.9141C 155.48 9.69531 156.746 9.08594 158.309 9.08594C 160.988 9.08594 162.34 10.5977 162.363 13.6211L 162.363 22L 160.195 22L 160.195 13.6094C 160.187 12.6953 159.977 12.0195 159.562 11.582C 159.156 11.1445 158.52 10.9258 157.652 10.9258C 156.949 10.9258 156.332 11.1133 155.801 11.4883C 155.27 11.8633 154.855 12.3555 154.559 12.9648L 154.559 22L 152.391 22L 152.391 9.32031L 154.441 9.32031ZM 167.988 22L 165.82 22L 165.82 9.32031L 167.988 9.32031L 167.988 22ZM 165.645 5.95703C 165.645 5.60547 165.75 5.30859 165.961 5.06641C 166.18 4.82422 166.5 4.70312 166.922 4.70312C 167.344 4.70312 167.664 4.82422 167.883 5.06641C 168.102 5.30859 168.211 5.60547 168.211 5.95703C 168.211 6.30859 168.102 6.60156 167.883 6.83594C 167.664 7.07031 167.344 7.1875 166.922 7.1875C 166.5 7.1875 166.18 7.07031 165.961 6.83594C 165.75 6.60156 165.645 6.30859 165.645 5.95703ZM 173.508 9.32031L 173.566 10.7266C 174.496 9.63281 175.75 9.08594 177.328 9.08594C 179.102 9.08594 180.309 9.76562 180.949 11.125C 181.371 10.5156 181.918 10.0234 182.59 9.64844C 183.27 9.27344 184.07 9.08594 184.992 9.08594C 187.773 9.08594 189.188 10.5586 189.234 13.5039L 189.234 22L 187.066 22L 187.066 13.6328C 187.066 12.7266 186.859 12.0508 186.445 11.6055C 186.031 11.1523 185.336 10.9258 184.359 10.9258C 183.555 10.9258 182.887 11.168 182.355 11.6523C 181.824 12.1289 181.516 12.7734 181.43 13.5859L 181.43 22L 179.25 22L 179.25 13.6914C 179.25 11.8477 178.348 10.9258 176.543 10.9258C 175.121 10.9258 174.148 11.5313 173.625 12.7422L 173.625 22L 171.457 22L 171.457 9.32031L 173.508 9.32031ZM 194.871 22L 192.703 22L 192.703 9.32031L 194.871 9.32031L 194.871 22ZM 192.527 5.95703C 192.527 5.60547 192.633 5.30859 192.844 5.06641C 193.063 4.82422 193.383 4.70312 193.805 4.70312C 194.227 4.70312 194.547 4.82422 194.766 5.06641C 194.984 5.30859 195.094 5.60547 195.094 5.95703C 195.094 6.30859 194.984 6.60156 194.766 6.83594C 194.547 7.07031 194.227 7.1875 193.805 7.1875C 193.383 7.1875 193.063 7.07031 192.844 6.83594C 192.633 6.60156 192.527 6.30859 192.527 5.95703ZM 200.391 20.2305L 207.809 20.2305L 207.809 22L 197.742 22L 197.742 20.4062L 204.738 11.1133L 197.848 11.1133L 197.848 9.32031L 207.457 9.32031L 207.457 10.8555L 200.391 20.2305ZM 215.332 22.2344C 213.613 22.2344 212.215 21.6719 211.137 20.5469C 210.059 19.4141 209.52 17.9023 209.52 16.0117L 209.52 15.6133C 209.52 14.3555 209.758 13.2344 210.234 12.25C 210.719 11.2578 211.391 10.4844 212.25 9.92969C 213.117 9.36719 214.055 9.08594 215.062 9.08594C 216.711 9.08594 217.992 9.62891 218.906 10.7148C 219.82 11.8008 220.277 13.3555 220.277 15.3789L 220.277 16.2812L 211.688 16.2812C 211.719 17.5312 212.082 18.543 212.777 19.3164C 213.48 20.082 214.371 20.4648 215.449 20.4648C 216.215 20.4648 216.863 20.3086 217.395 19.9961C 217.926 19.6836 218.391 19.2695 218.789 18.7539L 220.113 19.7852C 219.051 21.418 217.457 22.2344 215.332 22.2344ZM 215.062 10.8672C 214.188 10.8672 213.453 11.1875 212.859 11.8281C 212.266 12.4609 211.898 13.3516 211.758 14.5L 218.109 14.5L 218.109 14.3359C 218.047 13.2344 217.75 12.3828 217.219 11.7812C 216.688 11.1719 215.969 10.8672 215.062 10.8672ZM 231.105 22L 228.938 22L 228.938 4L 231.105 4L 231.105 22ZM 234.012 15.543C 234.012 14.3008 234.254 13.1836 234.738 12.1914C 235.23 11.1992 235.91 10.4336 236.777 9.89453C 237.652 9.35547 238.648 9.08594 239.766 9.08594C 241.492 9.08594 242.887 9.68359 243.949 10.8789C 245.02 12.0742 245.555 13.6641 245.555 15.6484L 245.555 15.8008C 245.555 17.0352 245.316 18.1445 244.84 19.1289C 244.371 20.1055 243.695 20.8672 242.812 21.4141C 241.937 21.9609 240.93 22.2344 239.789 22.2344C 238.07 22.2344 236.676 21.6367 235.605 20.4414C 234.543 19.2461 234.012 17.6641 234.012 15.6953L 234.012 15.543ZM 236.191 15.8008C 236.191 17.207 236.516 18.3359 237.164 19.1875C 237.82 20.0391 238.695 20.4648 239.789 20.4648C 240.891 20.4648 241.766 20.0352 242.414 19.1758C 243.062 18.3086 243.387 17.0977 243.387 15.543C 243.387 14.1523 243.055 13.0273 242.391 12.168C 241.734 11.3008 240.859 10.8672 239.766 10.8672C 238.695 10.8672 237.832 11.293 237.176 12.1445C 236.52 12.9961 236.191 14.2148 236.191 15.8008ZM 255.656 18.6367C 255.656 18.0508 255.434 17.5977 254.988 17.2773C 254.551 16.9492 253.781 16.668 252.68 16.4336C 251.586 16.1992 250.715 15.918 250.066 15.5898C 249.426 15.2617 248.949 14.8711 248.637 14.418C 248.332 13.9648 248.18 13.4258 248.18 12.8008C 248.18 11.7617 248.617 10.8828 249.492 10.1641C 250.375 9.44531 251.5 9.08594 252.867 9.08594C 254.305 9.08594 255.469 9.45703 256.359 10.1992C 257.258 10.9414 257.707 11.8906 257.707 13.0469L 255.527 13.0469C 255.527 12.4531 255.273 11.9414 254.766 11.5117C 254.266 11.082 253.633 10.8672 252.867 10.8672C 252.078 10.8672 251.461 11.0391 251.016 11.3828C 250.57 11.7266 250.348 12.1758 250.348 12.7305C 250.348 13.2539 250.555 13.6484 250.969 13.9141C 251.383 14.1797 252.129 14.4336 253.207 14.6758C 254.293 14.918 255.172 15.207 255.844 15.543C 256.516 15.8789 257.012 16.2852 257.332 16.7617C 257.66 17.2305 257.824 17.8047 257.824 18.4844C 257.824 19.6172 257.371 20.5273 256.465 21.2148C 255.559 21.8945 254.383 22.2344 252.938 22.2344C 251.922 22.2344 251.023 22.0547 250.242 21.6953C 249.461 21.3359 248.848 20.8359 248.402 20.1953C 247.965 19.5469 247.746 18.8477 247.746 18.0977L 249.914 18.0977C 249.953 18.8242 250.242 19.4023 250.781 19.832C 251.328 20.2539 252.047 20.4648 252.938 20.4648C 253.758 20.4648 254.414 20.3008 254.906 19.9727C 255.406 19.6367 255.656 19.1914 255.656 18.6367ZM 268.031 18.6367C 268.031 18.0508 267.809 17.5977 267.363 17.2773C 266.926 16.9492 266.156 16.668 265.055 16.4336C 263.961 16.1992 263.09 15.918 262.441 15.5898C 261.801 15.2617 261.324 14.8711 261.012 14.418C 260.707 13.9648 260.555 13.4258 260.555 12.8008C 260.555 11.7617 260.992 10.8828 261.867 10.1641C 262.75 9.44531 263.875 9.08594 265.242 9.08594C 266.68 9.08594 267.844 9.45703 268.734 10.1992C 269.633 10.9414 270.082 11.8906 270.082 13.0469L 267.902 13.0469C 267.902 12.4531 267.648 11.9414 267.141 11.5117C 266.641 11.082 266.008 10.8672 265.242 10.8672C 264.453 10.8672 263.836 11.0391 263.391 11.3828C 262.945 11.7266 262.723 12.1758 262.723 12.7305C 262.723 13.2539 262.93 13.6484 263.344 13.9141C 263.758 14.1797 264.504 14.4336 265.582 14.6758C 266.668 14.918 267.547 15.207 268.219 15.543C 268.891 15.8789 269.387 16.2852 269.707 16.7617C 270.035 17.2305 270.199 17.8047 270.199 18.4844C 270.199 19.6172 269.746 20.5273 268.84 21.2148C 267.934 21.8945 266.758 22.2344 265.312 22.2344C 264.297 22.2344 263.398 22.0547 262.617 21.6953C 261.836 21.3359 261.223 20.8359 260.777 20.1953C 260.34 19.5469 260.121 18.8477 260.121 18.0977L 262.289 18.0977C 262.328 18.8242 262.617 19.4023 263.156 19.832C 263.703 20.2539 264.422 20.4648 265.312 20.4648C 266.133 20.4648 266.789 20.3008 267.281 19.9727C 267.781 19.6367 268.031 19.1914 268.031 18.6367Z"/>
</defs>
</svg>
